<?xml version="1.0" encoding="UTF-8" standalone="no"?>
<!DOCTYPE svg PUBLIC "-//W3C//DTD SVG 1.1//EN"
 "http://www.w3.org/Graphics/SVG/1.1/DTD/svg11.dtd">
<!-- Generated by graphviz version 2.40.1 (20161225.0304)
 -->
<!-- Title: controllers_diagram Pages: 1 -->
<svg width="537pt" height="508pt"
 viewBox="0.00 0.00 537.00 508.00" xmlns="http://www.w3.org/2000/svg" xmlns:xlink="http://www.w3.org/1999/xlink">
<g id="graph0" class="graph" transform="scale(1 1) rotate(0) translate(4 504)">
<title>controllers_diagram</title>
<polygon fill="transparent" stroke="transparent" points="-4,4 -4,-504 533,-504 533,4 -4,4"/>
<!-- _diagram_info -->
<g id="node1" class="node">
<title>_diagram_info</title>
<text text-anchor="start" x="323" y="-138.6" font-family="Times,serif" font-size="13.00" fill="#000000">Controllers diagram</text>
<text text-anchor="start" x="323" y="-124.6" font-family="Times,serif" font-size="13.00" fill="#000000">Date: Feb 13 2021 &#45; 18:29</text>
<text text-anchor="start" x="323" y="-110.6" font-family="Times,serif" font-size="13.00" fill="#000000">Migration version: 20210213212918</text>
<text text-anchor="start" x="323" y="-96.6" font-family="Times,serif" font-size="13.00" fill="#000000">Generated by RailRoady 1.5.3</text>
<text text-anchor="start" x="323" y="-82.6" font-family="Times,serif" font-size="13.00" fill="#000000">http://railroady.prestonlee.com</text>
</g>
<!-- ApplicationController -->
<g id="node2" class="node">
<title>ApplicationController</title>
<path fill="none" stroke="#000000" d="M132,-285.5C132,-285.5 244,-285.5 244,-285.5 250,-285.5 256,-291.5 256,-297.5 256,-297.5 256,-367.5 256,-367.5 256,-373.5 250,-379.5 244,-379.5 244,-379.5 132,-379.5 132,-379.5 126,-379.5 120,-373.5 120,-367.5 120,-367.5 120,-297.5 120,-297.5 120,-291.5 126,-285.5 132,-285.5"/>
<text text-anchor="middle" x="188" y="-364.3" font-family="Times,serif" font-size="14.00" fill="#000000">ApplicationController</text>
<polyline fill="none" stroke="#000000" points="120,-356.5 256,-356.5 "/>
<polyline fill="none" stroke="#000000" points="120,-332.5 256,-332.5 "/>
<polyline fill="none" stroke="#000000" points="120,-308.5 256,-308.5 "/>
<text text-anchor="start" x="128" y="-293.3" font-family="Times,serif" font-size="14.00" fill="#000000">current_student</text>
</g>
<!-- SubjectController -->
<g id="node3" class="node">
<title>SubjectController</title>
<path fill="none" stroke="#000000" d="M12,-.5C12,-.5 101,-.5 101,-.5 107,-.5 113,-6.5 113,-12.5 113,-12.5 113,-82.5 113,-82.5 113,-88.5 107,-94.5 101,-94.5 101,-94.5 12,-94.5 12,-94.5 6,-94.5 0,-88.5 0,-82.5 0,-82.5 0,-12.5 0,-12.5 0,-6.5 6,-.5 12,-.5"/>
<text text-anchor="middle" x="56.5" y="-79.3" font-family="Times,serif" font-size="14.00" fill="#000000">SubjectController</text>
<polyline fill="none" stroke="#000000" points="0,-71.5 113,-71.5 "/>
<text text-anchor="start" x="8" y="-56.3" font-family="Times,serif" font-size="14.00" fill="#000000">index</text>
<polyline fill="none" stroke="#000000" points="0,-48.5 113,-48.5 "/>
<polyline fill="none" stroke="#000000" points="0,-24.5 113,-24.5 "/>
</g>
<!-- StudentController -->
<g id="node4" class="node">
<title>StudentController</title>
<path fill="none" stroke="#000000" d="M162,-.5C162,-.5 251,-.5 251,-.5 257,-.5 263,-6.5 263,-12.5 263,-12.5 263,-82.5 263,-82.5 263,-88.5 257,-94.5 251,-94.5 251,-94.5 162,-94.5 162,-94.5 156,-94.5 150,-88.5 150,-82.5 150,-82.5 150,-12.5 150,-12.5 150,-6.5 156,-.5 162,-.5"/>
<text text-anchor="middle" x="206.5" y="-79.3" font-family="Times,serif" font-size="14.00" fill="#000000">StudentController</text>
<polyline fill="none" stroke="#000000" points="150,-71.5 263,-71.5 "/>
<text text-anchor="start" x="158" y="-56.3" font-family="Times,serif" font-size="14.00" fill="#000000">basic_info</text>
<polyline fill="none" stroke="#000000" points="150,-48.5 263,-48.5 "/>
<polyline fill="none" stroke="#000000" points="150,-24.5 263,-24.5 "/>
</g>
<!-- Professor::ProfessorController -->
<g id="node5" class="node">
<title>Professor::ProfessorController</title>
<path fill="none" stroke="#000000" d="M87,-120.5C87,-120.5 275,-120.5 275,-120.5 281,-120.5 287,-126.5 287,-132.5 287,-132.5 287,-246.5 287,-246.5 287,-252.5 281,-258.5 275,-258.5 275,-258.5 87,-258.5 87,-258.5 81,-258.5 75,-252.5 75,-246.5 75,-246.5 75,-132.5 75,-132.5 75,-126.5 81,-120.5 87,-120.5"/>
<text text-anchor="middle" x="181" y="-243.3" font-family="Times,serif" font-size="14.00" fill="#000000">Professor::ProfessorController</text>
<polyline fill="none" stroke="#000000" points="75,-235.5 287,-235.5 "/>
<text text-anchor="start" x="83" y="-220.3" font-family="Times,serif" font-size="14.00" fill="#000000">create_question</text>
<text text-anchor="start" x="83" y="-205.3" font-family="Times,serif" font-size="14.00" fill="#000000">index_a</text>
<text text-anchor="start" x="83" y="-190.3" font-family="Times,serif" font-size="14.00" fill="#000000">subjects</text>
<polyline fill="none" stroke="#000000" points="75,-182.5 287,-182.5 "/>
<polyline fill="none" stroke="#000000" points="75,-158.5 287,-158.5 "/>
<text text-anchor="start" x="83" y="-143.3" font-family="Times,serif" font-size="14.00" fill="#000000">create_question_alternative_params</text>
<text text-anchor="start" x="83" y="-128.3" font-family="Times,serif" font-size="14.00" fill="#000000">create_question_params</text>
</g>
<!-- QuestionController -->
<g id="node6" class="node">
<title>QuestionController</title>
<path fill="none" stroke="#000000" d="M297,-285.5C297,-285.5 485,-285.5 485,-285.5 491,-285.5 497,-291.5 497,-297.5 497,-297.5 497,-396.5 497,-396.5 497,-402.5 491,-408.5 485,-408.5 485,-408.5 297,-408.5 297,-408.5 291,-408.5 285,-402.5 285,-396.5 285,-396.5 285,-297.5 285,-297.5 285,-291.5 291,-285.5 297,-285.5"/>
<text text-anchor="middle" x="391" y="-393.3" font-family="Times,serif" font-size="14.00" fill="#000000">QuestionController</text>
<polyline fill="none" stroke="#000000" points="285,-385.5 497,-385.5 "/>
<text text-anchor="start" x="293" y="-370.3" font-family="Times,serif" font-size="14.00" fill="#000000">create</text>
<text text-anchor="start" x="293" y="-355.3" font-family="Times,serif" font-size="14.00" fill="#000000">index</text>
<polyline fill="none" stroke="#000000" points="285,-347.5 497,-347.5 "/>
<polyline fill="none" stroke="#000000" points="285,-323.5 497,-323.5 "/>
<text text-anchor="start" x="293" y="-308.3" font-family="Times,serif" font-size="14.00" fill="#000000">create_question_alternative_params</text>
<text text-anchor="start" x="293" y="-293.3" font-family="Times,serif" font-size="14.00" fill="#000000">create_question_params</text>
</g>
<!-- LessonController -->
<g id="node7" class="node">
<title>LessonController</title>
<path fill="none" stroke="#000000" d="M162,-405.5C162,-405.5 248,-405.5 248,-405.5 254,-405.5 260,-411.5 260,-417.5 260,-417.5 260,-487.5 260,-487.5 260,-493.5 254,-499.5 248,-499.5 248,-499.5 162,-499.5 162,-499.5 156,-499.5 150,-493.5 150,-487.5 150,-487.5 150,-417.5 150,-417.5 150,-411.5 156,-405.5 162,-405.5"/>
<text text-anchor="middle" x="205" y="-484.3" font-family="Times,serif" font-size="14.00" fill="#000000">LessonController</text>
<polyline fill="none" stroke="#000000" points="150,-476.5 260,-476.5 "/>
<text text-anchor="start" x="158" y="-461.3" font-family="Times,serif" font-size="14.00" fill="#000000">index</text>
<polyline fill="none" stroke="#000000" points="150,-453.5 260,-453.5 "/>
<polyline fill="none" stroke="#000000" points="150,-429.5 260,-429.5 "/>
</g>
<!-- FieldController -->
<g id="node8" class="node">
<title>FieldController</title>
<path fill="none" stroke="#000000" d="M27,-405.5C27,-405.5 103,-405.5 103,-405.5 109,-405.5 115,-411.5 115,-417.5 115,-417.5 115,-487.5 115,-487.5 115,-493.5 109,-499.5 103,-499.5 103,-499.5 27,-499.5 27,-499.5 21,-499.5 15,-493.5 15,-487.5 15,-487.5 15,-417.5 15,-417.5 15,-411.5 21,-405.5 27,-405.5"/>
<text text-anchor="middle" x="65" y="-484.3" font-family="Times,serif" font-size="14.00" fill="#000000">FieldController</text>
<polyline fill="none" stroke="#000000" points="15,-476.5 115,-476.5 "/>
<text text-anchor="start" x="23" y="-461.3" font-family="Times,serif" font-size="14.00" fill="#000000">index</text>
<polyline fill="none" stroke="#000000" points="15,-453.5 115,-453.5 "/>
<polyline fill="none" stroke="#000000" points="15,-429.5 115,-429.5 "/>
</g>
</g>
</svg>
