<?xml version="1.0" encoding="UTF-8" standalone="no"?>
<!DOCTYPE svg PUBLIC "-//W3C//DTD SVG 1.1//EN"
 "http://www.w3.org/Graphics/SVG/1.1/DTD/svg11.dtd">
<!-- Generated by graphviz version 2.40.1 (20161225.0304)
 -->
<!-- Title: models_diagram Pages: 1 -->
<svg width="1144pt" height="518pt"
 viewBox="0.00 0.00 1143.74 518.00" xmlns="http://www.w3.org/2000/svg" xmlns:xlink="http://www.w3.org/1999/xlink">
<g id="graph0" class="graph" transform="scale(1 1) rotate(0) translate(4 514)">
<title>models_diagram</title>
<polygon fill="transparent" stroke="transparent" points="-4,4 -4,-514 1139.7388,-514 1139.7388,4 -4,4"/>
<!-- _diagram_info -->
<g id="node1" class="node">
<title>_diagram_info</title>
<text text-anchor="start" x="37.1448" y="-495.6" font-family="Times,serif" font-size="13.00" fill="#000000">Models diagram</text>
<text text-anchor="start" x="37.1448" y="-481.6" font-family="Times,serif" font-size="13.00" fill="#000000">Date: Feb 13 2021 &#45; 17:07</text>
<text text-anchor="start" x="37.1448" y="-467.6" font-family="Times,serif" font-size="13.00" fill="#000000">Migration version: 20210213200643</text>
<text text-anchor="start" x="37.1448" y="-453.6" font-family="Times,serif" font-size="13.00" fill="#000000">Generated by RailRoady 1.5.3</text>
<text text-anchor="start" x="37.1448" y="-439.6" font-family="Times,serif" font-size="13.00" fill="#000000">http://railroady.prestonlee.com</text>
</g>
<!-- Material -->
<g id="node2" class="node">
<title>Material</title>
<ellipse fill="none" stroke="#000000" cx="213.1448" cy="-162" rx="40.8928" ry="18"/>
<text text-anchor="middle" x="213.1448" y="-158.3" font-family="Times,serif" font-size="14.00" fill="#000000">Material</text>
</g>
<!-- MaterialStudent -->
<g id="node18" class="node">
<title>MaterialStudent</title>
<ellipse fill="none" stroke="#000000" cx="204.1448" cy="-90" rx="67.6881" ry="18"/>
<text text-anchor="middle" x="204.1448" y="-86.3" font-family="Times,serif" font-size="14.00" fill="#000000">MaterialStudent</text>
</g>
<!-- Material&#45;&gt;MaterialStudent -->
<g id="edge1" class="edge">
<title>Material&#45;&gt;MaterialStudent</title>
<path fill="none" stroke="#02700b" d="M209.8716,-135.8144C209.1617,-130.1355 208.4077,-124.1039 207.688,-118.3461"/>
<ellipse fill="none" stroke="#02700b" cx="210.3775" cy="-139.8622" rx="4" ry="4"/>
<polygon fill="#02700b" stroke="#02700b" points="207.6868,-118.336 210.9117,-107.8551 207.0666,-113.3747 206.4464,-108.4133 206.4464,-108.4133 206.4464,-108.4133 207.0666,-113.3747 201.9812,-108.9715 207.6868,-118.336 207.6868,-118.336"/>
</g>
<!-- Teacher -->
<g id="node3" class="node">
<title>Teacher</title>
<ellipse fill="none" stroke="#000000" cx="95.1448" cy="-234" rx="38.9931" ry="18"/>
<text text-anchor="middle" x="95.1448" y="-230.3" font-family="Times,serif" font-size="14.00" fill="#000000">Teacher</text>
</g>
<!-- Video -->
<g id="node14" class="node">
<title>Video</title>
<ellipse fill="none" stroke="#000000" cx="95.1448" cy="-162" rx="32.4942" ry="18"/>
<text text-anchor="middle" x="95.1448" y="-158.3" font-family="Times,serif" font-size="14.00" fill="#000000">Video</text>
</g>
<!-- Teacher&#45;&gt;Video -->
<g id="edge2" class="edge">
<title>Teacher&#45;&gt;Video</title>
<path fill="none" stroke="#846b03" d="M95.1448,-207.8144C95.1448,-202.2775 95.1448,-196.4053 95.1448,-190.7785"/>
<ellipse fill="none" stroke="#846b03" cx="95.1448" cy="-211.8314" rx="4" ry="4"/>
<polygon fill="#846b03" stroke="#846b03" points="95.1448,-190.4133 99.6448,-180.4132 95.1448,-185.4133 95.1448,-180.4133 95.1448,-180.4133 95.1448,-180.4133 95.1448,-185.4133 90.6448,-180.4133 95.1448,-190.4133 95.1448,-190.4133"/>
</g>
<!-- Course -->
<g id="node4" class="node">
<title>Course</title>
<ellipse fill="none" stroke="#000000" cx="297.1448" cy="-471" rx="35.9954" ry="18"/>
<text text-anchor="middle" x="297.1448" y="-467.3" font-family="Times,serif" font-size="14.00" fill="#000000">Course</text>
</g>
<!-- Field -->
<g id="node19" class="node">
<title>Field</title>
<ellipse fill="none" stroke="#000000" cx="297.1448" cy="-378" rx="28.6953" ry="18"/>
<text text-anchor="middle" x="297.1448" y="-374.3" font-family="Times,serif" font-size="14.00" fill="#000000">Field</text>
</g>
<!-- Course&#45;&gt;Field -->
<g id="edge3" class="edge">
<title>Course&#45;&gt;Field</title>
<path fill="none" stroke="#00d9af" d="M297.1448,-444.4432C297.1448,-432.4479 297.1448,-418.268 297.1448,-406.0949"/>
<ellipse fill="none" stroke="#00d9af" cx="297.1448" cy="-448.6262" rx="4" ry="4"/>
<polygon fill="#00d9af" stroke="#00d9af" points="297.1449,-406.0192 301.6448,-396.0191 297.1448,-401.0192 297.1448,-396.0192 297.1448,-396.0192 297.1448,-396.0192 297.1448,-401.0192 292.6448,-396.0192 297.1449,-406.0192 297.1449,-406.0192"/>
</g>
<!-- ExamQuestionStudent -->
<g id="node5" class="node">
<title>ExamQuestionStudent</title>
<ellipse fill="none" stroke="#000000" cx="765.1448" cy="-18" rx="90.1842" ry="18"/>
<text text-anchor="middle" x="765.1448" y="-14.3" font-family="Times,serif" font-size="14.00" fill="#000000">ExamQuestionStudent</text>
</g>
<!-- LessonQuestion -->
<g id="node6" class="node">
<title>LessonQuestion</title>
<ellipse fill="none" stroke="#000000" cx="1068.1448" cy="-90" rx="67.6881" ry="18"/>
<text text-anchor="middle" x="1068.1448" y="-86.3" font-family="Times,serif" font-size="14.00" fill="#000000">LessonQuestion</text>
</g>
<!-- Subject -->
<g id="node7" class="node">
<title>Subject</title>
<ellipse fill="none" stroke="#000000" cx="297.1448" cy="-306" rx="37.0935" ry="18"/>
<text text-anchor="middle" x="297.1448" y="-302.3" font-family="Times,serif" font-size="14.00" fill="#000000">Subject</text>
</g>
<!-- Lesson -->
<g id="node11" class="node">
<title>Lesson</title>
<ellipse fill="none" stroke="#000000" cx="297.1448" cy="-234" rx="35.9954" ry="18"/>
<text text-anchor="middle" x="297.1448" y="-230.3" font-family="Times,serif" font-size="14.00" fill="#000000">Lesson</text>
</g>
<!-- Subject&#45;&gt;Lesson -->
<g id="edge4" class="edge">
<title>Subject&#45;&gt;Lesson</title>
<path fill="none" stroke="#ebce8c" d="M297.1448,-279.8144C297.1448,-274.2775 297.1448,-268.4053 297.1448,-262.7785"/>
<ellipse fill="none" stroke="#ebce8c" cx="297.1448" cy="-283.8314" rx="4" ry="4"/>
<polygon fill="#ebce8c" stroke="#ebce8c" points="297.1448,-262.4133 301.6448,-252.4132 297.1448,-257.4133 297.1448,-252.4133 297.1448,-252.4133 297.1448,-252.4133 297.1448,-257.4133 292.6448,-252.4133 297.1448,-262.4133 297.1448,-262.4133"/>
</g>
<!-- VideoStudent -->
<g id="node8" class="node">
<title>VideoStudent</title>
<ellipse fill="none" stroke="#000000" cx="59.1448" cy="-90" rx="59.2899" ry="18"/>
<text text-anchor="middle" x="59.1448" y="-86.3" font-family="Times,serif" font-size="14.00" fill="#000000">VideoStudent</text>
</g>
<!-- Student -->
<g id="node9" class="node">
<title>Student</title>
<ellipse fill="none" stroke="#000000" cx="319.1448" cy="-162" rx="37.8943" ry="18"/>
<text text-anchor="middle" x="319.1448" y="-158.3" font-family="Times,serif" font-size="14.00" fill="#000000">Student</text>
</g>
<!-- Student&#45;&gt;ExamQuestionStudent -->
<g id="edge6" class="edge">
<title>Student&#45;&gt;ExamQuestionStudent</title>
<path fill="none" stroke="#e18e8a" d="M323.0209,-135.8114C327.5326,-115.1229 337.1113,-87.2749 357.1448,-72 381.654,-53.3125 558.4664,-35.285 671.1454,-25.517"/>
<ellipse fill="none" stroke="#e18e8a" cx="322.2019" cy="-139.9784" rx="4" ry="4"/>
<polygon fill="#e18e8a" stroke="#e18e8a" points="671.2032,-25.5122 681.552,-29.1389 676.1848,-25.0838 681.1665,-24.6554 681.1665,-24.6554 681.1665,-24.6554 676.1848,-25.0838 680.7809,-20.1719 671.2032,-25.5122 671.2032,-25.5122"/>
</g>
<!-- Student&#45;&gt;VideoStudent -->
<g id="edge9" class="edge">
<title>Student&#45;&gt;VideoStudent</title>
<path fill="none" stroke="#527db3" d="M280.3829,-149.2513C274.6188,-147.4397 268.7372,-145.6377 263.1448,-144 262.6803,-143.864 173.8334,-120.3499 113.5592,-104.3993"/>
<ellipse fill="none" stroke="#527db3" cx="284.3197" cy="-150.5019" rx="4" ry="4"/>
<polygon fill="#527db3" stroke="#527db3" points="113.4458,-104.3694 104.9299,-97.4608 108.6122,-103.0902 103.7786,-101.8111 103.7786,-101.8111 103.7786,-101.8111 108.6122,-103.0902 102.6274,-106.1613 113.4458,-104.3694 113.4458,-104.3694"/>
</g>
<!-- ExamStudent -->
<g id="node10" class="node">
<title>ExamStudent</title>
<ellipse fill="none" stroke="#000000" cx="424.1448" cy="-90" rx="58.4896" ry="18"/>
<text text-anchor="middle" x="424.1448" y="-86.3" font-family="Times,serif" font-size="14.00" fill="#000000">ExamStudent</text>
</g>
<!-- Student&#45;&gt;ExamStudent -->
<g id="edge5" class="edge">
<title>Student&#45;&gt;ExamStudent</title>
<path fill="none" stroke="#9a8bd9" d="M347.6358,-142.4633C361.1663,-133.1852 377.4085,-122.0477 391.4403,-112.4259"/>
<ellipse fill="none" stroke="#9a8bd9" cx="344.1997" cy="-144.8194" rx="4" ry="4"/>
<polygon fill="#9a8bd9" stroke="#9a8bd9" points="391.6002,-112.3163 402.3924,-110.3723 395.7238,-109.4887 399.8475,-106.661 399.8475,-106.661 399.8475,-106.661 395.7238,-109.4887 397.3026,-102.9497 391.6002,-112.3163 391.6002,-112.3163"/>
</g>
<!-- Reaction -->
<g id="node12" class="node">
<title>Reaction</title>
<ellipse fill="none" stroke="#000000" cx="491.1448" cy="-18" rx="42.4939" ry="18"/>
<text text-anchor="middle" x="491.1448" y="-14.3" font-family="Times,serif" font-size="14.00" fill="#000000">Reaction</text>
</g>
<!-- Student&#45;&gt;Reaction -->
<g id="edge7" class="edge">
<title>Student&#45;&gt;Reaction</title>
<path fill="none" stroke="#f3784d" d="M313.3501,-136.149C310.5271,-116.5487 310.2664,-90.0016 324.1448,-72 338.7728,-53.0261 398.4419,-36.9869 442.2987,-27.4363"/>
<ellipse fill="none" stroke="#f3784d" cx="314.02" cy="-140.134" rx="4" ry="4"/>
<polygon fill="#f3784d" stroke="#f3784d" points="442.4495,-27.4043 453.1668,-29.7258 447.3401,-26.3643 452.2308,-25.3243 452.2308,-25.3243 452.2308,-25.3243 447.3401,-26.3643 451.2947,-20.9227 442.4495,-27.4043 442.4495,-27.4043"/>
</g>
<!-- Commentary -->
<g id="node17" class="node">
<title>Commentary</title>
<ellipse fill="none" stroke="#000000" cx="558.1448" cy="-90" rx="57.6901" ry="18"/>
<text text-anchor="middle" x="558.1448" y="-86.3" font-family="Times,serif" font-size="14.00" fill="#000000">Commentary</text>
</g>
<!-- Student&#45;&gt;Commentary -->
<g id="edge8" class="edge">
<title>Student&#45;&gt;Commentary</title>
<path fill="none" stroke="#2e7073" d="M359.2046,-149.9318C399.729,-137.7236 462.5337,-118.8033 506.7141,-105.4937"/>
<ellipse fill="none" stroke="#2e7073" cx="355.2073" cy="-151.1359" rx="4" ry="4"/>
<polygon fill="#2e7073" stroke="#2e7073" points="506.826,-105.4601 517.699,-106.8843 511.6135,-104.0178 516.401,-102.5755 516.401,-102.5755 516.401,-102.5755 511.6135,-104.0178 515.1029,-98.2668 506.826,-105.4601 506.826,-105.4601"/>
</g>
<!-- Student&#45;&gt;MaterialStudent -->
<g id="edge10" class="edge">
<title>Student&#45;&gt;MaterialStudent</title>
<path fill="none" stroke="#3de8e3" d="M289.2121,-143.2595C273.9279,-133.6903 255.2394,-121.9897 239.276,-111.9952"/>
<ellipse fill="none" stroke="#3de8e3" cx="292.7588" cy="-145.4801" rx="4" ry="4"/>
<polygon fill="#3de8e3" stroke="#3de8e3" points="239.2025,-111.9493 233.1147,-102.8285 234.9646,-109.2959 230.7267,-106.6426 230.7267,-106.6426 230.7267,-106.6426 234.9646,-109.2959 228.3387,-110.4567 239.2025,-111.9493 239.2025,-111.9493"/>
</g>
<!-- Lesson&#45;&gt;Material -->
<g id="edge14" class="edge">
<title>Lesson&#45;&gt;Material</title>
<path fill="none" stroke="#433ffc" d="M272.7766,-213.113C262.4013,-204.2199 250.272,-193.8233 239.6715,-184.7372"/>
<ellipse fill="none" stroke="#433ffc" cx="275.881" cy="-215.7739" rx="4" ry="4"/>
<polygon fill="#433ffc" stroke="#433ffc" points="239.5101,-184.5989 234.8461,-174.6743 235.7139,-181.345 231.9176,-178.091 231.9176,-178.091 231.9176,-178.091 235.7139,-181.345 228.989,-181.5076 239.5101,-184.5989 239.5101,-184.5989"/>
</g>
<!-- Lesson&#45;&gt;LessonQuestion -->
<g id="edge12" class="edge">
<title>Lesson&#45;&gt;LessonQuestion</title>
<path fill="none" stroke="#21886d" d="M341.0856,-232.6303C463.4662,-228.4238 806.2222,-213.8678 913.1448,-180 959.8536,-165.2049 1007.7419,-134.5622 1037.6885,-113.1635"/>
<ellipse fill="none" stroke="#21886d" cx="337.0021" cy="-232.7686" rx="4" ry="4"/>
<polygon fill="#21886d" stroke="#21886d" points="1037.9209,-112.9949 1048.6572,-110.7628 1041.9674,-110.0579 1046.014,-107.121 1046.014,-107.121 1046.014,-107.121 1041.9674,-110.0579 1043.3707,-103.4791 1037.9209,-112.9949 1037.9209,-112.9949"/>
</g>
<!-- Lesson&#45;&gt;Video -->
<g id="edge13" class="edge">
<title>Lesson&#45;&gt;Video</title>
<path fill="none" stroke="#8b030f" d="M260.1396,-220.81C223.8205,-207.8646 168.7282,-188.2278 132.3428,-175.2587"/>
<ellipse fill="none" stroke="#8b030f" cx="264.0044" cy="-222.1876" rx="4" ry="4"/>
<polygon fill="#8b030f" stroke="#8b030f" points="132.027,-175.1462 124.1183,-167.5499 127.3172,-173.4674 122.6075,-171.7887 122.6075,-171.7887 122.6075,-171.7887 127.3172,-173.4674 121.0966,-176.0275 132.027,-175.1462 132.027,-175.1462"/>
</g>
<!-- Exam -->
<g id="node16" class="node">
<title>Exam</title>
<ellipse fill="none" stroke="#000000" cx="424.1448" cy="-162" rx="31.6951" ry="18"/>
<text text-anchor="middle" x="424.1448" y="-158.3" font-family="Times,serif" font-size="14.00" fill="#000000">Exam</text>
</g>
<!-- Lesson&#45;&gt;Exam -->
<g id="edge11" class="edge">
<title>Lesson&#45;&gt;Exam</title>
<path fill="none" stroke="#0c474b" d="M328.1228,-216.4376C347.7459,-205.3127 373.0445,-190.9702 392.7477,-179.7999"/>
<ellipse fill="none" stroke="#0c474b" cx="324.5122" cy="-218.4846" rx="4" ry="4"/>
<polygon fill="#0c474b" stroke="#0c474b" points="392.9439,-179.6887 403.8625,-178.6715 397.2935,-177.2228 401.6431,-174.7568 401.6431,-174.7568 401.6431,-174.7568 397.2935,-177.2228 399.4238,-170.8422 392.9439,-179.6887 392.9439,-179.6887"/>
</g>
<!-- QuestionAlternative -->
<g id="node13" class="node">
<title>QuestionAlternative</title>
<ellipse fill="none" stroke="#000000" cx="862.1448" cy="-90" rx="81.7856" ry="18"/>
<text text-anchor="middle" x="862.1448" y="-86.3" font-family="Times,serif" font-size="14.00" fill="#000000">QuestionAlternative</text>
</g>
<!-- QuestionAlternative&#45;&gt;ExamQuestionStudent -->
<g id="edge15" class="edge">
<title>QuestionAlternative&#45;&gt;ExamQuestionStudent</title>
<path fill="none" stroke="#115d86" d="M832.0363,-67.6514C820.9275,-59.4058 808.3076,-50.0384 797.0456,-41.679"/>
<ellipse fill="none" stroke="#115d86" cx="835.4519" cy="-70.1867" rx="4" ry="4"/>
<polygon fill="#115d86" stroke="#115d86" points="796.7754,-41.4785 791.4278,-31.9049 792.7606,-38.4984 788.7457,-35.5182 788.7457,-35.5182 788.7457,-35.5182 792.7606,-38.4984 786.0636,-39.1316 796.7754,-41.4785 796.7754,-41.4785"/>
</g>
<!-- Video&#45;&gt;VideoStudent -->
<g id="edge16" class="edge">
<title>Video&#45;&gt;VideoStudent</title>
<path fill="none" stroke="#3f1789" d="M82.7418,-137.1941C79.5213,-130.753 76.0353,-123.781 72.7562,-117.2229"/>
<ellipse fill="none" stroke="#3f1789" cx="84.6413" cy="-140.9931" rx="4" ry="4"/>
<polygon fill="#3f1789" stroke="#3f1789" points="72.6272,-116.9649 72.18,-106.0081 70.3911,-112.4927 68.155,-108.0206 68.155,-108.0206 68.155,-108.0206 70.3911,-112.4927 64.1301,-110.0331 72.6272,-116.9649 72.6272,-116.9649"/>
</g>
<!-- ApplicationRecord -->
<g id="node15" class="node">
<title>ApplicationRecord</title>
<ellipse fill="none" stroke="#000000" cx="428.1448" cy="-471" rx="77.1866" ry="18"/>
<text text-anchor="middle" x="428.1448" y="-467.3" font-family="Times,serif" font-size="14.00" fill="#000000">ApplicationRecord</text>
</g>
<!-- Exam&#45;&gt;ExamStudent -->
<g id="edge18" class="edge">
<title>Exam&#45;&gt;ExamStudent</title>
<path fill="none" stroke="#55270c" d="M424.1448,-135.8144C424.1448,-130.2775 424.1448,-124.4053 424.1448,-118.7785"/>
<ellipse fill="none" stroke="#55270c" cx="424.1448" cy="-139.8314" rx="4" ry="4"/>
<polygon fill="#55270c" stroke="#55270c" points="424.1448,-118.4133 428.6448,-108.4132 424.1448,-113.4133 424.1448,-108.4133 424.1448,-108.4133 424.1448,-108.4133 424.1448,-113.4133 419.6448,-108.4133 424.1448,-118.4133 424.1448,-118.4133"/>
</g>
<!-- ExamQuestion -->
<g id="node20" class="node">
<title>ExamQuestion</title>
<ellipse fill="none" stroke="#000000" cx="698.1448" cy="-90" rx="63.8893" ry="18"/>
<text text-anchor="middle" x="698.1448" y="-86.3" font-family="Times,serif" font-size="14.00" fill="#000000">ExamQuestion</text>
</g>
<!-- Exam&#45;&gt;ExamQuestion -->
<g id="edge17" class="edge">
<title>Exam&#45;&gt;ExamQuestion</title>
<path fill="none" stroke="#2ca997" d="M461.0586,-152.3C507.3646,-140.132 587.244,-119.1418 641.3543,-104.923"/>
<ellipse fill="none" stroke="#2ca997" cx="457.0768" cy="-153.3463" rx="4" ry="4"/>
<polygon fill="#2ca997" stroke="#2ca997" points="641.4724,-104.8921 652.2878,-106.7028 646.3083,-103.6213 651.1441,-102.3505 651.1441,-102.3505 651.1441,-102.3505 646.3083,-103.6213 650.0004,-97.9983 641.4724,-104.8921 641.4724,-104.8921"/>
</g>
<!-- Commentary&#45;&gt;Reaction -->
<g id="edge19" class="edge">
<title>Commentary&#45;&gt;Reaction</title>
<path fill="none" stroke="#4c2d9e" d="M536.433,-66.668C529.1778,-58.8713 521.0771,-50.1661 513.7551,-42.2977"/>
<ellipse fill="none" stroke="#4c2d9e" cx="539.201" cy="-69.6425" rx="4" ry="4"/>
<polygon fill="#4c2d9e" stroke="#4c2d9e" points="513.5652,-42.0936 510.0472,-31.7074 510.159,-38.4333 506.7529,-34.7729 506.7529,-34.7729 506.7529,-34.7729 510.159,-38.4333 503.4586,-37.8385 513.5652,-42.0936 513.5652,-42.0936"/>
</g>
<!-- Field&#45;&gt;Subject -->
<g id="edge20" class="edge">
<title>Field&#45;&gt;Subject</title>
<path fill="none" stroke="#39c2e5" d="M297.1448,-351.8144C297.1448,-346.2775 297.1448,-340.4053 297.1448,-334.7785"/>
<ellipse fill="none" stroke="#39c2e5" cx="297.1448" cy="-355.8314" rx="4" ry="4"/>
<polygon fill="#39c2e5" stroke="#39c2e5" points="297.1448,-334.4133 301.6448,-324.4132 297.1448,-329.4133 297.1448,-324.4133 297.1448,-324.4133 297.1448,-324.4133 297.1448,-329.4133 292.6448,-324.4133 297.1448,-334.4133 297.1448,-334.4133"/>
</g>
<!-- ExamQuestion&#45;&gt;ExamQuestionStudent -->
<g id="edge21" class="edge">
<title>ExamQuestion&#45;&gt;ExamQuestionStudent</title>
<path fill="none" stroke="#b18f89" d="M719.9548,-66.5623C726.9412,-59.0546 734.7032,-50.7133 741.795,-43.0923"/>
<ellipse fill="none" stroke="#b18f89" cx="717.0885" cy="-69.6425" rx="4" ry="4"/>
<polygon fill="#b18f89" stroke="#b18f89" points="741.7975,-43.0896 751.9041,-38.8344 745.2037,-39.4292 748.6098,-35.7689 748.6098,-35.7689 748.6098,-35.7689 745.2037,-39.4292 745.3155,-32.7033 741.7975,-43.0896 741.7975,-43.0896"/>
</g>
<!-- Question -->
<g id="node21" class="node">
<title>Question</title>
<ellipse fill="none" stroke="#000000" cx="862.1448" cy="-162" rx="42.4939" ry="18"/>
<text text-anchor="middle" x="862.1448" y="-158.3" font-family="Times,serif" font-size="14.00" fill="#000000">Question</text>
</g>
<!-- Question&#45;&gt;ExamQuestionStudent -->
<g id="edge25" class="edge">
<title>Question&#45;&gt;ExamQuestionStudent</title>
<path fill="none" stroke="#6e5dec" d="M904.3857,-147.9115C922.8001,-139.4249 942.5661,-126.5784 953.1448,-108 961.0618,-94.096 962.7709,-84.7803 953.1448,-72 939.7539,-54.2214 890.7832,-40.4912 846.1813,-31.325"/>
<ellipse fill="none" stroke="#6e5dec" cx="900.2769" cy="-149.6939" rx="4" ry="4"/>
<polygon fill="#6e5dec" stroke="#6e5dec" points="845.9604,-31.281 837.0346,-24.9108 841.0571,-30.3024 836.1538,-29.3238 836.1538,-29.3238 836.1538,-29.3238 841.0571,-30.3024 835.2731,-33.7368 845.9604,-31.281 845.9604,-31.281"/>
</g>
<!-- Question&#45;&gt;LessonQuestion -->
<g id="edge24" class="edge">
<title>Question&#45;&gt;LessonQuestion</title>
<path fill="none" stroke="#93ead2" d="M903.1023,-147.6848C935.9324,-136.2101 982.1667,-120.0506 1017.3517,-107.7529"/>
<ellipse fill="none" stroke="#93ead2" cx="899.0182" cy="-149.1122" rx="4" ry="4"/>
<polygon fill="#93ead2" stroke="#93ead2" points="1017.5223,-107.6933 1028.4471,-108.6419 1022.2423,-106.0436 1026.9623,-104.3939 1026.9623,-104.3939 1026.9623,-104.3939 1022.2423,-106.0436 1025.4776,-100.1458 1017.5223,-107.6933 1017.5223,-107.6933"/>
</g>
<!-- Question&#45;&gt;QuestionAlternative -->
<g id="edge22" class="edge">
<title>Question&#45;&gt;QuestionAlternative</title>
<path fill="none" stroke="#7ad88f" d="M862.1448,-135.8144C862.1448,-130.2775 862.1448,-124.4053 862.1448,-118.7785"/>
<ellipse fill="none" stroke="#7ad88f" cx="862.1448" cy="-139.8314" rx="4" ry="4"/>
<polygon fill="#7ad88f" stroke="#7ad88f" points="862.1448,-118.4133 866.6448,-108.4132 862.1448,-113.4133 862.1448,-108.4133 862.1448,-108.4133 862.1448,-108.4133 862.1448,-113.4133 857.6448,-108.4133 862.1448,-118.4133 862.1448,-118.4133"/>
</g>
<!-- Question&#45;&gt;Commentary -->
<g id="edge26" class="edge">
<title>Question&#45;&gt;Commentary</title>
<path fill="none" stroke="#7980aa" d="M816.2756,-152.0967C768.4437,-141.6415 691.3528,-124.4299 625.1448,-108 620.7519,-106.9099 616.2051,-105.752 611.6441,-104.5696"/>
<ellipse fill="none" stroke="#7980aa" cx="820.3674" cy="-152.9893" rx="4" ry="4"/>
<polygon fill="#7980aa" stroke="#7980aa" points="611.3638,-104.4962 602.8326,-97.6064 606.5274,-103.2277 601.691,-101.9591 601.691,-101.9591 601.691,-101.9591 606.5274,-103.2277 600.5493,-106.3119 611.3638,-104.4962 611.3638,-104.4962"/>
</g>
<!-- Question&#45;&gt;ExamQuestion -->
<g id="edge23" class="edge">
<title>Question&#45;&gt;ExamQuestion</title>
<path fill="none" stroke="#e9651c" d="M824.9173,-145.6562C800.2707,-134.8358 767.8417,-120.5987 741.9527,-109.2328"/>
<ellipse fill="none" stroke="#e9651c" cx="828.783" cy="-147.3534" rx="4" ry="4"/>
<polygon fill="#e9651c" stroke="#e9651c" points="741.8935,-109.2068 734.546,-101.0665 737.3153,-107.1968 732.7371,-105.1869 732.7371,-105.1869 732.7371,-105.1869 737.3153,-107.1968 730.9281,-109.3073 741.8935,-109.2068 741.8935,-109.2068"/>
</g>
</g>
</svg>
