<?xml version="1.0" encoding="UTF-8" standalone="no"?>
<!DOCTYPE svg PUBLIC "-//W3C//DTD SVG 1.1//EN"
 "http://www.w3.org/Graphics/SVG/1.1/DTD/svg11.dtd">
<!-- Generated by graphviz version 2.40.1 (20161225.0304)
 -->
<!-- Title: models_diagram Pages: 1 -->
<svg width="2050pt" height="1153pt"
 viewBox="0.00 0.00 2050.00 1153.00" xmlns="http://www.w3.org/2000/svg" xmlns:xlink="http://www.w3.org/1999/xlink">
<g id="graph0" class="graph" transform="scale(1 1) rotate(0) translate(4 1149)">
<title>models_diagram</title>
<polygon fill="transparent" stroke="transparent" points="-4,4 -4,-1149 2046,-1149 2046,4 -4,4"/>
<!-- _diagram_info -->
<g id="node1" class="node">
<title>_diagram_info</title>
<text text-anchor="start" x="332" y="-1123.6" font-family="Times,serif" font-size="13.00" fill="#000000">Models diagram</text>
<text text-anchor="start" x="332" y="-1109.6" font-family="Times,serif" font-size="13.00" fill="#000000">Date: Feb 13 2021 &#45; 17:07</text>
<text text-anchor="start" x="332" y="-1095.6" font-family="Times,serif" font-size="13.00" fill="#000000">Migration version: 20210213200643</text>
<text text-anchor="start" x="332" y="-1081.6" font-family="Times,serif" font-size="13.00" fill="#000000">Generated by RailRoady 1.5.3</text>
<text text-anchor="start" x="332" y="-1067.6" font-family="Times,serif" font-size="13.00" fill="#000000">http://railroady.prestonlee.com</text>
</g>
<!-- Material -->
<g id="node2" class="node">
<title>Material</title>
<path fill="none" stroke="#000000" d="M290,-399C290,-399 526,-399 526,-399 532,-399 538,-405 538,-411 538,-411 538,-508 538,-508 538,-514 532,-520 526,-520 526,-520 290,-520 290,-520 284,-520 278,-514 278,-508 278,-508 278,-411 278,-411 278,-405 284,-399 290,-399"/>
<text text-anchor="middle" x="408" y="-504.8" font-family="Times,serif" font-size="14.00" fill="#000000">Material</text>
<polyline fill="none" stroke="#000000" points="278,-497 538,-497 "/>
<text text-anchor="start" x="286" y="-481.8" font-family="Times,serif" font-size="14.00" fill="#000000">id :bigint</text>
<text text-anchor="start" x="286" y="-466.8" font-family="Times,serif" font-size="14.00" fill="#000000">download_link :character varying</text>
<text text-anchor="start" x="286" y="-451.8" font-family="Times,serif" font-size="14.00" fill="#000000">status :character varying</text>
<text text-anchor="start" x="286" y="-436.8" font-family="Times,serif" font-size="14.00" fill="#000000">lesson_id :bigint</text>
<text text-anchor="start" x="286" y="-421.8" font-family="Times,serif" font-size="14.00" fill="#000000">created_at :timestamp(6) without time zone</text>
<text text-anchor="start" x="286" y="-406.8" font-family="Times,serif" font-size="14.00" fill="#000000">updated_at :timestamp(6) without time zone</text>
</g>
<!-- MaterialStudent -->
<g id="node18" class="node">
<title>MaterialStudent</title>
<path fill="none" stroke="#000000" d="M290,-211C290,-211 526,-211 526,-211 532,-211 538,-217 538,-223 538,-223 538,-305 538,-305 538,-311 532,-317 526,-317 526,-317 290,-317 290,-317 284,-317 278,-311 278,-305 278,-305 278,-223 278,-223 278,-217 284,-211 290,-211"/>
<text text-anchor="middle" x="408" y="-301.8" font-family="Times,serif" font-size="14.00" fill="#000000">MaterialStudent</text>
<polyline fill="none" stroke="#000000" points="278,-294 538,-294 "/>
<text text-anchor="start" x="286" y="-278.8" font-family="Times,serif" font-size="14.00" fill="#000000">id :bigint</text>
<text text-anchor="start" x="286" y="-263.8" font-family="Times,serif" font-size="14.00" fill="#000000">material_id :bigint</text>
<text text-anchor="start" x="286" y="-248.8" font-family="Times,serif" font-size="14.00" fill="#000000">student_id :bigint</text>
<text text-anchor="start" x="286" y="-233.8" font-family="Times,serif" font-size="14.00" fill="#000000">created_at :timestamp(6) without time zone</text>
<text text-anchor="start" x="286" y="-218.8" font-family="Times,serif" font-size="14.00" fill="#000000">updated_at :timestamp(6) without time zone</text>
</g>
<!-- Material&#45;&gt;MaterialStudent -->
<g id="edge1" class="edge">
<title>Material&#45;&gt;MaterialStudent</title>
<path fill="none" stroke="#fec9d3" d="M408,-390.9008C408,-370.2401 408,-347.6669 408,-327.3624"/>
<ellipse fill="none" stroke="#fec9d3" cx="408" cy="-394.9814" rx="4" ry="4"/>
<polygon fill="#fec9d3" stroke="#fec9d3" points="408.0001,-327.2855 412.5,-317.2855 408,-322.2855 408,-317.2855 408,-317.2855 408,-317.2855 408,-322.2855 403.5,-317.2856 408.0001,-327.2855 408.0001,-327.2855"/>
</g>
<!-- Teacher -->
<g id="node3" class="node">
<title>Teacher</title>
<path fill="none" stroke="#000000" d="M12,-594.5C12,-594.5 248,-594.5 248,-594.5 254,-594.5 260,-600.5 260,-606.5 260,-606.5 260,-688.5 260,-688.5 260,-694.5 254,-700.5 248,-700.5 248,-700.5 12,-700.5 12,-700.5 6,-700.5 0,-694.5 0,-688.5 0,-688.5 0,-606.5 0,-606.5 0,-600.5 6,-594.5 12,-594.5"/>
<text text-anchor="middle" x="130" y="-685.3" font-family="Times,serif" font-size="14.00" fill="#000000">Teacher</text>
<polyline fill="none" stroke="#000000" points="0,-677.5 260,-677.5 "/>
<text text-anchor="start" x="8" y="-662.3" font-family="Times,serif" font-size="14.00" fill="#000000">id :bigint</text>
<text text-anchor="start" x="8" y="-647.3" font-family="Times,serif" font-size="14.00" fill="#000000">name :character varying</text>
<text text-anchor="start" x="8" y="-632.3" font-family="Times,serif" font-size="14.00" fill="#000000">email :character varying</text>
<text text-anchor="start" x="8" y="-617.3" font-family="Times,serif" font-size="14.00" fill="#000000">created_at :timestamp(6) without time zone</text>
<text text-anchor="start" x="8" y="-602.3" font-family="Times,serif" font-size="14.00" fill="#000000">updated_at :timestamp(6) without time zone</text>
</g>
<!-- Video -->
<g id="node14" class="node">
<title>Video</title>
<path fill="none" stroke="#000000" d="M12,-376.5C12,-376.5 248,-376.5 248,-376.5 254,-376.5 260,-382.5 260,-388.5 260,-388.5 260,-530.5 260,-530.5 260,-536.5 254,-542.5 248,-542.5 248,-542.5 12,-542.5 12,-542.5 6,-542.5 0,-536.5 0,-530.5 0,-530.5 0,-388.5 0,-388.5 0,-382.5 6,-376.5 12,-376.5"/>
<text text-anchor="middle" x="130" y="-527.3" font-family="Times,serif" font-size="14.00" fill="#000000">Video</text>
<polyline fill="none" stroke="#000000" points="0,-519.5 260,-519.5 "/>
<text text-anchor="start" x="8" y="-504.3" font-family="Times,serif" font-size="14.00" fill="#000000">id :bigint</text>
<text text-anchor="start" x="8" y="-489.3" font-family="Times,serif" font-size="14.00" fill="#000000">duration_in_seconds :integer</text>
<text text-anchor="start" x="8" y="-474.3" font-family="Times,serif" font-size="14.00" fill="#000000">status :character varying</text>
<text text-anchor="start" x="8" y="-459.3" font-family="Times,serif" font-size="14.00" fill="#000000">video_url :character varying</text>
<text text-anchor="start" x="8" y="-444.3" font-family="Times,serif" font-size="14.00" fill="#000000">vimeo_id :character varying</text>
<text text-anchor="start" x="8" y="-429.3" font-family="Times,serif" font-size="14.00" fill="#000000">lesson_id :bigint</text>
<text text-anchor="start" x="8" y="-414.3" font-family="Times,serif" font-size="14.00" fill="#000000">created_at :timestamp(6) without time zone</text>
<text text-anchor="start" x="8" y="-399.3" font-family="Times,serif" font-size="14.00" fill="#000000">updated_at :timestamp(6) without time zone</text>
<text text-anchor="start" x="8" y="-384.3" font-family="Times,serif" font-size="14.00" fill="#000000">teacher_id :bigint</text>
</g>
<!-- Teacher&#45;&gt;Video -->
<g id="edge2" class="edge">
<title>Teacher&#45;&gt;Video</title>
<path fill="none" stroke="#7d27a2" d="M130,-586.3222C130,-575.5555 130,-564.1318 130,-552.7233"/>
<ellipse fill="none" stroke="#7d27a2" cx="130" cy="-590.3806" rx="4" ry="4"/>
<polygon fill="#7d27a2" stroke="#7d27a2" points="130.0001,-552.7185 134.5,-542.7185 130,-547.7185 130,-542.7185 130,-542.7185 130,-542.7185 130,-547.7185 125.5,-542.7186 130.0001,-552.7185 130.0001,-552.7185"/>
</g>
<!-- Course -->
<g id="node4" class="node">
<title>Course</title>
<path fill="none" stroke="#000000" d="M568,-1053.5C568,-1053.5 804,-1053.5 804,-1053.5 810,-1053.5 816,-1059.5 816,-1065.5 816,-1065.5 816,-1132.5 816,-1132.5 816,-1138.5 810,-1144.5 804,-1144.5 804,-1144.5 568,-1144.5 568,-1144.5 562,-1144.5 556,-1138.5 556,-1132.5 556,-1132.5 556,-1065.5 556,-1065.5 556,-1059.5 562,-1053.5 568,-1053.5"/>
<text text-anchor="middle" x="686" y="-1129.3" font-family="Times,serif" font-size="14.00" fill="#000000">Course</text>
<polyline fill="none" stroke="#000000" points="556,-1121.5 816,-1121.5 "/>
<text text-anchor="start" x="564" y="-1106.3" font-family="Times,serif" font-size="14.00" fill="#000000">id :bigint</text>
<text text-anchor="start" x="564" y="-1091.3" font-family="Times,serif" font-size="14.00" fill="#000000">name :character varying</text>
<text text-anchor="start" x="564" y="-1076.3" font-family="Times,serif" font-size="14.00" fill="#000000">created_at :timestamp(6) without time zone</text>
<text text-anchor="start" x="564" y="-1061.3" font-family="Times,serif" font-size="14.00" fill="#000000">updated_at :timestamp(6) without time zone</text>
</g>
<!-- Field -->
<g id="node19" class="node">
<title>Field</title>
<path fill="none" stroke="#000000" d="M568,-910.5C568,-910.5 804,-910.5 804,-910.5 810,-910.5 816,-916.5 816,-922.5 816,-922.5 816,-1004.5 816,-1004.5 816,-1010.5 810,-1016.5 804,-1016.5 804,-1016.5 568,-1016.5 568,-1016.5 562,-1016.5 556,-1010.5 556,-1004.5 556,-1004.5 556,-922.5 556,-922.5 556,-916.5 562,-910.5 568,-910.5"/>
<text text-anchor="middle" x="686" y="-1001.3" font-family="Times,serif" font-size="14.00" fill="#000000">Field</text>
<polyline fill="none" stroke="#000000" points="556,-993.5 816,-993.5 "/>
<text text-anchor="start" x="564" y="-978.3" font-family="Times,serif" font-size="14.00" fill="#000000">id :bigint</text>
<text text-anchor="start" x="564" y="-963.3" font-family="Times,serif" font-size="14.00" fill="#000000">name :character varying</text>
<text text-anchor="start" x="564" y="-948.3" font-family="Times,serif" font-size="14.00" fill="#000000">course_id :bigint</text>
<text text-anchor="start" x="564" y="-933.3" font-family="Times,serif" font-size="14.00" fill="#000000">created_at :timestamp(6) without time zone</text>
<text text-anchor="start" x="564" y="-918.3" font-family="Times,serif" font-size="14.00" fill="#000000">updated_at :timestamp(6) without time zone</text>
</g>
<!-- Course&#45;&gt;Field -->
<g id="edge3" class="edge">
<title>Course&#45;&gt;Field</title>
<path fill="none" stroke="#bde80e" d="M686,-1045.0632C686,-1039.1039 686,-1032.9957 686,-1026.9337"/>
<ellipse fill="none" stroke="#bde80e" cx="686" cy="-1049.1259" rx="4" ry="4"/>
<polygon fill="#bde80e" stroke="#bde80e" points="686.0001,-1026.8101 690.5,-1016.81 686,-1021.8101 686,-1016.8101 686,-1016.8101 686,-1016.8101 686,-1021.8101 681.5,-1016.8101 686.0001,-1026.8101 686.0001,-1026.8101"/>
</g>
<!-- ExamQuestionStudent -->
<g id="node5" class="node">
<title>ExamQuestionStudent</title>
<path fill="none" stroke="#000000" d="M1318,-.5C1318,-.5 1554,-.5 1554,-.5 1560,-.5 1566,-6.5 1566,-12.5 1566,-12.5 1566,-139.5 1566,-139.5 1566,-145.5 1560,-151.5 1554,-151.5 1554,-151.5 1318,-151.5 1318,-151.5 1312,-151.5 1306,-145.5 1306,-139.5 1306,-139.5 1306,-12.5 1306,-12.5 1306,-6.5 1312,-.5 1318,-.5"/>
<text text-anchor="middle" x="1436" y="-136.3" font-family="Times,serif" font-size="14.00" fill="#000000">ExamQuestionStudent</text>
<polyline fill="none" stroke="#000000" points="1306,-128.5 1566,-128.5 "/>
<text text-anchor="start" x="1314" y="-113.3" font-family="Times,serif" font-size="14.00" fill="#000000">id :bigint</text>
<text text-anchor="start" x="1314" y="-98.3" font-family="Times,serif" font-size="14.00" fill="#000000">is_correct :boolean</text>
<text text-anchor="start" x="1314" y="-83.3" font-family="Times,serif" font-size="14.00" fill="#000000">question_id :bigint</text>
<text text-anchor="start" x="1314" y="-68.3" font-family="Times,serif" font-size="14.00" fill="#000000">question_alternative_id :bigint</text>
<text text-anchor="start" x="1314" y="-53.3" font-family="Times,serif" font-size="14.00" fill="#000000">student_id :bigint</text>
<text text-anchor="start" x="1314" y="-38.3" font-family="Times,serif" font-size="14.00" fill="#000000">exam_question_id :bigint</text>
<text text-anchor="start" x="1314" y="-23.3" font-family="Times,serif" font-size="14.00" fill="#000000">created_at :timestamp(6) without time zone</text>
<text text-anchor="start" x="1314" y="-8.3" font-family="Times,serif" font-size="14.00" fill="#000000">updated_at :timestamp(6) without time zone</text>
</g>
<!-- LessonQuestion -->
<g id="node6" class="node">
<title>LessonQuestion</title>
<path fill="none" stroke="#000000" d="M1794,-211C1794,-211 2030,-211 2030,-211 2036,-211 2042,-217 2042,-223 2042,-223 2042,-305 2042,-305 2042,-311 2036,-317 2030,-317 2030,-317 1794,-317 1794,-317 1788,-317 1782,-311 1782,-305 1782,-305 1782,-223 1782,-223 1782,-217 1788,-211 1794,-211"/>
<text text-anchor="middle" x="1912" y="-301.8" font-family="Times,serif" font-size="14.00" fill="#000000">LessonQuestion</text>
<polyline fill="none" stroke="#000000" points="1782,-294 2042,-294 "/>
<text text-anchor="start" x="1790" y="-278.8" font-family="Times,serif" font-size="14.00" fill="#000000">id :bigint</text>
<text text-anchor="start" x="1790" y="-263.8" font-family="Times,serif" font-size="14.00" fill="#000000">lesson_id :bigint</text>
<text text-anchor="start" x="1790" y="-248.8" font-family="Times,serif" font-size="14.00" fill="#000000">question_id :bigint</text>
<text text-anchor="start" x="1790" y="-233.8" font-family="Times,serif" font-size="14.00" fill="#000000">created_at :timestamp(6) without time zone</text>
<text text-anchor="start" x="1790" y="-218.8" font-family="Times,serif" font-size="14.00" fill="#000000">updated_at :timestamp(6) without time zone</text>
</g>
<!-- Subject -->
<g id="node7" class="node">
<title>Subject</title>
<path fill="none" stroke="#000000" d="M568,-752.5C568,-752.5 804,-752.5 804,-752.5 810,-752.5 816,-758.5 816,-764.5 816,-764.5 816,-861.5 816,-861.5 816,-867.5 810,-873.5 804,-873.5 804,-873.5 568,-873.5 568,-873.5 562,-873.5 556,-867.5 556,-861.5 556,-861.5 556,-764.5 556,-764.5 556,-758.5 562,-752.5 568,-752.5"/>
<text text-anchor="middle" x="686" y="-858.3" font-family="Times,serif" font-size="14.00" fill="#000000">Subject</text>
<polyline fill="none" stroke="#000000" points="556,-850.5 816,-850.5 "/>
<text text-anchor="start" x="564" y="-835.3" font-family="Times,serif" font-size="14.00" fill="#000000">id :bigint</text>
<text text-anchor="start" x="564" y="-820.3" font-family="Times,serif" font-size="14.00" fill="#000000">name :character varying</text>
<text text-anchor="start" x="564" y="-805.3" font-family="Times,serif" font-size="14.00" fill="#000000">field_id :bigint</text>
<text text-anchor="start" x="564" y="-790.3" font-family="Times,serif" font-size="14.00" fill="#000000">created_at :timestamp(6) without time zone</text>
<text text-anchor="start" x="564" y="-775.3" font-family="Times,serif" font-size="14.00" fill="#000000">updated_at :timestamp(6) without time zone</text>
<text text-anchor="start" x="564" y="-760.3" font-family="Times,serif" font-size="14.00" fill="#000000">status :character varying</text>
</g>
<!-- Lesson -->
<g id="node11" class="node">
<title>Lesson</title>
<path fill="none" stroke="#000000" d="M568,-579.5C568,-579.5 804,-579.5 804,-579.5 810,-579.5 816,-585.5 816,-591.5 816,-591.5 816,-703.5 816,-703.5 816,-709.5 810,-715.5 804,-715.5 804,-715.5 568,-715.5 568,-715.5 562,-715.5 556,-709.5 556,-703.5 556,-703.5 556,-591.5 556,-591.5 556,-585.5 562,-579.5 568,-579.5"/>
<text text-anchor="middle" x="686" y="-700.3" font-family="Times,serif" font-size="14.00" fill="#000000">Lesson</text>
<polyline fill="none" stroke="#000000" points="556,-692.5 816,-692.5 "/>
<text text-anchor="start" x="564" y="-677.3" font-family="Times,serif" font-size="14.00" fill="#000000">id :bigint</text>
<text text-anchor="start" x="564" y="-662.3" font-family="Times,serif" font-size="14.00" fill="#000000">name :character varying</text>
<text text-anchor="start" x="564" y="-647.3" font-family="Times,serif" font-size="14.00" fill="#000000">subject_id :bigint</text>
<text text-anchor="start" x="564" y="-632.3" font-family="Times,serif" font-size="14.00" fill="#000000">created_at :timestamp(6) without time zone</text>
<text text-anchor="start" x="564" y="-617.3" font-family="Times,serif" font-size="14.00" fill="#000000">updated_at :timestamp(6) without time zone</text>
<text text-anchor="start" x="564" y="-602.3" font-family="Times,serif" font-size="14.00" fill="#000000">status :character varying</text>
<text text-anchor="start" x="564" y="-587.3" font-family="Times,serif" font-size="14.00" fill="#000000">priority :integer</text>
</g>
<!-- Subject&#45;&gt;Lesson -->
<g id="edge4" class="edge">
<title>Subject&#45;&gt;Lesson</title>
<path fill="none" stroke="#59a99a" d="M686,-744.1364C686,-738.12 686,-732.0028 686,-725.9169"/>
<ellipse fill="none" stroke="#59a99a" cx="686" cy="-748.3137" rx="4" ry="4"/>
<polygon fill="#59a99a" stroke="#59a99a" points="686.0001,-725.7277 690.5,-715.7277 686,-720.7277 686,-715.7277 686,-715.7277 686,-715.7277 686,-720.7277 681.5,-715.7278 686.0001,-725.7277 686.0001,-725.7277"/>
</g>
<!-- VideoStudent -->
<g id="node8" class="node">
<title>VideoStudent</title>
<path fill="none" stroke="#000000" d="M12,-188.5C12,-188.5 248,-188.5 248,-188.5 254,-188.5 260,-194.5 260,-200.5 260,-200.5 260,-327.5 260,-327.5 260,-333.5 254,-339.5 248,-339.5 248,-339.5 12,-339.5 12,-339.5 6,-339.5 0,-333.5 0,-327.5 0,-327.5 0,-200.5 0,-200.5 0,-194.5 6,-188.5 12,-188.5"/>
<text text-anchor="middle" x="130" y="-324.3" font-family="Times,serif" font-size="14.00" fill="#000000">VideoStudent</text>
<polyline fill="none" stroke="#000000" points="0,-316.5 260,-316.5 "/>
<text text-anchor="start" x="8" y="-301.3" font-family="Times,serif" font-size="14.00" fill="#000000">id :bigint</text>
<text text-anchor="start" x="8" y="-286.3" font-family="Times,serif" font-size="14.00" fill="#000000">progress_percentage :double precision</text>
<text text-anchor="start" x="8" y="-271.3" font-family="Times,serif" font-size="14.00" fill="#000000">progress_in_seconds :integer</text>
<text text-anchor="start" x="8" y="-256.3" font-family="Times,serif" font-size="14.00" fill="#000000">finished :boolean</text>
<text text-anchor="start" x="8" y="-241.3" font-family="Times,serif" font-size="14.00" fill="#000000">video_id :bigint</text>
<text text-anchor="start" x="8" y="-226.3" font-family="Times,serif" font-size="14.00" fill="#000000">student_id :bigint</text>
<text text-anchor="start" x="8" y="-211.3" font-family="Times,serif" font-size="14.00" fill="#000000">created_at :timestamp(6) without time zone</text>
<text text-anchor="start" x="8" y="-196.3" font-family="Times,serif" font-size="14.00" fill="#000000">updated_at :timestamp(6) without time zone</text>
</g>
<!-- Student -->
<g id="node9" class="node">
<title>Student</title>
<path fill="none" stroke="#000000" d="M568,-384C568,-384 804,-384 804,-384 810,-384 816,-390 816,-396 816,-396 816,-523 816,-523 816,-529 810,-535 804,-535 804,-535 568,-535 568,-535 562,-535 556,-529 556,-523 556,-523 556,-396 556,-396 556,-390 562,-384 568,-384"/>
<text text-anchor="middle" x="686" y="-519.8" font-family="Times,serif" font-size="14.00" fill="#000000">Student</text>
<polyline fill="none" stroke="#000000" points="556,-512 816,-512 "/>
<text text-anchor="start" x="564" y="-496.8" font-family="Times,serif" font-size="14.00" fill="#000000">id :bigint</text>
<text text-anchor="start" x="564" y="-481.8" font-family="Times,serif" font-size="14.00" fill="#000000">email :character varying</text>
<text text-anchor="start" x="564" y="-466.8" font-family="Times,serif" font-size="14.00" fill="#000000">password_digest :character varying</text>
<text text-anchor="start" x="564" y="-451.8" font-family="Times,serif" font-size="14.00" fill="#000000">created_at :timestamp(6) without time zone</text>
<text text-anchor="start" x="564" y="-436.8" font-family="Times,serif" font-size="14.00" fill="#000000">updated_at :timestamp(6) without time zone</text>
<text text-anchor="start" x="564" y="-421.8" font-family="Times,serif" font-size="14.00" fill="#000000">name :character varying</text>
<text text-anchor="start" x="564" y="-406.8" font-family="Times,serif" font-size="14.00" fill="#000000">gender :character varying</text>
<text text-anchor="start" x="564" y="-391.8" font-family="Times,serif" font-size="14.00" fill="#000000">status :character varying</text>
</g>
<!-- Student&#45;&gt;ExamQuestionStudent -->
<g id="edge6" class="edge">
<title>Student&#45;&gt;ExamQuestionStudent</title>
<path fill="none" stroke="#1405f1" d="M632.2563,-376.5759C601.0854,-317.0522 576.301,-238.7043 623,-188 656.0058,-152.1634 1011.7622,-158.838 1060,-152 1138.5633,-140.8632 1225.4431,-123.6305 1295.8806,-108.3884"/>
<ellipse fill="none" stroke="#1405f1" cx="634.1992" cy="-380.2107" rx="4" ry="4"/>
<polygon fill="#1405f1" stroke="#1405f1" points="1295.9362,-108.3764 1306.664,-110.649 1300.8221,-107.3141 1305.7079,-106.2518 1305.7079,-106.2518 1305.7079,-106.2518 1300.8221,-107.3141 1304.7518,-101.8545 1295.9362,-108.3764 1295.9362,-108.3764"/>
</g>
<!-- Student&#45;&gt;VideoStudent -->
<g id="edge9" class="edge">
<title>Student&#45;&gt;VideoStudent</title>
<path fill="none" stroke="#3488e2" d="M559.4783,-380.7187C555.3194,-379.0258 551.1543,-377.4456 547,-376 432.4355,-336.1352 389.7339,-376.313 270.2281,-340.1298"/>
<ellipse fill="none" stroke="#3488e2" cx="563.2706" cy="-382.3239" rx="4" ry="4"/>
<polygon fill="#3488e2" stroke="#3488e2" points="269.8856,-340.022 261.6985,-332.7267 265.1164,-338.5205 260.3471,-337.019 260.3471,-337.019 260.3471,-337.019 265.1164,-338.5205 258.9958,-341.3113 269.8856,-340.022 269.8856,-340.022"/>
</g>
<!-- ExamStudent -->
<g id="node10" class="node">
<title>ExamStudent</title>
<path fill="none" stroke="#000000" d="M644,-196C644,-196 880,-196 880,-196 886,-196 892,-202 892,-208 892,-208 892,-320 892,-320 892,-326 886,-332 880,-332 880,-332 644,-332 644,-332 638,-332 632,-326 632,-320 632,-320 632,-208 632,-208 632,-202 638,-196 644,-196"/>
<text text-anchor="middle" x="762" y="-316.8" font-family="Times,serif" font-size="14.00" fill="#000000">ExamStudent</text>
<polyline fill="none" stroke="#000000" points="632,-309 892,-309 "/>
<text text-anchor="start" x="640" y="-293.8" font-family="Times,serif" font-size="14.00" fill="#000000">id :bigint</text>
<text text-anchor="start" x="640" y="-278.8" font-family="Times,serif" font-size="14.00" fill="#000000">progress :double precision</text>
<text text-anchor="start" x="640" y="-263.8" font-family="Times,serif" font-size="14.00" fill="#000000">number_of_correct_answers :integer</text>
<text text-anchor="start" x="640" y="-248.8" font-family="Times,serif" font-size="14.00" fill="#000000">student_id :bigint</text>
<text text-anchor="start" x="640" y="-233.8" font-family="Times,serif" font-size="14.00" fill="#000000">exam_id :bigint</text>
<text text-anchor="start" x="640" y="-218.8" font-family="Times,serif" font-size="14.00" fill="#000000">created_at :timestamp(6) without time zone</text>
<text text-anchor="start" x="640" y="-203.8" font-family="Times,serif" font-size="14.00" fill="#000000">updated_at :timestamp(6) without time zone</text>
</g>
<!-- Student&#45;&gt;ExamStudent -->
<g id="edge5" class="edge">
<title>Student&#45;&gt;ExamStudent</title>
<path fill="none" stroke="#2f256a" d="M718.3628,-376.251C722.8417,-364.7296 727.4274,-352.9333 731.8637,-341.5217"/>
<ellipse fill="none" stroke="#2f256a" cx="716.8329" cy="-380.1864" rx="4" ry="4"/>
<polygon fill="#2f256a" stroke="#2f256a" points="731.9259,-341.3614 739.7435,-333.6714 733.7376,-336.7011 735.5493,-332.0409 735.5493,-332.0409 735.5493,-332.0409 733.7376,-336.7011 731.3551,-330.4104 731.9259,-341.3614 731.9259,-341.3614"/>
</g>
<!-- Reaction -->
<g id="node12" class="node">
<title>Reaction</title>
<path fill="none" stroke="#000000" d="M803,-15.5C803,-15.5 1039,-15.5 1039,-15.5 1045,-15.5 1051,-21.5 1051,-27.5 1051,-27.5 1051,-124.5 1051,-124.5 1051,-130.5 1045,-136.5 1039,-136.5 1039,-136.5 803,-136.5 803,-136.5 797,-136.5 791,-130.5 791,-124.5 791,-124.5 791,-27.5 791,-27.5 791,-21.5 797,-15.5 803,-15.5"/>
<text text-anchor="middle" x="921" y="-121.3" font-family="Times,serif" font-size="14.00" fill="#000000">Reaction</text>
<polyline fill="none" stroke="#000000" points="791,-113.5 1051,-113.5 "/>
<text text-anchor="start" x="799" y="-98.3" font-family="Times,serif" font-size="14.00" fill="#000000">id :bigint</text>
<text text-anchor="start" x="799" y="-83.3" font-family="Times,serif" font-size="14.00" fill="#000000">reaction_type :integer</text>
<text text-anchor="start" x="799" y="-68.3" font-family="Times,serif" font-size="14.00" fill="#000000">student_id :bigint</text>
<text text-anchor="start" x="799" y="-53.3" font-family="Times,serif" font-size="14.00" fill="#000000">commentary_id :bigint</text>
<text text-anchor="start" x="799" y="-38.3" font-family="Times,serif" font-size="14.00" fill="#000000">created_at :timestamp(6) without time zone</text>
<text text-anchor="start" x="799" y="-23.3" font-family="Times,serif" font-size="14.00" fill="#000000">updated_at :timestamp(6) without time zone</text>
</g>
<!-- Student&#45;&gt;Reaction -->
<g id="edge7" class="edge">
<title>Student&#45;&gt;Reaction</title>
<path fill="none" stroke="#47aeaa" d="M608.5761,-376.9618C601.0239,-365.2428 594.5048,-352.8005 590,-340 567.5737,-276.2755 550.6237,-242.8931 590,-188 613.4404,-155.3226 701.3789,-126.4523 780.7229,-106.2102"/>
<ellipse fill="none" stroke="#47aeaa" cx="610.9104" cy="-380.4509" rx="4" ry="4"/>
<polygon fill="#47aeaa" stroke="#47aeaa" points="781.1532,-106.1019 791.9492,-108.0245 786.0019,-104.8813 790.8507,-103.6607 790.8507,-103.6607 790.8507,-103.6607 786.0019,-104.8813 789.7521,-99.2968 781.1532,-106.1019 781.1532,-106.1019"/>
</g>
<!-- Commentary -->
<g id="node17" class="node">
<title>Commentary</title>
<path fill="none" stroke="#000000" d="M922,-188.5C922,-188.5 1158,-188.5 1158,-188.5 1164,-188.5 1170,-194.5 1170,-200.5 1170,-200.5 1170,-327.5 1170,-327.5 1170,-333.5 1164,-339.5 1158,-339.5 1158,-339.5 922,-339.5 922,-339.5 916,-339.5 910,-333.5 910,-327.5 910,-327.5 910,-200.5 910,-200.5 910,-194.5 916,-188.5 922,-188.5"/>
<text text-anchor="middle" x="1040" y="-324.3" font-family="Times,serif" font-size="14.00" fill="#000000">Commentary</text>
<polyline fill="none" stroke="#000000" points="910,-316.5 1170,-316.5 "/>
<text text-anchor="start" x="918" y="-301.3" font-family="Times,serif" font-size="14.00" fill="#000000">id :bigint</text>
<text text-anchor="start" x="918" y="-286.3" font-family="Times,serif" font-size="14.00" fill="#000000">commentary :character varying</text>
<text text-anchor="start" x="918" y="-271.3" font-family="Times,serif" font-size="14.00" fill="#000000">total_likes :integer</text>
<text text-anchor="start" x="918" y="-256.3" font-family="Times,serif" font-size="14.00" fill="#000000">total_deslikes :integer</text>
<text text-anchor="start" x="918" y="-241.3" font-family="Times,serif" font-size="14.00" fill="#000000">student_id :bigint</text>
<text text-anchor="start" x="918" y="-226.3" font-family="Times,serif" font-size="14.00" fill="#000000">question_id :bigint</text>
<text text-anchor="start" x="918" y="-211.3" font-family="Times,serif" font-size="14.00" fill="#000000">created_at :timestamp(6) without time zone</text>
<text text-anchor="start" x="918" y="-196.3" font-family="Times,serif" font-size="14.00" fill="#000000">updated_at :timestamp(6) without time zone</text>
</g>
<!-- Student&#45;&gt;Commentary -->
<g id="edge8" class="edge">
<title>Student&#45;&gt;Commentary</title>
<path fill="none" stroke="#dbeec2" d="M817.8823,-379.8482C820.2684,-378.5464 822.6424,-377.2626 825,-376 857.9485,-358.3553 867.7002,-356.9724 901,-340 901.0919,-339.9532 901.1838,-339.9063 901.2758,-339.8594"/>
<ellipse fill="none" stroke="#dbeec2" cx="814.1974" cy="-381.8758" rx="4" ry="4"/>
<polygon fill="#dbeec2" stroke="#dbeec2" points="901.0058,-339.9981 911.9571,-339.4332 905.4537,-337.7141 909.9015,-335.4301 909.9015,-335.4301 909.9015,-335.4301 905.4537,-337.7141 907.8459,-331.427 901.0058,-339.9981 901.0058,-339.9981"/>
</g>
<!-- Student&#45;&gt;MaterialStudent -->
<g id="edge10" class="edge">
<title>Student&#45;&gt;MaterialStudent</title>
<path fill="none" stroke="#0c4b36" d="M571.8148,-379.2007C545.1563,-360.4534 517.2391,-340.821 492.1589,-323.1837"/>
<ellipse fill="none" stroke="#0c4b36" cx="575.246" cy="-381.6136" rx="4" ry="4"/>
<polygon fill="#0c4b36" stroke="#0c4b36" points="491.948,-323.0354 486.3567,-313.602 487.8581,-320.1592 483.7681,-317.283 483.7681,-317.283 483.7681,-317.283 487.8581,-320.1592 481.1796,-320.9639 491.948,-323.0354 491.948,-323.0354"/>
</g>
<!-- Lesson&#45;&gt;Material -->
<g id="edge14" class="edge">
<title>Lesson&#45;&gt;Material</title>
<path fill="none" stroke="#cb9f4a" d="M578.5011,-574.8029C554.7529,-558.743 529.7098,-541.8073 506.3467,-526.0078"/>
<ellipse fill="none" stroke="#cb9f4a" cx="581.9291" cy="-577.1211" rx="4" ry="4"/>
<polygon fill="#cb9f4a" stroke="#cb9f4a" points="506.1044,-525.844 500.3416,-516.5144 501.9626,-523.0431 497.8208,-520.2421 497.8208,-520.2421 497.8208,-520.2421 501.9626,-523.0431 495.2999,-523.9697 506.1044,-525.844 506.1044,-525.844"/>
</g>
<!-- Lesson&#45;&gt;LessonQuestion -->
<g id="edge12" class="edge">
<title>Lesson&#45;&gt;LessonQuestion</title>
<path fill="none" stroke="#aa2c7f" d="M824.4583,-640.442C1091.7173,-625.844 1659.1512,-589.7515 1735,-543 1815.2862,-493.5133 1865.4541,-392.5109 1891.0742,-326.576"/>
<ellipse fill="none" stroke="#aa2c7f" cx="820.2434" cy="-640.6713" rx="4" ry="4"/>
<polygon fill="#aa2c7f" stroke="#aa2c7f" points="1891.1189,-326.4584 1898.8823,-318.7137 1892.8978,-321.7855 1894.6767,-317.1126 1894.6767,-317.1126 1894.6767,-317.1126 1892.8978,-321.7855 1890.4711,-315.5116 1891.1189,-326.4584 1891.1189,-326.4584"/>
</g>
<!-- Lesson&#45;&gt;Video -->
<g id="edge13" class="edge">
<title>Lesson&#45;&gt;Video</title>
<path fill="none" stroke="#4fb533" d="M547.6209,-623.5154C467.428,-607.0974 365.2703,-581.8335 269.2708,-542.9232"/>
<ellipse fill="none" stroke="#4fb533" cx="551.6374" cy="-624.3305" rx="4" ry="4"/>
<polygon fill="#4fb533" stroke="#4fb533" points="269.2506,-542.9149 261.7107,-534.9524 264.6256,-541.0149 260.0007,-539.1149 260.0007,-539.1149 260.0007,-539.1149 264.6256,-541.0149 258.2907,-543.2773 269.2506,-542.9149 269.2506,-542.9149"/>
</g>
<!-- Exam -->
<g id="node16" class="node">
<title>Exam</title>
<path fill="none" stroke="#000000" d="M846,-406.5C846,-406.5 1082,-406.5 1082,-406.5 1088,-406.5 1094,-412.5 1094,-418.5 1094,-418.5 1094,-500.5 1094,-500.5 1094,-506.5 1088,-512.5 1082,-512.5 1082,-512.5 846,-512.5 846,-512.5 840,-512.5 834,-506.5 834,-500.5 834,-500.5 834,-418.5 834,-418.5 834,-412.5 840,-406.5 846,-406.5"/>
<text text-anchor="middle" x="964" y="-497.3" font-family="Times,serif" font-size="14.00" fill="#000000">Exam</text>
<polyline fill="none" stroke="#000000" points="834,-489.5 1094,-489.5 "/>
<text text-anchor="start" x="842" y="-474.3" font-family="Times,serif" font-size="14.00" fill="#000000">id :bigint</text>
<text text-anchor="start" x="842" y="-459.3" font-family="Times,serif" font-size="14.00" fill="#000000">exam_type :integer</text>
<text text-anchor="start" x="842" y="-444.3" font-family="Times,serif" font-size="14.00" fill="#000000">lesson_id :bigint</text>
<text text-anchor="start" x="842" y="-429.3" font-family="Times,serif" font-size="14.00" fill="#000000">created_at :timestamp(6) without time zone</text>
<text text-anchor="start" x="842" y="-414.3" font-family="Times,serif" font-size="14.00" fill="#000000">updated_at :timestamp(6) without time zone</text>
</g>
<!-- Lesson&#45;&gt;Exam -->
<g id="edge11" class="edge">
<title>Lesson&#45;&gt;Exam</title>
<path fill="none" stroke="#ccf59d" d="M793.6499,-574.7008C821.2177,-556.0578 850.5212,-536.2411 876.9098,-518.3955"/>
<ellipse fill="none" stroke="#ccf59d" cx="790.0709" cy="-577.1211" rx="4" ry="4"/>
<polygon fill="#ccf59d" stroke="#ccf59d" points="877.0855,-518.2767 887.8901,-516.4024 881.2274,-515.4757 885.3692,-512.6748 885.3692,-512.6748 885.3692,-512.6748 881.2274,-515.4757 882.8483,-508.9471 877.0855,-518.2767 877.0855,-518.2767"/>
</g>
<!-- QuestionAlternative -->
<g id="node13" class="node">
<title>QuestionAlternative</title>
<path fill="none" stroke="#000000" d="M1478,-196C1478,-196 1714,-196 1714,-196 1720,-196 1726,-202 1726,-208 1726,-208 1726,-320 1726,-320 1726,-326 1720,-332 1714,-332 1714,-332 1478,-332 1478,-332 1472,-332 1466,-326 1466,-320 1466,-320 1466,-208 1466,-208 1466,-202 1472,-196 1478,-196"/>
<text text-anchor="middle" x="1596" y="-316.8" font-family="Times,serif" font-size="14.00" fill="#000000">QuestionAlternative</text>
<polyline fill="none" stroke="#000000" points="1466,-309 1726,-309 "/>
<text text-anchor="start" x="1474" y="-293.8" font-family="Times,serif" font-size="14.00" fill="#000000">id :bigint</text>
<text text-anchor="start" x="1474" y="-278.8" font-family="Times,serif" font-size="14.00" fill="#000000">question_id :bigint</text>
<text text-anchor="start" x="1474" y="-263.8" font-family="Times,serif" font-size="14.00" fill="#000000">correct :boolean</text>
<text text-anchor="start" x="1474" y="-248.8" font-family="Times,serif" font-size="14.00" fill="#000000">description :character varying</text>
<text text-anchor="start" x="1474" y="-233.8" font-family="Times,serif" font-size="14.00" fill="#000000">created_at :timestamp(6) without time zone</text>
<text text-anchor="start" x="1474" y="-218.8" font-family="Times,serif" font-size="14.00" fill="#000000">updated_at :timestamp(6) without time zone</text>
<text text-anchor="start" x="1474" y="-203.8" font-family="Times,serif" font-size="14.00" fill="#000000">letter :character varying</text>
</g>
<!-- QuestionAlternative&#45;&gt;ExamQuestionStudent -->
<g id="edge15" class="edge">
<title>QuestionAlternative&#45;&gt;ExamQuestionStudent</title>
<path fill="none" stroke="#c57752" d="M1532.8005,-189.7405C1524.2834,-179.733 1515.5003,-169.4129 1506.8613,-159.262"/>
<ellipse fill="none" stroke="#c57752" cx="1535.4176" cy="-192.8157" rx="4" ry="4"/>
<polygon fill="#c57752" stroke="#c57752" points="1506.771,-159.1559 1503.7167,-148.6239 1503.5304,-155.3482 1500.2898,-151.5405 1500.2898,-151.5405 1500.2898,-151.5405 1503.5304,-155.3482 1496.8628,-154.457 1506.771,-159.1559 1506.771,-159.1559"/>
</g>
<!-- Video&#45;&gt;VideoStudent -->
<g id="edge16" class="edge">
<title>Video&#45;&gt;VideoStudent</title>
<path fill="none" stroke="#46eecc" d="M130,-368.2913C130,-362.157 130,-355.9881 130,-349.882"/>
<ellipse fill="none" stroke="#46eecc" cx="130" cy="-372.3069" rx="4" ry="4"/>
<polygon fill="#46eecc" stroke="#46eecc" points="130.0001,-349.6821 134.5,-339.6821 130,-344.6821 130,-339.6821 130,-339.6821 130,-339.6821 130,-344.6821 125.5,-339.6822 130.0001,-349.6821 130.0001,-349.6821"/>
</g>
<!-- ApplicationRecord -->
<g id="node15" class="node">
<title>ApplicationRecord</title>
<ellipse fill="none" stroke="#000000" cx="911" cy="-1099" rx="77.1866" ry="18"/>
<text text-anchor="middle" x="911" y="-1095.3" font-family="Times,serif" font-size="14.00" fill="#000000">ApplicationRecord</text>
</g>
<!-- Exam&#45;&gt;ExamStudent -->
<g id="edge18" class="edge">
<title>Exam&#45;&gt;ExamStudent</title>
<path fill="none" stroke="#15df70" d="M903.1795,-400.6365C883.2644,-381.3623 860.8592,-359.6781 839.8636,-339.3581"/>
<ellipse fill="none" stroke="#15df70" cx="906.1951" cy="-403.5552" rx="4" ry="4"/>
<polygon fill="#15df70" stroke="#15df70" points="839.6882,-339.1883 835.632,-329.0002 836.0953,-335.7111 832.5024,-332.2338 832.5024,-332.2338 832.5024,-332.2338 836.0953,-335.7111 829.3729,-335.4674 839.6882,-339.1883 839.6882,-339.1883"/>
</g>
<!-- ExamQuestion -->
<g id="node20" class="node">
<title>ExamQuestion</title>
<path fill="none" stroke="#000000" d="M1200,-211C1200,-211 1436,-211 1436,-211 1442,-211 1448,-217 1448,-223 1448,-223 1448,-305 1448,-305 1448,-311 1442,-317 1436,-317 1436,-317 1200,-317 1200,-317 1194,-317 1188,-311 1188,-305 1188,-305 1188,-223 1188,-223 1188,-217 1194,-211 1200,-211"/>
<text text-anchor="middle" x="1318" y="-301.8" font-family="Times,serif" font-size="14.00" fill="#000000">ExamQuestion</text>
<polyline fill="none" stroke="#000000" points="1188,-294 1448,-294 "/>
<text text-anchor="start" x="1196" y="-278.8" font-family="Times,serif" font-size="14.00" fill="#000000">id :bigint</text>
<text text-anchor="start" x="1196" y="-263.8" font-family="Times,serif" font-size="14.00" fill="#000000">exam_id :bigint</text>
<text text-anchor="start" x="1196" y="-248.8" font-family="Times,serif" font-size="14.00" fill="#000000">question_id :bigint</text>
<text text-anchor="start" x="1196" y="-233.8" font-family="Times,serif" font-size="14.00" fill="#000000">created_at :timestamp(6) without time zone</text>
<text text-anchor="start" x="1196" y="-218.8" font-family="Times,serif" font-size="14.00" fill="#000000">updated_at :timestamp(6) without time zone</text>
</g>
<!-- Exam&#45;&gt;ExamQuestion -->
<g id="edge17" class="edge">
<title>Exam&#45;&gt;ExamQuestion</title>
<path fill="none" stroke="#79abf7" d="M1067.3887,-402.4026C1113.1846,-377.1113 1166.9802,-347.4022 1212.9652,-322.0065"/>
<ellipse fill="none" stroke="#79abf7" cx="1063.766" cy="-404.4032" rx="4" ry="4"/>
<polygon fill="#79abf7" stroke="#79abf7" points="1213.0009,-321.9868 1223.9302,-321.0916 1217.3778,-319.5696 1221.7547,-317.1524 1221.7547,-317.1524 1221.7547,-317.1524 1217.3778,-319.5696 1219.5792,-313.2132 1213.0009,-321.9868 1213.0009,-321.9868"/>
</g>
<!-- Commentary&#45;&gt;Reaction -->
<g id="edge19" class="edge">
<title>Commentary&#45;&gt;Reaction</title>
<path fill="none" stroke="#a81b9a" d="M987.7646,-181.4769C980.1126,-169.388 972.2979,-157.0421 964.837,-145.255"/>
<ellipse fill="none" stroke="#a81b9a" cx="989.9732" cy="-184.966" rx="4" ry="4"/>
<polygon fill="#a81b9a" stroke="#a81b9a" points="964.8225,-145.2322 963.2764,-134.3758 962.1483,-141.0074 959.4741,-136.7826 959.4741,-136.7826 959.4741,-136.7826 962.1483,-141.0074 955.6718,-139.1894 964.8225,-145.2322 964.8225,-145.2322"/>
</g>
<!-- Field&#45;&gt;Subject -->
<g id="edge20" class="edge">
<title>Field&#45;&gt;Subject</title>
<path fill="none" stroke="#4b8117" d="M686,-902.2187C686,-896.1572 686,-889.9704 686,-883.8231"/>
<ellipse fill="none" stroke="#4b8117" cx="686" cy="-906.4393" rx="4" ry="4"/>
<polygon fill="#4b8117" stroke="#4b8117" points="686.0001,-883.5441 690.5,-873.544 686,-878.5441 686,-873.5441 686,-873.5441 686,-873.5441 686,-878.5441 681.5,-873.5441 686.0001,-883.5441 686.0001,-883.5441"/>
</g>
<!-- ExamQuestion&#45;&gt;ExamQuestionStudent -->
<g id="edge21" class="edge">
<title>ExamQuestion&#45;&gt;ExamQuestionStudent</title>
<path fill="none" stroke="#895cfe" d="M1355.7315,-203.8855C1364.4258,-190.0335 1373.8315,-175.0482 1383.0389,-160.3787"/>
<ellipse fill="none" stroke="#895cfe" cx="1353.4674" cy="-207.4926" rx="4" ry="4"/>
<polygon fill="#895cfe" stroke="#895cfe" points="1383.1141,-160.2588 1392.2418,-154.1813 1385.7722,-156.0239 1388.4303,-151.789 1388.4303,-151.789 1388.4303,-151.789 1385.7722,-156.0239 1384.6189,-149.3967 1383.1141,-160.2588 1383.1141,-160.2588"/>
</g>
<!-- Question -->
<g id="node21" class="node">
<title>Question</title>
<path fill="none" stroke="#000000" d="M1478,-406.5C1478,-406.5 1714,-406.5 1714,-406.5 1720,-406.5 1726,-412.5 1726,-418.5 1726,-418.5 1726,-500.5 1726,-500.5 1726,-506.5 1720,-512.5 1714,-512.5 1714,-512.5 1478,-512.5 1478,-512.5 1472,-512.5 1466,-506.5 1466,-500.5 1466,-500.5 1466,-418.5 1466,-418.5 1466,-412.5 1472,-406.5 1478,-406.5"/>
<text text-anchor="middle" x="1596" y="-497.3" font-family="Times,serif" font-size="14.00" fill="#000000">Question</text>
<polyline fill="none" stroke="#000000" points="1466,-489.5 1726,-489.5 "/>
<text text-anchor="start" x="1474" y="-474.3" font-family="Times,serif" font-size="14.00" fill="#000000">id :bigint</text>
<text text-anchor="start" x="1474" y="-459.3" font-family="Times,serif" font-size="14.00" fill="#000000">statement :character varying</text>
<text text-anchor="start" x="1474" y="-444.3" font-family="Times,serif" font-size="14.00" fill="#000000">created_at :timestamp(6) without time zone</text>
<text text-anchor="start" x="1474" y="-429.3" font-family="Times,serif" font-size="14.00" fill="#000000">updated_at :timestamp(6) without time zone</text>
<text text-anchor="start" x="1474" y="-414.3" font-family="Times,serif" font-size="14.00" fill="#000000">level :integer</text>
</g>
<!-- Question&#45;&gt;ExamQuestionStudent -->
<g id="edge25" class="edge">
<title>Question&#45;&gt;ExamQuestionStudent</title>
<path fill="none" stroke="#b0abe3" d="M1686.9044,-401.2319C1706.3334,-384.0483 1724.2315,-363.4588 1735,-340 1763.1831,-278.604 1773.4895,-243.5186 1735,-188 1715.3586,-159.6686 1644.2186,-132.4281 1576.2601,-111.9067"/>
<ellipse fill="none" stroke="#b0abe3" cx="1683.8644" cy="-403.8465" rx="4" ry="4"/>
<polygon fill="#b0abe3" stroke="#b0abe3" points="1575.8467,-111.7836 1567.5479,-104.6157 1571.0549,-110.356 1566.263,-108.9284 1566.263,-108.9284 1566.263,-108.9284 1571.0549,-110.356 1564.9781,-113.241 1575.8467,-111.7836 1575.8467,-111.7836"/>
</g>
<!-- Question&#45;&gt;LessonQuestion -->
<g id="edge24" class="edge">
<title>Question&#45;&gt;LessonQuestion</title>
<path fill="none" stroke="#ce4f23" d="M1688.8259,-402.0713C1729.3458,-377.0028 1776.7999,-347.6444 1817.507,-322.4601"/>
<ellipse fill="none" stroke="#ce4f23" cx="1685.3326" cy="-404.2325" rx="4" ry="4"/>
<polygon fill="#ce4f23" stroke="#ce4f23" points="1817.582,-322.4137 1828.4537,-320.9793 1821.8341,-319.7831 1826.0861,-317.1524 1826.0861,-317.1524 1826.0861,-317.1524 1821.8341,-319.7831 1823.7185,-313.3256 1817.582,-322.4137 1817.582,-322.4137"/>
</g>
<!-- Question&#45;&gt;QuestionAlternative -->
<g id="edge22" class="edge">
<title>Question&#45;&gt;QuestionAlternative</title>
<path fill="none" stroke="#357b1f" d="M1596,-398.148C1596,-380.4833 1596,-360.9684 1596,-342.4207"/>
<ellipse fill="none" stroke="#357b1f" cx="1596" cy="-402.337" rx="4" ry="4"/>
<polygon fill="#357b1f" stroke="#357b1f" points="1596.0001,-342.2338 1600.5,-332.2338 1596,-337.2338 1596,-332.2338 1596,-332.2338 1596,-332.2338 1596,-337.2338 1591.5,-332.2338 1596.0001,-342.2338 1596.0001,-342.2338"/>
</g>
<!-- Question&#45;&gt;Commentary -->
<g id="edge26" class="edge">
<title>Question&#45;&gt;Commentary</title>
<path fill="none" stroke="#b29a43" d="M1457.8443,-428.0928C1377.9509,-407.9923 1276.0294,-379.0211 1179.5011,-340.0663"/>
<ellipse fill="none" stroke="#b29a43" cx="1461.8704" cy="-429.1001" rx="4" ry="4"/>
<polygon fill="#b29a43" stroke="#b29a43" points="1179.4374,-340.0404 1171.8762,-332.0982 1174.8074,-338.1528 1170.1774,-336.2652 1170.1774,-336.2652 1170.1774,-336.2652 1174.8074,-338.1528 1168.4786,-340.4323 1179.4374,-340.0404 1179.4374,-340.0404"/>
</g>
<!-- Question&#45;&gt;ExamQuestion -->
<g id="edge23" class="edge">
<title>Question&#45;&gt;ExamQuestion</title>
<path fill="none" stroke="#16f69d" d="M1513.3925,-401.4073C1478.2296,-376.6795 1437.2691,-347.8745 1401.9597,-323.0436"/>
<ellipse fill="none" stroke="#16f69d" cx="1517.1305" cy="-404.036" rx="4" ry="4"/>
<polygon fill="#16f69d" stroke="#16f69d" points="1401.7623,-322.9048 1396.1711,-313.4715 1397.6724,-320.0286 1393.5825,-317.1524 1393.5825,-317.1524 1393.5825,-317.1524 1397.6724,-320.0286 1390.9939,-320.8334 1401.7623,-322.9048 1401.7623,-322.9048"/>
</g>
</g>
</svg>
