<?xml version="1.0" encoding="UTF-8" standalone="no"?>
<!DOCTYPE svg PUBLIC "-//W3C//DTD SVG 1.1//EN"
 "http://www.w3.org/Graphics/SVG/1.1/DTD/svg11.dtd">
<!-- Generated by graphviz version 2.40.1 (20161225.0304)
 -->
<!-- Title: models_diagram Pages: 1 -->
<svg width="1532pt" height="518pt"
 viewBox="0.00 0.00 1531.94 518.00" xmlns="http://www.w3.org/2000/svg" xmlns:xlink="http://www.w3.org/1999/xlink">
<g id="graph0" class="graph" transform="scale(1 1) rotate(0) translate(4 514)">
<title>models_diagram</title>
<polygon fill="transparent" stroke="transparent" points="-4,4 -4,-514 1527.9371,-514 1527.9371,4 -4,4"/>
<!-- _diagram_info -->
<g id="node1" class="node">
<title>_diagram_info</title>
<text text-anchor="start" x="1055.594" y="-495.6" font-family="Times,serif" font-size="13.00" fill="#000000">Models diagram</text>
<text text-anchor="start" x="1055.594" y="-481.6" font-family="Times,serif" font-size="13.00" fill="#000000">Date: Feb 13 2021 &#45; 18:50</text>
<text text-anchor="start" x="1055.594" y="-467.6" font-family="Times,serif" font-size="13.00" fill="#000000">Migration version: 20210213214724</text>
<text text-anchor="start" x="1055.594" y="-453.6" font-family="Times,serif" font-size="13.00" fill="#000000">Generated by RailRoady 1.5.3</text>
<text text-anchor="start" x="1055.594" y="-439.6" font-family="Times,serif" font-size="13.00" fill="#000000">http://railroady.prestonlee.com</text>
</g>
<!-- Material -->
<g id="node2" class="node">
<title>Material</title>
<ellipse fill="none" stroke="#000000" cx="854.594" cy="-162" rx="40.8928" ry="18"/>
<text text-anchor="middle" x="854.594" y="-158.3" font-family="Times,serif" font-size="14.00" fill="#000000">Material</text>
</g>
<!-- MaterialStudent -->
<g id="node20" class="node">
<title>MaterialStudent</title>
<ellipse fill="none" stroke="#000000" cx="854.594" cy="-90" rx="67.6881" ry="18"/>
<text text-anchor="middle" x="854.594" y="-86.3" font-family="Times,serif" font-size="14.00" fill="#000000">MaterialStudent</text>
</g>
<!-- Material&#45;&gt;MaterialStudent -->
<g id="edge1" class="edge">
<title>Material&#45;&gt;MaterialStudent</title>
<path fill="none" stroke="#2a5811" d="M854.594,-135.8144C854.594,-130.2775 854.594,-124.4053 854.594,-118.7785"/>
<ellipse fill="none" stroke="#2a5811" cx="854.5941" cy="-139.8314" rx="4" ry="4"/>
<polygon fill="#2a5811" stroke="#2a5811" points="854.5941,-118.4133 859.094,-108.4132 854.5941,-113.4133 854.594,-108.4133 854.594,-108.4133 854.594,-108.4133 854.5941,-113.4133 850.094,-108.4133 854.5941,-118.4133 854.5941,-118.4133"/>
</g>
<!-- Teacher -->
<g id="node3" class="node">
<title>Teacher</title>
<ellipse fill="none" stroke="#000000" cx="972.594" cy="-234" rx="38.9931" ry="18"/>
<text text-anchor="middle" x="972.594" y="-230.3" font-family="Times,serif" font-size="14.00" fill="#000000">Teacher</text>
</g>
<!-- Video -->
<g id="node16" class="node">
<title>Video</title>
<ellipse fill="none" stroke="#000000" cx="972.594" cy="-162" rx="32.4942" ry="18"/>
<text text-anchor="middle" x="972.594" y="-158.3" font-family="Times,serif" font-size="14.00" fill="#000000">Video</text>
</g>
<!-- Teacher&#45;&gt;Video -->
<g id="edge2" class="edge">
<title>Teacher&#45;&gt;Video</title>
<path fill="none" stroke="#1d292b" d="M972.594,-207.8144C972.594,-202.2775 972.594,-196.4053 972.594,-190.7785"/>
<ellipse fill="none" stroke="#1d292b" cx="972.5941" cy="-211.8314" rx="4" ry="4"/>
<polygon fill="#1d292b" stroke="#1d292b" points="972.5941,-190.4133 977.094,-180.4132 972.5941,-185.4133 972.594,-180.4133 972.594,-180.4133 972.594,-180.4133 972.5941,-185.4133 968.094,-180.4133 972.5941,-190.4133 972.5941,-190.4133"/>
</g>
<!-- Course -->
<g id="node4" class="node">
<title>Course</title>
<ellipse fill="none" stroke="#000000" cx="1315.594" cy="-471" rx="35.9954" ry="18"/>
<text text-anchor="middle" x="1315.594" y="-467.3" font-family="Times,serif" font-size="14.00" fill="#000000">Course</text>
</g>
<!-- Ranking -->
<g id="node10" class="node">
<title>Ranking</title>
<ellipse fill="none" stroke="#000000" cx="1230.594" cy="-90" rx="40.0939" ry="18"/>
<text text-anchor="middle" x="1230.594" y="-86.3" font-family="Times,serif" font-size="14.00" fill="#000000">Ranking</text>
</g>
<!-- Course&#45;&gt;Ranking -->
<g id="edge7" class="edge">
<title>Course&#45;&gt;Ranking</title>
<path fill="none" stroke="#58c7b9" d="M1300.2627,-446.4374C1282.193,-415.0847 1254.594,-358.5897 1254.594,-306 1254.594,-306 1254.594,-306 1254.594,-234 1254.594,-193.1433 1245.0775,-146.6424 1238.0295,-117.8061"/>
<ellipse fill="none" stroke="#58c7b9" cx="1302.3771" cy="-450.0308" rx="4" ry="4"/>
<polygon fill="#58c7b9" stroke="#58c7b9" points="1238.0084,-117.722 1239.9306,-106.9259 1236.7876,-112.8733 1235.5668,-108.0247 1235.5668,-108.0247 1235.5668,-108.0247 1236.7876,-112.8733 1231.203,-109.1234 1238.0084,-117.722 1238.0084,-117.722"/>
</g>
<!-- RankingAction -->
<g id="node12" class="node">
<title>RankingAction</title>
<ellipse fill="none" stroke="#000000" cx="1230.594" cy="-18" rx="64.189" ry="18"/>
<text text-anchor="middle" x="1230.594" y="-14.3" font-family="Times,serif" font-size="14.00" fill="#000000">RankingAction</text>
</g>
<!-- Course&#45;&gt;RankingAction -->
<g id="edge6" class="edge">
<title>Course&#45;&gt;RankingAction</title>
<path fill="none" stroke="#bd2185" d="M1339.9154,-449.7507C1346.5928,-443.9634 1353.8512,-437.7154 1360.594,-432 1427.531,-375.2621 1512.594,-393.7482 1512.594,-306 1512.594,-306 1512.594,-306 1512.594,-162 1512.594,-121.1184 1522.5818,-100.8274 1493.594,-72 1467.1867,-45.7388 1371.2729,-31.2222 1302.9146,-24.0203"/>
<ellipse fill="none" stroke="#bd2185" cx="1336.492" cy="-452.7244" rx="4" ry="4"/>
<polygon fill="#bd2185" stroke="#bd2185" points="1302.5664,-23.9848 1293.0755,-18.4917 1297.5923,-23.4766 1292.6182,-22.9684 1292.6182,-22.9684 1292.6182,-22.9684 1297.5923,-23.4766 1292.1608,-27.4451 1302.5664,-23.9848 1302.5664,-23.9848"/>
</g>
<!-- Field -->
<g id="node21" class="node">
<title>Field</title>
<ellipse fill="none" stroke="#000000" cx="1110.594" cy="-378" rx="28.6953" ry="18"/>
<text text-anchor="middle" x="1110.594" y="-374.3" font-family="Times,serif" font-size="14.00" fill="#000000">Field</text>
</g>
<!-- Course&#45;&gt;Field -->
<g id="edge3" class="edge">
<title>Course&#45;&gt;Field</title>
<path fill="none" stroke="#9fa354" d="M1293.6347,-448.9709C1286.6896,-442.8611 1278.7004,-436.6392 1270.594,-432 1231.3928,-409.5656 1181.4273,-394.5763 1147.8511,-386.1962"/>
<ellipse fill="none" stroke="#9fa354" cx="1296.7387" cy="-451.8048" rx="4" ry="4"/>
<polygon fill="#9fa354" stroke="#9fa354" points="1147.706,-386.1611 1139.0466,-379.4332 1142.8466,-384.9839 1137.9871,-383.8067 1137.9871,-383.8067 1137.9871,-383.8067 1142.8466,-384.9839 1136.9276,-388.1802 1147.706,-386.1611 1147.706,-386.1611"/>
</g>
<!-- Log -->
<g id="node24" class="node">
<title>Log</title>
<ellipse fill="none" stroke="#000000" cx="1315.594" cy="-90" rx="27" ry="18"/>
<text text-anchor="middle" x="1315.594" y="-86.3" font-family="Times,serif" font-size="14.00" fill="#000000">Log</text>
</g>
<!-- Course&#45;&gt;Log -->
<g id="edge5" class="edge">
<title>Course&#45;&gt;Log</title>
<path fill="none" stroke="#a967d3" d="M1315.594,-444.5618C1315.594,-411.9764 1315.594,-354.9105 1315.594,-306 1315.594,-306 1315.594,-306 1315.594,-234 1315.594,-193.876 1315.594,-147.4631 1315.594,-118.4177"/>
<ellipse fill="none" stroke="#a967d3" cx="1315.5941" cy="-448.6877" rx="4" ry="4"/>
<polygon fill="#a967d3" stroke="#a967d3" points="1315.5941,-118.1854 1320.094,-108.1853 1315.5941,-113.1854 1315.594,-108.1854 1315.594,-108.1854 1315.594,-108.1854 1315.5941,-113.1854 1311.094,-108.1854 1315.5941,-118.1854 1315.5941,-118.1854"/>
</g>
<!-- CourseStudent -->
<g id="node25" class="node">
<title>CourseStudent</title>
<ellipse fill="none" stroke="#000000" cx="1422.594" cy="-90" rx="62.2891" ry="18"/>
<text text-anchor="middle" x="1422.594" y="-86.3" font-family="Times,serif" font-size="14.00" fill="#000000">CourseStudent</text>
</g>
<!-- Course&#45;&gt;CourseStudent -->
<g id="edge4" class="edge">
<title>Course&#45;&gt;CourseStudent</title>
<path fill="none" stroke="#79d71b" d="M1333.6682,-447.261C1355.2864,-416.4408 1388.594,-360.1664 1388.594,-306 1388.594,-306 1388.594,-306 1388.594,-234 1388.594,-192.8199 1401.9272,-146.7455 1411.8945,-118.0555"/>
<ellipse fill="none" stroke="#79d71b" cx="1331.3118" cy="-450.5526" rx="4" ry="4"/>
<polygon fill="#79d71b" stroke="#79d71b" points="1412.0118,-117.7278 1419.62,-109.8306 1413.6976,-113.0206 1415.3835,-108.3133 1415.3835,-108.3133 1415.3835,-108.3133 1413.6976,-113.0206 1411.147,-106.7961 1412.0118,-117.7278 1412.0118,-117.7278"/>
</g>
<!-- ExamQuestionStudent -->
<g id="node5" class="node">
<title>ExamQuestionStudent</title>
<ellipse fill="none" stroke="#000000" cx="547.594" cy="-18" rx="90.1842" ry="18"/>
<text text-anchor="middle" x="547.594" y="-14.3" font-family="Times,serif" font-size="14.00" fill="#000000">ExamQuestionStudent</text>
</g>
<!-- LessonQuestion -->
<g id="node6" class="node">
<title>LessonQuestion</title>
<ellipse fill="none" stroke="#000000" cx="67.594" cy="-90" rx="67.6881" ry="18"/>
<text text-anchor="middle" x="67.594" y="-86.3" font-family="Times,serif" font-size="14.00" fill="#000000">LessonQuestion</text>
</g>
<!-- Subject -->
<g id="node7" class="node">
<title>Subject</title>
<ellipse fill="none" stroke="#000000" cx="1022.594" cy="-306" rx="37.0935" ry="18"/>
<text text-anchor="middle" x="1022.594" y="-302.3" font-family="Times,serif" font-size="14.00" fill="#000000">Subject</text>
</g>
<!-- Lesson -->
<g id="node13" class="node">
<title>Lesson</title>
<ellipse fill="none" stroke="#000000" cx="854.594" cy="-234" rx="35.9954" ry="18"/>
<text text-anchor="middle" x="854.594" y="-230.3" font-family="Times,serif" font-size="14.00" fill="#000000">Lesson</text>
</g>
<!-- Subject&#45;&gt;Lesson -->
<g id="edge8" class="edge">
<title>Subject&#45;&gt;Lesson</title>
<path fill="none" stroke="#5e8b53" d="M986.812,-290.6649C958.7595,-278.6423 919.8586,-261.9705 891.5173,-249.8243"/>
<ellipse fill="none" stroke="#5e8b53" cx="990.798" cy="-292.3731" rx="4" ry="4"/>
<polygon fill="#5e8b53" stroke="#5e8b53" points="891.1595,-249.671 883.7407,-241.5956 886.5638,-247.7014 881.9681,-245.7317 881.9681,-245.7317 881.9681,-245.7317 886.5638,-247.7014 880.1954,-249.8679 891.1595,-249.671 891.1595,-249.671"/>
</g>
<!-- VideoStudent -->
<g id="node8" class="node">
<title>VideoStudent</title>
<ellipse fill="none" stroke="#000000" cx="999.594" cy="-90" rx="59.2899" ry="18"/>
<text text-anchor="middle" x="999.594" y="-86.3" font-family="Times,serif" font-size="14.00" fill="#000000">VideoStudent</text>
</g>
<!-- Student -->
<g id="node9" class="node">
<title>Student</title>
<ellipse fill="none" stroke="#000000" cx="1105.594" cy="-162" rx="37.8943" ry="18"/>
<text text-anchor="middle" x="1105.594" y="-158.3" font-family="Times,serif" font-size="14.00" fill="#000000">Student</text>
</g>
<!-- Student&#45;&gt;ExamQuestionStudent -->
<g id="edge10" class="edge">
<title>Student&#45;&gt;ExamQuestionStudent</title>
<path fill="none" stroke="#520ffe" d="M1101.9247,-135.8903C1097.5259,-115.0567 1087.9979,-86.9666 1067.594,-72 999.1987,-21.8309 771.893,-45.4097 687.594,-36 669.8191,-34.0159 650.8002,-31.7001 632.6913,-29.403"/>
<ellipse fill="none" stroke="#520ffe" cx="1102.6722" cy="-139.8259" rx="4" ry="4"/>
<polygon fill="#520ffe" stroke="#520ffe" points="632.6575,-29.3988 623.3086,-23.6673 627.6978,-28.7649 622.7381,-28.131 622.7381,-28.131 622.7381,-28.131 627.6978,-28.7649 622.1676,-32.5947 632.6575,-29.3988 632.6575,-29.3988"/>
</g>
<!-- Student&#45;&gt;VideoStudent -->
<g id="edge13" class="edge">
<title>Student&#45;&gt;VideoStudent</title>
<path fill="none" stroke="#1ca934" d="M1077.042,-142.6062C1063.2776,-133.2568 1046.696,-121.9938 1032.413,-112.2922"/>
<ellipse fill="none" stroke="#1ca934" cx="1080.5787" cy="-145.0084" rx="4" ry="4"/>
<polygon fill="#1ca934" stroke="#1ca934" points="1032.1349,-112.1033 1026.3912,-102.7619 1027.9988,-109.2938 1023.8627,-106.4844 1023.8627,-106.4844 1023.8627,-106.4844 1027.9988,-109.2938 1021.3342,-110.2069 1032.1349,-112.1033 1032.1349,-112.1033"/>
</g>
<!-- Student&#45;&gt;Ranking -->
<g id="edge18" class="edge">
<title>Student&#45;&gt;Ranking</title>
<path fill="none" stroke="#545879" d="M1136.6481,-144.1128C1154.9616,-133.5643 1178.1461,-120.21 1196.9009,-109.4072"/>
<ellipse fill="none" stroke="#545879" cx="1133.1614" cy="-146.1212" rx="4" ry="4"/>
<polygon fill="#545879" stroke="#545879" points="1197.0458,-109.3238 1207.9572,-108.2319 1201.3785,-106.8282 1205.7112,-104.3325 1205.7112,-104.3325 1205.7112,-104.3325 1201.3785,-106.8282 1203.4651,-100.4331 1197.0458,-109.3238 1197.0458,-109.3238"/>
</g>
<!-- ExamStudent -->
<g id="node11" class="node">
<title>ExamStudent</title>
<ellipse fill="none" stroke="#000000" cx="710.594" cy="-90" rx="58.4896" ry="18"/>
<text text-anchor="middle" x="710.594" y="-86.3" font-family="Times,serif" font-size="14.00" fill="#000000">ExamStudent</text>
</g>
<!-- Student&#45;&gt;ExamStudent -->
<g id="edge9" class="edge">
<title>Student&#45;&gt;ExamStudent</title>
<path fill="none" stroke="#49302a" d="M1062.8273,-153.2467C1047.3436,-150.1797 1029.7058,-146.8037 1013.594,-144 909.0627,-125.8096 881.4329,-129.7981 777.594,-108 772.9748,-107.0303 768.1998,-105.9357 763.4249,-104.7772"/>
<ellipse fill="none" stroke="#49302a" cx="1066.7855" cy="-154.0357" rx="4" ry="4"/>
<polygon fill="#49302a" stroke="#49302a" points="763.373,-104.7642 754.77,-97.9643 758.5236,-103.5465 753.6741,-102.3289 753.6741,-102.3289 753.6741,-102.3289 758.5236,-103.5465 752.5782,-106.6934 763.373,-104.7642 763.373,-104.7642"/>
</g>
<!-- Student&#45;&gt;RankingAction -->
<g id="edge17" class="edge">
<title>Student&#45;&gt;RankingAction</title>
<path fill="none" stroke="#2431a9" d="M1124.9975,-138.5612C1140.222,-120.2834 1162.0383,-94.3383 1181.594,-72 1189.8492,-62.5702 1199.0475,-52.358 1207.225,-43.3787"/>
<ellipse fill="none" stroke="#2431a9" cx="1122.2609" cy="-141.8519" rx="4" ry="4"/>
<polygon fill="#2431a9" stroke="#2431a9" points="1207.3534,-43.2382 1217.421,-38.8915 1210.7262,-39.547 1214.099,-35.8559 1214.099,-35.8559 1214.099,-35.8559 1210.7262,-39.547 1210.777,-32.8204 1207.3534,-43.2382 1207.3534,-43.2382"/>
</g>
<!-- Reaction -->
<g id="node14" class="node">
<title>Reaction</title>
<ellipse fill="none" stroke="#000000" cx="738.594" cy="-18" rx="42.4939" ry="18"/>
<text text-anchor="middle" x="738.594" y="-14.3" font-family="Times,serif" font-size="14.00" fill="#000000">Reaction</text>
</g>
<!-- Student&#45;&gt;Reaction -->
<g id="edge11" class="edge">
<title>Student&#45;&gt;Reaction</title>
<path fill="none" stroke="#0e6fa0" d="M1112.1343,-135.834C1115.4459,-115.8306 1115.998,-88.9005 1100.594,-72 1079.9702,-49.3726 885.2282,-30.2093 790.224,-22.1188"/>
<ellipse fill="none" stroke="#0e6fa0" cx="1111.3363" cy="-140.0047" rx="4" ry="4"/>
<polygon fill="#0e6fa0" stroke="#0e6fa0" points="790.2141,-22.118 780.627,-16.7947 785.2318,-21.6985 780.2494,-21.2789 780.2494,-21.2789 780.2494,-21.2789 785.2318,-21.6985 779.8718,-25.763 790.2141,-22.118 790.2141,-22.118"/>
</g>
<!-- Commentary -->
<g id="node19" class="node">
<title>Commentary</title>
<ellipse fill="none" stroke="#000000" cx="576.594" cy="-90" rx="57.6901" ry="18"/>
<text text-anchor="middle" x="576.594" y="-86.3" font-family="Times,serif" font-size="14.00" fill="#000000">Commentary</text>
</g>
<!-- Student&#45;&gt;Commentary -->
<g id="edge12" class="edge">
<title>Student&#45;&gt;Commentary</title>
<path fill="none" stroke="#dbd133" d="M1063.2981,-152.8397C1047.7283,-149.7019 1029.9132,-146.3847 1013.594,-144 850.1093,-120.1102 806.1537,-137.5349 643.594,-108 638.6113,-107.0947 633.4579,-106.0012 628.3243,-104.8058"/>
<ellipse fill="none" stroke="#dbd133" cx="1067.2966" cy="-153.6571" rx="4" ry="4"/>
<polygon fill="#dbd133" stroke="#dbd133" points="628.2391,-104.785 619.5982,-98.0333 623.3829,-103.5944 618.5267,-102.4039 618.5267,-102.4039 618.5267,-102.4039 623.3829,-103.5944 617.4552,-106.7745 628.2391,-104.785 628.2391,-104.785"/>
</g>
<!-- Student&#45;&gt;MaterialStudent -->
<g id="edge14" class="edge">
<title>Student&#45;&gt;MaterialStudent</title>
<path fill="none" stroke="#8640c6" d="M1065.2561,-150.429C1023.3209,-138.3998 957.3713,-119.4819 910.4404,-106.0197"/>
<ellipse fill="none" stroke="#8640c6" cx="1069.1925" cy="-151.5581" rx="4" ry="4"/>
<polygon fill="#8640c6" stroke="#8640c6" points="910.3424,-105.9916 901.9709,-98.9087 905.5362,-104.6129 900.73,-103.2342 900.73,-103.2342 900.73,-103.2342 905.5362,-104.6129 899.4892,-107.5598 910.3424,-105.9916 910.3424,-105.9916"/>
</g>
<!-- Student&#45;&gt;Log -->
<g id="edge16" class="edge">
<title>Student&#45;&gt;Log</title>
<path fill="none" stroke="#740b39" d="M1146.6516,-151.2954C1182.3306,-141.514 1235.1227,-125.8803 1279.594,-108 1281.3931,-107.2766 1283.2252,-106.4986 1285.062,-105.6862"/>
<ellipse fill="none" stroke="#740b39" cx="1142.721" cy="-152.3637" rx="4" ry="4"/>
<polygon fill="#740b39" stroke="#740b39" points="1285.0961,-105.6703 1296.0608,-105.5085 1289.6249,-103.5514 1294.1538,-101.4326 1294.1538,-101.4326 1294.1538,-101.4326 1289.6249,-103.5514 1292.2468,-97.3566 1285.0961,-105.6703 1285.0961,-105.6703"/>
</g>
<!-- Student&#45;&gt;CourseStudent -->
<g id="edge15" class="edge">
<title>Student&#45;&gt;CourseStudent</title>
<path fill="none" stroke="#db9c79" d="M1148.1825,-153.0864C1197.3068,-142.7041 1280.4506,-124.822 1351.594,-108 1356.2965,-106.8881 1361.1674,-105.7096 1366.053,-104.509"/>
<ellipse fill="none" stroke="#db9c79" cx="1144.2162" cy="-153.9233" rx="4" ry="4"/>
<polygon fill="#db9c79" stroke="#db9c79" points="1366.3473,-104.436 1377.1368,-106.3948 1371.2001,-103.2316 1376.0529,-102.0273 1376.0529,-102.0273 1376.0529,-102.0273 1371.2001,-103.2316 1374.969,-97.6598 1366.3473,-104.436 1366.3473,-104.436"/>
</g>
<!-- Ranking&#45;&gt;RankingAction -->
<g id="edge19" class="edge">
<title>Ranking&#45;&gt;RankingAction</title>
<path fill="none" stroke="#a5d29d" d="M1230.594,-63.8144C1230.594,-58.2775 1230.594,-52.4053 1230.594,-46.7785"/>
<ellipse fill="none" stroke="#a5d29d" cx="1230.5941" cy="-67.8314" rx="4" ry="4"/>
<polygon fill="#a5d29d" stroke="#a5d29d" points="1230.5941,-46.4133 1235.094,-36.4132 1230.5941,-41.4133 1230.594,-36.4133 1230.594,-36.4133 1230.594,-36.4133 1230.5941,-41.4133 1226.094,-36.4133 1230.5941,-46.4133 1230.5941,-46.4133"/>
</g>
<!-- ExamStudent&#45;&gt;ExamQuestionStudent -->
<g id="edge20" class="edge">
<title>ExamStudent&#45;&gt;ExamQuestionStudent</title>
<path fill="none" stroke="#3fdbc0" d="M669.3649,-71.7884C646.4623,-61.6719 617.8926,-49.0521 594.1833,-38.5793"/>
<ellipse fill="none" stroke="#3fdbc0" cx="673.1614" cy="-73.4653" rx="4" ry="4"/>
<polygon fill="#3fdbc0" stroke="#3fdbc0" points="594.1704,-38.5737 586.8413,-30.4168 589.5967,-36.5534 585.023,-34.5331 585.023,-34.5331 585.023,-34.5331 589.5967,-36.5534 583.2048,-38.6494 594.1704,-38.5737 594.1704,-38.5737"/>
</g>
<!-- Lesson&#45;&gt;Material -->
<g id="edge24" class="edge">
<title>Lesson&#45;&gt;Material</title>
<path fill="none" stroke="#b33a4c" d="M854.594,-207.8144C854.594,-202.2775 854.594,-196.4053 854.594,-190.7785"/>
<ellipse fill="none" stroke="#b33a4c" cx="854.5941" cy="-211.8314" rx="4" ry="4"/>
<polygon fill="#b33a4c" stroke="#b33a4c" points="854.5941,-190.4133 859.094,-180.4132 854.5941,-185.4133 854.594,-180.4133 854.594,-180.4133 854.594,-180.4133 854.5941,-185.4133 850.094,-180.4133 854.5941,-190.4133 854.5941,-190.4133"/>
</g>
<!-- Lesson&#45;&gt;LessonQuestion -->
<g id="edge22" class="edge">
<title>Lesson&#45;&gt;LessonQuestion</title>
<path fill="none" stroke="#d1211c" d="M810.5232,-231.3728C696.1088,-224.2942 391.707,-203.747 293.594,-180 226.4799,-163.7559 152.906,-131.549 108.5008,-110.3959"/>
<ellipse fill="none" stroke="#d1211c" cx="814.7573" cy="-231.6331" rx="4" ry="4"/>
<polygon fill="#d1211c" stroke="#d1211c" points="108.2234,-110.2625 101.1615,-101.8733 103.7173,-108.0956 99.2113,-105.9287 99.2113,-105.9287 99.2113,-105.9287 103.7173,-108.0956 97.2611,-109.9842 108.2234,-110.2625 108.2234,-110.2625"/>
</g>
<!-- Lesson&#45;&gt;Video -->
<g id="edge23" class="edge">
<title>Lesson&#45;&gt;Video</title>
<path fill="none" stroke="#15d20e" d="M884.5957,-215.6939C902.0571,-205.0395 924.0288,-191.633 941.649,-180.8817"/>
<ellipse fill="none" stroke="#15d20e" cx="881.0403" cy="-217.8633" rx="4" ry="4"/>
<polygon fill="#15d20e" stroke="#15d20e" points="941.8833,-180.7388 952.7636,-179.3715 946.1515,-178.1344 950.4197,-175.5301 950.4197,-175.5301 950.4197,-175.5301 946.1515,-178.1344 948.0758,-171.6887 941.8833,-180.7388 941.8833,-180.7388"/>
</g>
<!-- Exam -->
<g id="node18" class="node">
<title>Exam</title>
<ellipse fill="none" stroke="#000000" cx="710.594" cy="-162" rx="31.6951" ry="18"/>
<text text-anchor="middle" x="710.594" y="-158.3" font-family="Times,serif" font-size="14.00" fill="#000000">Exam</text>
</g>
<!-- Lesson&#45;&gt;Exam -->
<g id="edge21" class="edge">
<title>Lesson&#45;&gt;Exam</title>
<path fill="none" stroke="#f87b93" d="M822.0006,-217.7033C798.715,-206.0605 767.4822,-190.4441 744.0119,-178.709"/>
<ellipse fill="none" stroke="#f87b93" cx="825.6035" cy="-219.5047" rx="4" ry="4"/>
<polygon fill="#f87b93" stroke="#f87b93" points="743.7383,-178.5722 736.8065,-170.0751 739.2662,-176.3361 734.794,-174.1 734.794,-174.1 734.794,-174.1 739.2662,-176.3361 732.7816,-178.1249 743.7383,-178.5722 743.7383,-178.5722"/>
</g>
<!-- QuestionAlternative -->
<g id="node15" class="node">
<title>QuestionAlternative</title>
<ellipse fill="none" stroke="#000000" cx="234.594" cy="-90" rx="81.7856" ry="18"/>
<text text-anchor="middle" x="234.594" y="-86.3" font-family="Times,serif" font-size="14.00" fill="#000000">QuestionAlternative</text>
</g>
<!-- QuestionAlternative&#45;&gt;ExamQuestionStudent -->
<g id="edge25" class="edge">
<title>QuestionAlternative&#45;&gt;ExamQuestionStudent</title>
<path fill="none" stroke="#2e4a04" d="M299.3021,-75.1151C351.5509,-63.0962 424.9118,-46.2208 478.3381,-33.9311"/>
<ellipse fill="none" stroke="#2e4a04" cx="295.1741" cy="-76.0646" rx="4" ry="4"/>
<polygon fill="#2e4a04" stroke="#2e4a04" points="478.663,-33.8564 489.4173,-36 483.5358,-32.7355 488.4085,-31.6146 488.4085,-31.6146 488.4085,-31.6146 483.5358,-32.7355 487.3997,-27.2291 478.663,-33.8564 478.663,-33.8564"/>
</g>
<!-- Video&#45;&gt;VideoStudent -->
<g id="edge26" class="edge">
<title>Video&#45;&gt;VideoStudent</title>
<path fill="none" stroke="#e0dbf4" d="M982.1152,-136.6102C984.4313,-130.4338 986.919,-123.7999 989.2705,-117.5295"/>
<ellipse fill="none" stroke="#e0dbf4" cx="980.6727" cy="-140.4569" rx="4" ry="4"/>
<polygon fill="#e0dbf4" stroke="#e0dbf4" points="989.2978,-117.4564 997.0226,-109.6732 991.0534,-112.7748 992.8091,-108.0931 992.8091,-108.0931 992.8091,-108.0931 991.0534,-112.7748 988.5956,-106.513 989.2978,-117.4564 989.2978,-117.4564"/>
</g>
<!-- ApplicationRecord -->
<g id="node17" class="node">
<title>ApplicationRecord</title>
<ellipse fill="none" stroke="#000000" cx="1446.594" cy="-471" rx="77.1866" ry="18"/>
<text text-anchor="middle" x="1446.594" y="-467.3" font-family="Times,serif" font-size="14.00" fill="#000000">ApplicationRecord</text>
</g>
<!-- Exam&#45;&gt;ExamStudent -->
<g id="edge28" class="edge">
<title>Exam&#45;&gt;ExamStudent</title>
<path fill="none" stroke="#2347e3" d="M710.594,-135.8144C710.594,-130.2775 710.594,-124.4053 710.594,-118.7785"/>
<ellipse fill="none" stroke="#2347e3" cx="710.5941" cy="-139.8314" rx="4" ry="4"/>
<polygon fill="#2347e3" stroke="#2347e3" points="710.5941,-118.4133 715.094,-108.4132 710.5941,-113.4133 710.594,-108.4133 710.594,-108.4133 710.594,-108.4133 710.5941,-113.4133 706.094,-108.4133 710.5941,-118.4133 710.5941,-118.4133"/>
</g>
<!-- ExamQuestion -->
<g id="node22" class="node">
<title>ExamQuestion</title>
<ellipse fill="none" stroke="#000000" cx="436.594" cy="-90" rx="63.8893" ry="18"/>
<text text-anchor="middle" x="436.594" y="-86.3" font-family="Times,serif" font-size="14.00" fill="#000000">ExamQuestion</text>
</g>
<!-- Exam&#45;&gt;ExamQuestion -->
<g id="edge27" class="edge">
<title>Exam&#45;&gt;ExamQuestion</title>
<path fill="none" stroke="#f15bb3" d="M673.6802,-152.3C627.3742,-140.132 547.4948,-119.1418 493.3845,-104.923"/>
<ellipse fill="none" stroke="#f15bb3" cx="677.6619" cy="-153.3463" rx="4" ry="4"/>
<polygon fill="#f15bb3" stroke="#f15bb3" points="493.2663,-104.8921 484.7383,-97.9983 488.4305,-103.6213 483.5947,-102.3505 483.5947,-102.3505 483.5947,-102.3505 488.4305,-103.6213 482.451,-106.7028 493.2663,-104.8921 493.2663,-104.8921"/>
</g>
<!-- Commentary&#45;&gt;Reaction -->
<g id="edge29" class="edge">
<title>Commentary&#45;&gt;Reaction</title>
<path fill="none" stroke="#2f442b" d="M617.5863,-71.7812C642.7865,-60.5811 674.8856,-46.3149 699.6906,-35.2904"/>
<ellipse fill="none" stroke="#2f442b" cx="613.8158" cy="-73.457" rx="4" ry="4"/>
<polygon fill="#2f442b" stroke="#2f442b" points="700.0118,-35.1477 710.9775,-35.1984 704.5808,-33.117 709.1499,-31.0863 709.1499,-31.0863 709.1499,-31.0863 704.5808,-33.117 707.3222,-26.9741 700.0118,-35.1477 700.0118,-35.1477"/>
</g>
<!-- Field&#45;&gt;Subject -->
<g id="edge30" class="edge">
<title>Field&#45;&gt;Subject</title>
<path fill="none" stroke="#66de5e" d="M1086.5595,-358.3354C1075.0634,-348.9295 1061.2594,-337.6353 1049.4222,-327.9503"/>
<ellipse fill="none" stroke="#66de5e" cx="1089.69" cy="-360.8968" rx="4" ry="4"/>
<polygon fill="#66de5e" stroke="#66de5e" points="1049.3335,-327.8778 1044.4435,-318.0625 1045.4637,-324.7116 1041.5939,-321.5454 1041.5939,-321.5454 1041.5939,-321.5454 1045.4637,-324.7116 1038.7443,-325.0282 1049.3335,-327.8778 1049.3335,-327.8778"/>
</g>
<!-- Question -->
<g id="node23" class="node">
<title>Question</title>
<ellipse fill="none" stroke="#000000" cx="344.594" cy="-162" rx="42.4939" ry="18"/>
<text text-anchor="middle" x="344.594" y="-158.3" font-family="Times,serif" font-size="14.00" fill="#000000">Question</text>
</g>
<!-- Question&#45;&gt;ExamQuestionStudent -->
<g id="edge34" class="edge">
<title>Question&#45;&gt;ExamQuestionStudent</title>
<path fill="none" stroke="#fc239f" d="M343.3393,-135.6002C343.8459,-115.7029 347.8392,-89.0241 363.594,-72 378.5724,-55.8148 427.3248,-41.9197 470.8837,-32.279"/>
<ellipse fill="none" stroke="#fc239f" cx="343.3254" cy="-139.6645" rx="4" ry="4"/>
<polygon fill="#fc239f" stroke="#fc239f" points="470.8866,-32.2784 481.6116,-34.5639 475.7737,-31.2219 480.6608,-30.1654 480.6608,-30.1654 480.6608,-30.1654 475.7737,-31.2219 479.7099,-25.767 470.8866,-32.2784 470.8866,-32.2784"/>
</g>
<!-- Question&#45;&gt;LessonQuestion -->
<g id="edge33" class="edge">
<title>Question&#45;&gt;LessonQuestion</title>
<path fill="none" stroke="#a77e1b" d="M300.6061,-150.5663C253.4486,-138.3088 178.3407,-118.7861 126.1961,-105.2323"/>
<ellipse fill="none" stroke="#a77e1b" cx="304.5097" cy="-151.5809" rx="4" ry="4"/>
<polygon fill="#a77e1b" stroke="#a77e1b" points="126.0922,-105.2054 117.5459,-98.3343 121.253,-103.9475 116.4138,-102.6896 116.4138,-102.6896 116.4138,-102.6896 121.253,-103.9475 115.2817,-107.0449 126.0922,-105.2054 126.0922,-105.2054"/>
</g>
<!-- Question&#45;&gt;QuestionAlternative -->
<g id="edge31" class="edge">
<title>Question&#45;&gt;QuestionAlternative</title>
<path fill="none" stroke="#d977db" d="M314.5785,-142.3535C300.6185,-133.2161 283.9317,-122.2937 269.42,-112.7952"/>
<ellipse fill="none" stroke="#d977db" cx="318.1876" cy="-144.7158" rx="4" ry="4"/>
<polygon fill="#d977db" stroke="#d977db" points="269.0763,-112.5703 263.1738,-103.3285 264.8928,-109.832 260.7093,-107.0937 260.7093,-107.0937 260.7093,-107.0937 264.8928,-109.832 258.2448,-110.8588 269.0763,-112.5703 269.0763,-112.5703"/>
</g>
<!-- Question&#45;&gt;Commentary -->
<g id="edge35" class="edge">
<title>Question&#45;&gt;Commentary</title>
<path fill="none" stroke="#c618f7" d="M386.7082,-148.9301C425.8438,-136.7845 484.199,-118.6743 525.8793,-105.7391"/>
<ellipse fill="none" stroke="#c618f7" cx="382.6467" cy="-150.1905" rx="4" ry="4"/>
<polygon fill="#c618f7" stroke="#c618f7" points="526.013,-105.6976 536.8975,-107.0313 530.7883,-104.2156 535.5637,-102.7336 535.5637,-102.7336 535.5637,-102.7336 530.7883,-104.2156 534.2298,-98.4358 526.013,-105.6976 526.013,-105.6976"/>
</g>
<!-- Question&#45;&gt;ExamQuestion -->
<g id="edge32" class="edge">
<title>Question&#45;&gt;ExamQuestion</title>
<path fill="none" stroke="#950a1f" d="M371.5452,-140.9078C382.6676,-132.2033 395.5946,-122.0865 406.9807,-113.1756"/>
<ellipse fill="none" stroke="#950a1f" cx="368.1618" cy="-143.5556" rx="4" ry="4"/>
<polygon fill="#950a1f" stroke="#950a1f" points="407.0764,-113.1008 417.7248,-110.4815 411.0139,-110.0192 414.9514,-106.9377 414.9514,-106.9377 414.9514,-106.9377 411.0139,-110.0192 412.178,-103.3939 407.0764,-113.1008 407.0764,-113.1008"/>
</g>
</g>
</svg>
