<?xml version="1.0" encoding="UTF-8" standalone="no"?>
<!DOCTYPE svg PUBLIC "-//W3C//DTD SVG 1.1//EN"
 "http://www.w3.org/Graphics/SVG/1.1/DTD/svg11.dtd">
<!-- Generated by graphviz version 2.40.1 (20161225.0304)
 -->
<!-- Title: models_diagram Pages: 1 -->
<svg width="1497pt" height="1138pt"
 viewBox="0.00 0.00 1497.00 1138.00" xmlns="http://www.w3.org/2000/svg" xmlns:xlink="http://www.w3.org/1999/xlink">
<g id="graph0" class="graph" transform="scale(1 1) rotate(0) translate(4 1134)">
<title>models_diagram</title>
<polygon fill="transparent" stroke="transparent" points="-4,4 -4,-1134 1493,-1134 1493,4 -4,4"/>
<!-- _diagram_info -->
<g id="node1" class="node">
<title>_diagram_info</title>
<text text-anchor="start" x="152" y="-1108.6" font-family="Times,serif" font-size="13.00" fill="#000000">Models diagram</text>
<text text-anchor="start" x="152" y="-1094.6" font-family="Times,serif" font-size="13.00" fill="#000000">Date: Feb 13 2021 &#45; 16:12</text>
<text text-anchor="start" x="152" y="-1080.6" font-family="Times,serif" font-size="13.00" fill="#000000">Migration version: 20210213190857</text>
<text text-anchor="start" x="152" y="-1066.6" font-family="Times,serif" font-size="13.00" fill="#000000">Generated by RailRoady 1.5.3</text>
<text text-anchor="start" x="152" y="-1052.6" font-family="Times,serif" font-size="13.00" fill="#000000">http://railroady.prestonlee.com</text>
</g>
<!-- Course -->
<g id="node2" class="node">
<title>Course</title>
<path fill="none" stroke="#000000" d="M388,-1038.5C388,-1038.5 624,-1038.5 624,-1038.5 630,-1038.5 636,-1044.5 636,-1050.5 636,-1050.5 636,-1117.5 636,-1117.5 636,-1123.5 630,-1129.5 624,-1129.5 624,-1129.5 388,-1129.5 388,-1129.5 382,-1129.5 376,-1123.5 376,-1117.5 376,-1117.5 376,-1050.5 376,-1050.5 376,-1044.5 382,-1038.5 388,-1038.5"/>
<text text-anchor="middle" x="506" y="-1114.3" font-family="Times,serif" font-size="14.00" fill="#000000">Course</text>
<polyline fill="none" stroke="#000000" points="376,-1106.5 636,-1106.5 "/>
<text text-anchor="start" x="384" y="-1091.3" font-family="Times,serif" font-size="14.00" fill="#000000">id :bigint</text>
<text text-anchor="start" x="384" y="-1076.3" font-family="Times,serif" font-size="14.00" fill="#000000">name :character varying</text>
<text text-anchor="start" x="384" y="-1061.3" font-family="Times,serif" font-size="14.00" fill="#000000">created_at :timestamp(6) without time zone</text>
<text text-anchor="start" x="384" y="-1046.3" font-family="Times,serif" font-size="14.00" fill="#000000">updated_at :timestamp(6) without time zone</text>
</g>
<!-- Field -->
<g id="node14" class="node">
<title>Field</title>
<path fill="none" stroke="#000000" d="M388,-895.5C388,-895.5 624,-895.5 624,-895.5 630,-895.5 636,-901.5 636,-907.5 636,-907.5 636,-989.5 636,-989.5 636,-995.5 630,-1001.5 624,-1001.5 624,-1001.5 388,-1001.5 388,-1001.5 382,-1001.5 376,-995.5 376,-989.5 376,-989.5 376,-907.5 376,-907.5 376,-901.5 382,-895.5 388,-895.5"/>
<text text-anchor="middle" x="506" y="-986.3" font-family="Times,serif" font-size="14.00" fill="#000000">Field</text>
<polyline fill="none" stroke="#000000" points="376,-978.5 636,-978.5 "/>
<text text-anchor="start" x="384" y="-963.3" font-family="Times,serif" font-size="14.00" fill="#000000">id :bigint</text>
<text text-anchor="start" x="384" y="-948.3" font-family="Times,serif" font-size="14.00" fill="#000000">name :character varying</text>
<text text-anchor="start" x="384" y="-933.3" font-family="Times,serif" font-size="14.00" fill="#000000">course_id :bigint</text>
<text text-anchor="start" x="384" y="-918.3" font-family="Times,serif" font-size="14.00" fill="#000000">created_at :timestamp(6) without time zone</text>
<text text-anchor="start" x="384" y="-903.3" font-family="Times,serif" font-size="14.00" fill="#000000">updated_at :timestamp(6) without time zone</text>
</g>
<!-- Course&#45;&gt;Field -->
<g id="edge1" class="edge">
<title>Course&#45;&gt;Field</title>
<path fill="none" stroke="#3c86e2" d="M506,-1030.0632C506,-1024.1039 506,-1017.9957 506,-1011.9337"/>
<ellipse fill="none" stroke="#3c86e2" cx="506" cy="-1034.1259" rx="4" ry="4"/>
<polygon fill="#3c86e2" stroke="#3c86e2" points="506.0001,-1011.8101 510.5,-1001.81 506,-1006.8101 506,-1001.8101 506,-1001.8101 506,-1001.8101 506,-1006.8101 501.5,-1001.8101 506.0001,-1011.8101 506.0001,-1011.8101"/>
</g>
<!-- ExamQuestionStudent -->
<g id="node3" class="node">
<title>ExamQuestionStudent</title>
<path fill="none" stroke="#000000" d="M536,-.5C536,-.5 772,-.5 772,-.5 778,-.5 784,-6.5 784,-12.5 784,-12.5 784,-139.5 784,-139.5 784,-145.5 778,-151.5 772,-151.5 772,-151.5 536,-151.5 536,-151.5 530,-151.5 524,-145.5 524,-139.5 524,-139.5 524,-12.5 524,-12.5 524,-6.5 530,-.5 536,-.5"/>
<text text-anchor="middle" x="654" y="-136.3" font-family="Times,serif" font-size="14.00" fill="#000000">ExamQuestionStudent</text>
<polyline fill="none" stroke="#000000" points="524,-128.5 784,-128.5 "/>
<text text-anchor="start" x="532" y="-113.3" font-family="Times,serif" font-size="14.00" fill="#000000">id :bigint</text>
<text text-anchor="start" x="532" y="-98.3" font-family="Times,serif" font-size="14.00" fill="#000000">is_correct :boolean</text>
<text text-anchor="start" x="532" y="-83.3" font-family="Times,serif" font-size="14.00" fill="#000000">question_id :bigint</text>
<text text-anchor="start" x="532" y="-68.3" font-family="Times,serif" font-size="14.00" fill="#000000">question_alternative_id :bigint</text>
<text text-anchor="start" x="532" y="-53.3" font-family="Times,serif" font-size="14.00" fill="#000000">student_id :bigint</text>
<text text-anchor="start" x="532" y="-38.3" font-family="Times,serif" font-size="14.00" fill="#000000">exam_question_id :bigint</text>
<text text-anchor="start" x="532" y="-23.3" font-family="Times,serif" font-size="14.00" fill="#000000">created_at :timestamp(6) without time zone</text>
<text text-anchor="start" x="532" y="-8.3" font-family="Times,serif" font-size="14.00" fill="#000000">updated_at :timestamp(6) without time zone</text>
</g>
<!-- LessonQuestion -->
<g id="node4" class="node">
<title>LessonQuestion</title>
<path fill="none" stroke="#000000" d="M12,-211C12,-211 248,-211 248,-211 254,-211 260,-217 260,-223 260,-223 260,-305 260,-305 260,-311 254,-317 248,-317 248,-317 12,-317 12,-317 6,-317 0,-311 0,-305 0,-305 0,-223 0,-223 0,-217 6,-211 12,-211"/>
<text text-anchor="middle" x="130" y="-301.8" font-family="Times,serif" font-size="14.00" fill="#000000">LessonQuestion</text>
<polyline fill="none" stroke="#000000" points="0,-294 260,-294 "/>
<text text-anchor="start" x="8" y="-278.8" font-family="Times,serif" font-size="14.00" fill="#000000">id :bigint</text>
<text text-anchor="start" x="8" y="-263.8" font-family="Times,serif" font-size="14.00" fill="#000000">lesson_id :bigint</text>
<text text-anchor="start" x="8" y="-248.8" font-family="Times,serif" font-size="14.00" fill="#000000">question_id :bigint</text>
<text text-anchor="start" x="8" y="-233.8" font-family="Times,serif" font-size="14.00" fill="#000000">created_at :timestamp(6) without time zone</text>
<text text-anchor="start" x="8" y="-218.8" font-family="Times,serif" font-size="14.00" fill="#000000">updated_at :timestamp(6) without time zone</text>
</g>
<!-- Subject -->
<g id="node5" class="node">
<title>Subject</title>
<path fill="none" stroke="#000000" d="M388,-737.5C388,-737.5 624,-737.5 624,-737.5 630,-737.5 636,-743.5 636,-749.5 636,-749.5 636,-846.5 636,-846.5 636,-852.5 630,-858.5 624,-858.5 624,-858.5 388,-858.5 388,-858.5 382,-858.5 376,-852.5 376,-846.5 376,-846.5 376,-749.5 376,-749.5 376,-743.5 382,-737.5 388,-737.5"/>
<text text-anchor="middle" x="506" y="-843.3" font-family="Times,serif" font-size="14.00" fill="#000000">Subject</text>
<polyline fill="none" stroke="#000000" points="376,-835.5 636,-835.5 "/>
<text text-anchor="start" x="384" y="-820.3" font-family="Times,serif" font-size="14.00" fill="#000000">id :bigint</text>
<text text-anchor="start" x="384" y="-805.3" font-family="Times,serif" font-size="14.00" fill="#000000">name :character varying</text>
<text text-anchor="start" x="384" y="-790.3" font-family="Times,serif" font-size="14.00" fill="#000000">field_id :bigint</text>
<text text-anchor="start" x="384" y="-775.3" font-family="Times,serif" font-size="14.00" fill="#000000">created_at :timestamp(6) without time zone</text>
<text text-anchor="start" x="384" y="-760.3" font-family="Times,serif" font-size="14.00" fill="#000000">updated_at :timestamp(6) without time zone</text>
<text text-anchor="start" x="384" y="-745.3" font-family="Times,serif" font-size="14.00" fill="#000000">status :character varying</text>
</g>
<!-- Lesson -->
<g id="node8" class="node">
<title>Lesson</title>
<path fill="none" stroke="#000000" d="M388,-564.5C388,-564.5 624,-564.5 624,-564.5 630,-564.5 636,-570.5 636,-576.5 636,-576.5 636,-688.5 636,-688.5 636,-694.5 630,-700.5 624,-700.5 624,-700.5 388,-700.5 388,-700.5 382,-700.5 376,-694.5 376,-688.5 376,-688.5 376,-576.5 376,-576.5 376,-570.5 382,-564.5 388,-564.5"/>
<text text-anchor="middle" x="506" y="-685.3" font-family="Times,serif" font-size="14.00" fill="#000000">Lesson</text>
<polyline fill="none" stroke="#000000" points="376,-677.5 636,-677.5 "/>
<text text-anchor="start" x="384" y="-662.3" font-family="Times,serif" font-size="14.00" fill="#000000">id :bigint</text>
<text text-anchor="start" x="384" y="-647.3" font-family="Times,serif" font-size="14.00" fill="#000000">name :character varying</text>
<text text-anchor="start" x="384" y="-632.3" font-family="Times,serif" font-size="14.00" fill="#000000">subject_id :bigint</text>
<text text-anchor="start" x="384" y="-617.3" font-family="Times,serif" font-size="14.00" fill="#000000">created_at :timestamp(6) without time zone</text>
<text text-anchor="start" x="384" y="-602.3" font-family="Times,serif" font-size="14.00" fill="#000000">updated_at :timestamp(6) without time zone</text>
<text text-anchor="start" x="384" y="-587.3" font-family="Times,serif" font-size="14.00" fill="#000000">status :character varying</text>
<text text-anchor="start" x="384" y="-572.3" font-family="Times,serif" font-size="14.00" fill="#000000">priority :integer</text>
</g>
<!-- Subject&#45;&gt;Lesson -->
<g id="edge2" class="edge">
<title>Subject&#45;&gt;Lesson</title>
<path fill="none" stroke="#ee1ae9" d="M506,-729.1364C506,-723.12 506,-717.0028 506,-710.9169"/>
<ellipse fill="none" stroke="#ee1ae9" cx="506" cy="-733.3137" rx="4" ry="4"/>
<polygon fill="#ee1ae9" stroke="#ee1ae9" points="506.0001,-710.7277 510.5,-700.7277 506,-705.7277 506,-700.7277 506,-700.7277 506,-700.7277 506,-705.7277 501.5,-700.7278 506.0001,-710.7277 506.0001,-710.7277"/>
</g>
<!-- Student -->
<g id="node6" class="node">
<title>Student</title>
<path fill="none" stroke="#000000" d="M1241,-376.5C1241,-376.5 1477,-376.5 1477,-376.5 1483,-376.5 1489,-382.5 1489,-388.5 1489,-388.5 1489,-515.5 1489,-515.5 1489,-521.5 1483,-527.5 1477,-527.5 1477,-527.5 1241,-527.5 1241,-527.5 1235,-527.5 1229,-521.5 1229,-515.5 1229,-515.5 1229,-388.5 1229,-388.5 1229,-382.5 1235,-376.5 1241,-376.5"/>
<text text-anchor="middle" x="1359" y="-512.3" font-family="Times,serif" font-size="14.00" fill="#000000">Student</text>
<polyline fill="none" stroke="#000000" points="1229,-504.5 1489,-504.5 "/>
<text text-anchor="start" x="1237" y="-489.3" font-family="Times,serif" font-size="14.00" fill="#000000">id :bigint</text>
<text text-anchor="start" x="1237" y="-474.3" font-family="Times,serif" font-size="14.00" fill="#000000">email :character varying</text>
<text text-anchor="start" x="1237" y="-459.3" font-family="Times,serif" font-size="14.00" fill="#000000">password_digest :character varying</text>
<text text-anchor="start" x="1237" y="-444.3" font-family="Times,serif" font-size="14.00" fill="#000000">created_at :timestamp(6) without time zone</text>
<text text-anchor="start" x="1237" y="-429.3" font-family="Times,serif" font-size="14.00" fill="#000000">updated_at :timestamp(6) without time zone</text>
<text text-anchor="start" x="1237" y="-414.3" font-family="Times,serif" font-size="14.00" fill="#000000">name :character varying</text>
<text text-anchor="start" x="1237" y="-399.3" font-family="Times,serif" font-size="14.00" fill="#000000">gender :character varying</text>
<text text-anchor="start" x="1237" y="-384.3" font-family="Times,serif" font-size="14.00" fill="#000000">status :character varying</text>
</g>
<!-- Student&#45;&gt;ExamQuestionStudent -->
<g id="edge4" class="edge">
<title>Student&#45;&gt;ExamQuestionStudent</title>
<path fill="none" stroke="#092df5" d="M1411.9188,-369.1067C1441.4061,-311.4273 1464.0156,-236.4661 1419,-188 1382.0746,-148.2442 985.4736,-161.197 932,-152 886.6147,-144.1941 837.9296,-132.1774 794.184,-119.9865"/>
<ellipse fill="none" stroke="#092df5" cx="1409.9551" cy="-372.8642" rx="4" ry="4"/>
<polygon fill="#092df5" stroke="#092df5" points="793.9732,-119.9273 785.5654,-112.8874 789.16,-118.5733 784.3468,-117.2193 784.3468,-117.2193 784.3468,-117.2193 789.16,-118.5733 783.1282,-121.5512 793.9732,-119.9273 793.9732,-119.9273"/>
</g>
<!-- ExamStudent -->
<g id="node7" class="node">
<title>ExamStudent</title>
<path fill="none" stroke="#000000" d="M1162,-196C1162,-196 1398,-196 1398,-196 1404,-196 1410,-202 1410,-208 1410,-208 1410,-320 1410,-320 1410,-326 1404,-332 1398,-332 1398,-332 1162,-332 1162,-332 1156,-332 1150,-326 1150,-320 1150,-320 1150,-208 1150,-208 1150,-202 1156,-196 1162,-196"/>
<text text-anchor="middle" x="1280" y="-316.8" font-family="Times,serif" font-size="14.00" fill="#000000">ExamStudent</text>
<polyline fill="none" stroke="#000000" points="1150,-309 1410,-309 "/>
<text text-anchor="start" x="1158" y="-293.8" font-family="Times,serif" font-size="14.00" fill="#000000">id :bigint</text>
<text text-anchor="start" x="1158" y="-278.8" font-family="Times,serif" font-size="14.00" fill="#000000">progress :double precision</text>
<text text-anchor="start" x="1158" y="-263.8" font-family="Times,serif" font-size="14.00" fill="#000000">number_of_correct_answers :integer</text>
<text text-anchor="start" x="1158" y="-248.8" font-family="Times,serif" font-size="14.00" fill="#000000">student_id :bigint</text>
<text text-anchor="start" x="1158" y="-233.8" font-family="Times,serif" font-size="14.00" fill="#000000">exam_id :bigint</text>
<text text-anchor="start" x="1158" y="-218.8" font-family="Times,serif" font-size="14.00" fill="#000000">created_at :timestamp(6) without time zone</text>
<text text-anchor="start" x="1158" y="-203.8" font-family="Times,serif" font-size="14.00" fill="#000000">updated_at :timestamp(6) without time zone</text>
</g>
<!-- Student&#45;&gt;ExamStudent -->
<g id="edge3" class="edge">
<title>Student&#45;&gt;ExamStudent</title>
<path fill="none" stroke="#ec18c0" d="M1324.0281,-368.7758C1320.2166,-359.7053 1316.3481,-350.4993 1312.5671,-341.5014"/>
<ellipse fill="none" stroke="#ec18c0" cx="1325.6595" cy="-372.6582" rx="4" ry="4"/>
<polygon fill="#ec18c0" stroke="#ec18c0" points="1312.5386,-341.4336 1312.8132,-330.4712 1310.6016,-336.824 1308.6646,-332.2145 1308.6646,-332.2145 1308.6646,-332.2145 1310.6016,-336.824 1304.516,-333.9578 1312.5386,-341.4336 1312.5386,-341.4336"/>
</g>
<!-- Reaction -->
<g id="node9" class="node">
<title>Reaction</title>
<path fill="none" stroke="#000000" d="M953,-15.5C953,-15.5 1189,-15.5 1189,-15.5 1195,-15.5 1201,-21.5 1201,-27.5 1201,-27.5 1201,-124.5 1201,-124.5 1201,-130.5 1195,-136.5 1189,-136.5 1189,-136.5 953,-136.5 953,-136.5 947,-136.5 941,-130.5 941,-124.5 941,-124.5 941,-27.5 941,-27.5 941,-21.5 947,-15.5 953,-15.5"/>
<text text-anchor="middle" x="1071" y="-121.3" font-family="Times,serif" font-size="14.00" fill="#000000">Reaction</text>
<polyline fill="none" stroke="#000000" points="941,-113.5 1201,-113.5 "/>
<text text-anchor="start" x="949" y="-98.3" font-family="Times,serif" font-size="14.00" fill="#000000">id :bigint</text>
<text text-anchor="start" x="949" y="-83.3" font-family="Times,serif" font-size="14.00" fill="#000000">reaction_type :integer</text>
<text text-anchor="start" x="949" y="-68.3" font-family="Times,serif" font-size="14.00" fill="#000000">student_id :bigint</text>
<text text-anchor="start" x="949" y="-53.3" font-family="Times,serif" font-size="14.00" fill="#000000">commentary_id :bigint</text>
<text text-anchor="start" x="949" y="-38.3" font-family="Times,serif" font-size="14.00" fill="#000000">created_at :timestamp(6) without time zone</text>
<text text-anchor="start" x="949" y="-23.3" font-family="Times,serif" font-size="14.00" fill="#000000">updated_at :timestamp(6) without time zone</text>
</g>
<!-- Student&#45;&gt;Reaction -->
<g id="edge5" class="edge">
<title>Student&#45;&gt;Reaction</title>
<path fill="none" stroke="#ea63d3" d="M1437.4893,-369.4149C1443.3175,-360.0072 1448.3395,-350.1384 1452,-340 1474.9417,-276.4592 1492.4762,-242.0873 1452,-188 1422.4967,-148.5754 1307.2947,-118.2766 1211.2171,-99.1942"/>
<ellipse fill="none" stroke="#ea63d3" cx="1435.284" cy="-372.8227" rx="4" ry="4"/>
<polygon fill="#ea63d3" stroke="#ea63d3" points="1211.2034,-99.1916 1202.2558,-92.8519 1206.2968,-98.2297 1201.3902,-97.2679 1201.3902,-97.2679 1201.3902,-97.2679 1206.2968,-98.2297 1200.5245,-101.6838 1211.2034,-99.1916 1211.2034,-99.1916"/>
</g>
<!-- Commentary -->
<g id="node13" class="node">
<title>Commentary</title>
<path fill="none" stroke="#000000" d="M884,-188.5C884,-188.5 1120,-188.5 1120,-188.5 1126,-188.5 1132,-194.5 1132,-200.5 1132,-200.5 1132,-327.5 1132,-327.5 1132,-333.5 1126,-339.5 1120,-339.5 1120,-339.5 884,-339.5 884,-339.5 878,-339.5 872,-333.5 872,-327.5 872,-327.5 872,-200.5 872,-200.5 872,-194.5 878,-188.5 884,-188.5"/>
<text text-anchor="middle" x="1002" y="-324.3" font-family="Times,serif" font-size="14.00" fill="#000000">Commentary</text>
<polyline fill="none" stroke="#000000" points="872,-316.5 1132,-316.5 "/>
<text text-anchor="start" x="880" y="-301.3" font-family="Times,serif" font-size="14.00" fill="#000000">id :bigint</text>
<text text-anchor="start" x="880" y="-286.3" font-family="Times,serif" font-size="14.00" fill="#000000">commentary :character varying</text>
<text text-anchor="start" x="880" y="-271.3" font-family="Times,serif" font-size="14.00" fill="#000000">total_likes :integer</text>
<text text-anchor="start" x="880" y="-256.3" font-family="Times,serif" font-size="14.00" fill="#000000">total_deslikes :integer</text>
<text text-anchor="start" x="880" y="-241.3" font-family="Times,serif" font-size="14.00" fill="#000000">student_id :bigint</text>
<text text-anchor="start" x="880" y="-226.3" font-family="Times,serif" font-size="14.00" fill="#000000">question_id :bigint</text>
<text text-anchor="start" x="880" y="-211.3" font-family="Times,serif" font-size="14.00" fill="#000000">created_at :timestamp(6) without time zone</text>
<text text-anchor="start" x="880" y="-196.3" font-family="Times,serif" font-size="14.00" fill="#000000">updated_at :timestamp(6) without time zone</text>
</g>
<!-- Student&#45;&gt;Commentary -->
<g id="edge6" class="edge">
<title>Student&#45;&gt;Commentary</title>
<path fill="none" stroke="#6d43af" d="M1221.5868,-382.083C1194.7954,-368.2595 1166.9686,-353.7673 1141,-340 1140.9089,-339.9517 1140.8177,-339.9034 1140.7265,-339.855"/>
<ellipse fill="none" stroke="#6d43af" cx="1225.1869" cy="-383.939" rx="4" ry="4"/>
<polygon fill="#6d43af" stroke="#6d43af" points="1140.9942,-339.9974 1134.2785,-331.3285 1136.5798,-337.6495 1132.1653,-335.3016 1132.1653,-335.3016 1132.1653,-335.3016 1136.5798,-337.6495 1130.0522,-339.2746 1140.9942,-339.9974 1140.9942,-339.9974"/>
</g>
<!-- Lesson&#45;&gt;LessonQuestion -->
<g id="edge8" class="edge">
<title>Lesson&#45;&gt;LessonQuestion</title>
<path fill="none" stroke="#376380" d="M368.8129,-572.1209C346.8922,-559.2812 325.4021,-544.5301 307,-528 242.6078,-470.1582 190.6733,-384.0839 160.1053,-326.0908"/>
<ellipse fill="none" stroke="#376380" cx="372.4746" cy="-574.2275" rx="4" ry="4"/>
<polygon fill="#376380" stroke="#376380" points="160.0062,-325.9007 159.3746,-314.953 157.6952,-321.4668 155.3841,-317.0329 155.3841,-317.0329 155.3841,-317.0329 157.6952,-321.4668 151.3936,-319.1129 160.0062,-325.9007 160.0062,-325.9007"/>
</g>
<!-- Exam -->
<g id="node12" class="node">
<title>Exam</title>
<path fill="none" stroke="#000000" d="M606,-399C606,-399 842,-399 842,-399 848,-399 854,-405 854,-411 854,-411 854,-493 854,-493 854,-499 848,-505 842,-505 842,-505 606,-505 606,-505 600,-505 594,-499 594,-493 594,-493 594,-411 594,-411 594,-405 600,-399 606,-399"/>
<text text-anchor="middle" x="724" y="-489.8" font-family="Times,serif" font-size="14.00" fill="#000000">Exam</text>
<polyline fill="none" stroke="#000000" points="594,-482 854,-482 "/>
<text text-anchor="start" x="602" y="-466.8" font-family="Times,serif" font-size="14.00" fill="#000000">id :bigint</text>
<text text-anchor="start" x="602" y="-451.8" font-family="Times,serif" font-size="14.00" fill="#000000">exam_type :integer</text>
<text text-anchor="start" x="602" y="-436.8" font-family="Times,serif" font-size="14.00" fill="#000000">lesson_id :bigint</text>
<text text-anchor="start" x="602" y="-421.8" font-family="Times,serif" font-size="14.00" fill="#000000">created_at :timestamp(6) without time zone</text>
<text text-anchor="start" x="602" y="-406.8" font-family="Times,serif" font-size="14.00" fill="#000000">updated_at :timestamp(6) without time zone</text>
</g>
<!-- Lesson&#45;&gt;Exam -->
<g id="edge7" class="edge">
<title>Lesson&#45;&gt;Exam</title>
<path fill="none" stroke="#ac2412" d="M594.8256,-558.954C613.8693,-543.1862 633.7643,-526.7135 652.0746,-511.5529"/>
<ellipse fill="none" stroke="#ac2412" cx="591.4974" cy="-561.7097" rx="4" ry="4"/>
<polygon fill="#ac2412" stroke="#ac2412" points="652.1154,-511.5192 662.6877,-508.6078 655.9666,-508.3304 659.8178,-505.1416 659.8178,-505.1416 659.8178,-505.1416 655.9666,-508.3304 656.948,-501.6755 652.1154,-511.5192 652.1154,-511.5192"/>
</g>
<!-- QuestionAlternative -->
<g id="node10" class="node">
<title>QuestionAlternative</title>
<path fill="none" stroke="#000000" d="M328,-196C328,-196 564,-196 564,-196 570,-196 576,-202 576,-208 576,-208 576,-320 576,-320 576,-326 570,-332 564,-332 564,-332 328,-332 328,-332 322,-332 316,-326 316,-320 316,-320 316,-208 316,-208 316,-202 322,-196 328,-196"/>
<text text-anchor="middle" x="446" y="-316.8" font-family="Times,serif" font-size="14.00" fill="#000000">QuestionAlternative</text>
<polyline fill="none" stroke="#000000" points="316,-309 576,-309 "/>
<text text-anchor="start" x="324" y="-293.8" font-family="Times,serif" font-size="14.00" fill="#000000">id :bigint</text>
<text text-anchor="start" x="324" y="-278.8" font-family="Times,serif" font-size="14.00" fill="#000000">question_id :bigint</text>
<text text-anchor="start" x="324" y="-263.8" font-family="Times,serif" font-size="14.00" fill="#000000">correct :boolean</text>
<text text-anchor="start" x="324" y="-248.8" font-family="Times,serif" font-size="14.00" fill="#000000">description :character varying</text>
<text text-anchor="start" x="324" y="-233.8" font-family="Times,serif" font-size="14.00" fill="#000000">created_at :timestamp(6) without time zone</text>
<text text-anchor="start" x="324" y="-218.8" font-family="Times,serif" font-size="14.00" fill="#000000">updated_at :timestamp(6) without time zone</text>
<text text-anchor="start" x="324" y="-203.8" font-family="Times,serif" font-size="14.00" fill="#000000">letter :character varying</text>
</g>
<!-- QuestionAlternative&#45;&gt;ExamQuestionStudent -->
<g id="edge9" class="edge">
<title>QuestionAlternative&#45;&gt;ExamQuestionStudent</title>
<path fill="none" stroke="#4ed906" d="M527.4021,-190.425C538.9903,-179.9511 550.9718,-169.1216 562.7328,-158.4915"/>
<ellipse fill="none" stroke="#4ed906" cx="524.3544" cy="-193.1797" rx="4" ry="4"/>
<polygon fill="#4ed906" stroke="#4ed906" points="563.0045,-158.2459 573.4407,-154.8789 566.7139,-154.8932 570.4233,-151.5405 570.4233,-151.5405 570.4233,-151.5405 566.7139,-154.8932 567.4058,-148.2021 563.0045,-158.2459 563.0045,-158.2459"/>
</g>
<!-- ApplicationRecord -->
<g id="node11" class="node">
<title>ApplicationRecord</title>
<ellipse fill="none" stroke="#000000" cx="731" cy="-1084" rx="77.1866" ry="18"/>
<text text-anchor="middle" x="731" y="-1080.3" font-family="Times,serif" font-size="14.00" fill="#000000">ApplicationRecord</text>
</g>
<!-- Exam&#45;&gt;ExamStudent -->
<g id="edge11" class="edge">
<title>Exam&#45;&gt;ExamStudent</title>
<path fill="none" stroke="#c87e4b" d="M862.2378,-423.5892C944.7374,-404.5039 1050.6817,-376.2182 1141,-340 1144.0633,-338.7716 1147.1448,-337.4914 1150.2362,-336.1669"/>
<ellipse fill="none" stroke="#c87e4b" cx="858.2268" cy="-424.5112" rx="4" ry="4"/>
<polygon fill="#c87e4b" stroke="#c87e4b" points="1150.3812,-336.103 1161.3468,-336.1855 1154.9562,-334.0855 1159.5311,-332.0681 1159.5311,-332.0681 1159.5311,-332.0681 1154.9562,-334.0855 1157.7154,-327.9506 1150.3812,-336.103 1150.3812,-336.103"/>
</g>
<!-- ExamQuestion -->
<g id="node15" class="node">
<title>ExamQuestion</title>
<path fill="none" stroke="#000000" d="M606,-211C606,-211 842,-211 842,-211 848,-211 854,-217 854,-223 854,-223 854,-305 854,-305 854,-311 848,-317 842,-317 842,-317 606,-317 606,-317 600,-317 594,-311 594,-305 594,-305 594,-223 594,-223 594,-217 600,-211 606,-211"/>
<text text-anchor="middle" x="724" y="-301.8" font-family="Times,serif" font-size="14.00" fill="#000000">ExamQuestion</text>
<polyline fill="none" stroke="#000000" points="594,-294 854,-294 "/>
<text text-anchor="start" x="602" y="-278.8" font-family="Times,serif" font-size="14.00" fill="#000000">id :bigint</text>
<text text-anchor="start" x="602" y="-263.8" font-family="Times,serif" font-size="14.00" fill="#000000">exam_id :bigint</text>
<text text-anchor="start" x="602" y="-248.8" font-family="Times,serif" font-size="14.00" fill="#000000">question_id :bigint</text>
<text text-anchor="start" x="602" y="-233.8" font-family="Times,serif" font-size="14.00" fill="#000000">created_at :timestamp(6) without time zone</text>
<text text-anchor="start" x="602" y="-218.8" font-family="Times,serif" font-size="14.00" fill="#000000">updated_at :timestamp(6) without time zone</text>
</g>
<!-- Exam&#45;&gt;ExamQuestion -->
<g id="edge10" class="edge">
<title>Exam&#45;&gt;ExamQuestion</title>
<path fill="none" stroke="#63d31d" d="M724,-390.6521C724,-370.4047 724,-347.8494 724,-327.4483"/>
<ellipse fill="none" stroke="#63d31d" cx="724" cy="-394.8806" rx="4" ry="4"/>
<polygon fill="#63d31d" stroke="#63d31d" points="724.0001,-327.314 728.5,-317.3139 724,-322.314 724,-317.314 724,-317.314 724,-317.314 724,-322.314 719.5,-317.314 724.0001,-327.314 724.0001,-327.314"/>
</g>
<!-- Commentary&#45;&gt;Reaction -->
<g id="edge12" class="edge">
<title>Commentary&#45;&gt;Reaction</title>
<path fill="none" stroke="#4fb439" d="M1032.5859,-180.6645C1036.7775,-169.2439 1041.0471,-157.6107 1045.1431,-146.4508"/>
<ellipse fill="none" stroke="#4fb439" cx="1031.1449" cy="-184.5908" rx="4" ry="4"/>
<polygon fill="#4fb439" stroke="#4fb439" points="1045.2459,-146.1703 1052.9159,-138.3331 1046.9687,-141.4765 1048.6915,-136.7826 1048.6915,-136.7826 1048.6915,-136.7826 1046.9687,-141.4765 1044.467,-135.2321 1045.2459,-146.1703 1045.2459,-146.1703"/>
</g>
<!-- Field&#45;&gt;Subject -->
<g id="edge13" class="edge">
<title>Field&#45;&gt;Subject</title>
<path fill="none" stroke="#df6948" d="M506,-887.2187C506,-881.1572 506,-874.9704 506,-868.8231"/>
<ellipse fill="none" stroke="#df6948" cx="506" cy="-891.4393" rx="4" ry="4"/>
<polygon fill="#df6948" stroke="#df6948" points="506.0001,-868.5441 510.5,-858.544 506,-863.5441 506,-858.5441 506,-858.5441 506,-858.5441 506,-863.5441 501.5,-858.5441 506.0001,-868.5441 506.0001,-868.5441"/>
</g>
<!-- ExamQuestion&#45;&gt;ExamQuestionStudent -->
<g id="edge14" class="edge">
<title>ExamQuestion&#45;&gt;ExamQuestionStudent</title>
<path fill="none" stroke="#1d9b4d" d="M701.2858,-202.9962C696.3453,-189.7275 691.0308,-175.4541 685.8116,-161.4368"/>
<ellipse fill="none" stroke="#1d9b4d" cx="702.8257" cy="-207.132" rx="4" ry="4"/>
<polygon fill="#1d9b4d" stroke="#1d9b4d" points="685.7087,-161.1604 686.4365,-150.2187 683.964,-156.4747 682.2193,-151.789 682.2193,-151.789 682.2193,-151.789 683.964,-156.4747 678.0021,-153.3592 685.7087,-161.1604 685.7087,-161.1604"/>
</g>
<!-- Question -->
<g id="node16" class="node">
<title>Question</title>
<path fill="none" stroke="#000000" d="M328,-399C328,-399 564,-399 564,-399 570,-399 576,-405 576,-411 576,-411 576,-493 576,-493 576,-499 570,-505 564,-505 564,-505 328,-505 328,-505 322,-505 316,-499 316,-493 316,-493 316,-411 316,-411 316,-405 322,-399 328,-399"/>
<text text-anchor="middle" x="446" y="-489.8" font-family="Times,serif" font-size="14.00" fill="#000000">Question</text>
<polyline fill="none" stroke="#000000" points="316,-482 576,-482 "/>
<text text-anchor="start" x="324" y="-466.8" font-family="Times,serif" font-size="14.00" fill="#000000">id :bigint</text>
<text text-anchor="start" x="324" y="-451.8" font-family="Times,serif" font-size="14.00" fill="#000000">statement :character varying</text>
<text text-anchor="start" x="324" y="-436.8" font-family="Times,serif" font-size="14.00" fill="#000000">created_at :timestamp(6) without time zone</text>
<text text-anchor="start" x="324" y="-421.8" font-family="Times,serif" font-size="14.00" fill="#000000">updated_at :timestamp(6) without time zone</text>
<text text-anchor="start" x="324" y="-406.8" font-family="Times,serif" font-size="14.00" fill="#000000">level :integer</text>
</g>
<!-- Question&#45;&gt;ExamQuestionStudent -->
<g id="edge18" class="edge">
<title>Question&#45;&gt;ExamQuestionStudent</title>
<path fill="none" stroke="#713eed" d="M349.453,-393.432C332.2761,-378.299 316.7687,-360.4164 307,-340 277.8423,-279.0608 267.2386,-242.6149 307,-188 332.3823,-153.1358 429.0381,-123.6574 513.9108,-103.7076"/>
<ellipse fill="none" stroke="#713eed" cx="352.8048" cy="-396.2882" rx="4" ry="4"/>
<polygon fill="#713eed" stroke="#713eed" points="513.9253,-103.7043 524.6837,-105.8272 518.7959,-102.574 523.6664,-101.4437 523.6664,-101.4437 523.6664,-101.4437 518.7959,-102.574 522.6492,-97.0602 513.9253,-103.7043 513.9253,-103.7043"/>
</g>
<!-- Question&#45;&gt;LessonQuestion -->
<g id="edge17" class="edge">
<title>Question&#45;&gt;LessonQuestion</title>
<path fill="none" stroke="#509b7f" d="M349.5898,-394.642C311.0506,-371.7136 266.7153,-345.3369 228.0174,-322.3142"/>
<ellipse fill="none" stroke="#509b7f" cx="353.2765" cy="-396.8354" rx="4" ry="4"/>
<polygon fill="#509b7f" stroke="#509b7f" points="227.933,-322.264 221.6398,-313.2837 223.636,-319.7075 219.3389,-317.151 219.3389,-317.151 219.3389,-317.151 223.636,-319.7075 217.0381,-321.0184 227.933,-322.264 227.933,-322.264"/>
</g>
<!-- Question&#45;&gt;QuestionAlternative -->
<g id="edge15" class="edge">
<title>Question&#45;&gt;QuestionAlternative</title>
<path fill="none" stroke="#fd39ed" d="M446,-390.7075C446,-375.344 446,-358.6489 446,-342.5727"/>
<ellipse fill="none" stroke="#fd39ed" cx="446" cy="-394.8806" rx="4" ry="4"/>
<polygon fill="#fd39ed" stroke="#fd39ed" points="446.0001,-342.1179 450.5,-332.1178 446,-337.1179 446,-332.1179 446,-332.1179 446,-332.1179 446,-337.1179 441.5,-332.1179 446.0001,-342.1179 446.0001,-342.1179"/>
</g>
<!-- Question&#45;&gt;Commentary -->
<g id="edge19" class="edge">
<title>Question&#45;&gt;Commentary</title>
<path fill="none" stroke="#b9a729" d="M538.6136,-395.281C553.7099,-387.8319 569.4915,-381.046 585,-376 700.35,-338.4685 742.3075,-376.4361 861.7735,-340.1347"/>
<ellipse fill="none" stroke="#b9a729" cx="534.834" cy="-397.1861" rx="4" ry="4"/>
<polygon fill="#b9a729" stroke="#b9a729" points="862.1159,-340.0268 873.0064,-341.3107 866.8844,-338.5229 871.6529,-337.019 871.6529,-337.019 871.6529,-337.019 866.8844,-338.5229 870.2994,-332.7274 862.1159,-340.0268 862.1159,-340.0268"/>
</g>
<!-- Question&#45;&gt;ExamQuestion -->
<g id="edge16" class="edge">
<title>Question&#45;&gt;ExamQuestion</title>
<path fill="none" stroke="#0f18c8" d="M531.2546,-394.3458C564.7075,-371.723 603.0696,-345.7803 636.7165,-323.0262"/>
<ellipse fill="none" stroke="#0f18c8" cx="527.8624" cy="-396.6398" rx="4" ry="4"/>
<polygon fill="#0f18c8" stroke="#0f18c8" points="636.8797,-322.9159 647.6842,-321.0416 641.0215,-320.115 645.1634,-317.314 645.1634,-317.314 645.1634,-317.314 641.0215,-320.115 642.6425,-313.5863 636.8797,-322.9159 636.8797,-322.9159"/>
</g>
</g>
</svg>
