<?xml version="1.0" encoding="UTF-8" standalone="no"?>
<!DOCTYPE svg PUBLIC "-//W3C//DTD SVG 1.1//EN"
 "http://www.w3.org/Graphics/SVG/1.1/DTD/svg11.dtd">
<!-- Generated by graphviz version 2.40.1 (20161225.0304)
 -->
<!-- Title: models_diagram Pages: 1 -->
<svg width="841pt" height="518pt"
 viewBox="0.00 0.00 840.92 518.00" xmlns="http://www.w3.org/2000/svg" xmlns:xlink="http://www.w3.org/1999/xlink">
<g id="graph0" class="graph" transform="scale(1 1) rotate(0) translate(4 514)">
<title>models_diagram</title>
<polygon fill="transparent" stroke="transparent" points="-4,4 -4,-514 836.9233,-514 836.9233,4 -4,4"/>
<!-- _diagram_info -->
<g id="node1" class="node">
<title>_diagram_info</title>
<text text-anchor="start" x="8" y="-495.6" font-family="Times,serif" font-size="13.00" fill="#000000">Models diagram</text>
<text text-anchor="start" x="8" y="-481.6" font-family="Times,serif" font-size="13.00" fill="#000000">Date: Feb 13 2021 &#45; 16:12</text>
<text text-anchor="start" x="8" y="-467.6" font-family="Times,serif" font-size="13.00" fill="#000000">Migration version: 20210213190857</text>
<text text-anchor="start" x="8" y="-453.6" font-family="Times,serif" font-size="13.00" fill="#000000">Generated by RailRoady 1.5.3</text>
<text text-anchor="start" x="8" y="-439.6" font-family="Times,serif" font-size="13.00" fill="#000000">http://railroady.prestonlee.com</text>
</g>
<!-- Course -->
<g id="node2" class="node">
<title>Course</title>
<ellipse fill="none" stroke="#000000" cx="268" cy="-471" rx="35.9954" ry="18"/>
<text text-anchor="middle" x="268" y="-467.3" font-family="Times,serif" font-size="14.00" fill="#000000">Course</text>
</g>
<!-- Field -->
<g id="node14" class="node">
<title>Field</title>
<ellipse fill="none" stroke="#000000" cx="268" cy="-378" rx="28.6953" ry="18"/>
<text text-anchor="middle" x="268" y="-374.3" font-family="Times,serif" font-size="14.00" fill="#000000">Field</text>
</g>
<!-- Course&#45;&gt;Field -->
<g id="edge1" class="edge">
<title>Course&#45;&gt;Field</title>
<path fill="none" stroke="#a86f62" d="M268,-444.4432C268,-432.4479 268,-418.268 268,-406.0949"/>
<ellipse fill="none" stroke="#a86f62" cx="268" cy="-448.6262" rx="4" ry="4"/>
<polygon fill="#a86f62" stroke="#a86f62" points="268.0001,-406.0192 272.5,-396.0191 268,-401.0192 268,-396.0192 268,-396.0192 268,-396.0192 268,-401.0192 263.5,-396.0192 268.0001,-406.0192 268.0001,-406.0192"/>
</g>
<!-- ExamQuestionStudent -->
<g id="node3" class="node">
<title>ExamQuestionStudent</title>
<ellipse fill="none" stroke="#000000" cx="409" cy="-18" rx="90.1842" ry="18"/>
<text text-anchor="middle" x="409" y="-14.3" font-family="Times,serif" font-size="14.00" fill="#000000">ExamQuestionStudent</text>
</g>
<!-- LessonQuestion -->
<g id="node4" class="node">
<title>LessonQuestion</title>
<ellipse fill="none" stroke="#000000" cx="83" cy="-90" rx="67.6881" ry="18"/>
<text text-anchor="middle" x="83" y="-86.3" font-family="Times,serif" font-size="14.00" fill="#000000">LessonQuestion</text>
</g>
<!-- Subject -->
<g id="node5" class="node">
<title>Subject</title>
<ellipse fill="none" stroke="#000000" cx="268" cy="-306" rx="37.0935" ry="18"/>
<text text-anchor="middle" x="268" y="-302.3" font-family="Times,serif" font-size="14.00" fill="#000000">Subject</text>
</g>
<!-- Lesson -->
<g id="node8" class="node">
<title>Lesson</title>
<ellipse fill="none" stroke="#000000" cx="268" cy="-234" rx="35.9954" ry="18"/>
<text text-anchor="middle" x="268" y="-230.3" font-family="Times,serif" font-size="14.00" fill="#000000">Lesson</text>
</g>
<!-- Subject&#45;&gt;Lesson -->
<g id="edge2" class="edge">
<title>Subject&#45;&gt;Lesson</title>
<path fill="none" stroke="#dd77f2" d="M268,-279.8144C268,-274.2775 268,-268.4053 268,-262.7785"/>
<ellipse fill="none" stroke="#dd77f2" cx="268" cy="-283.8314" rx="4" ry="4"/>
<polygon fill="#dd77f2" stroke="#dd77f2" points="268.0001,-262.4133 272.5,-252.4132 268,-257.4133 268,-252.4133 268,-252.4133 268,-252.4133 268,-257.4133 263.5,-252.4133 268.0001,-262.4133 268.0001,-262.4133"/>
</g>
<!-- Student -->
<g id="node6" class="node">
<title>Student</title>
<ellipse fill="none" stroke="#000000" cx="770" cy="-162" rx="37.8943" ry="18"/>
<text text-anchor="middle" x="770" y="-158.3" font-family="Times,serif" font-size="14.00" fill="#000000">Student</text>
</g>
<!-- Student&#45;&gt;ExamQuestionStudent -->
<g id="edge4" class="edge">
<title>Student&#45;&gt;ExamQuestionStudent</title>
<path fill="none" stroke="#6847b2" d="M787.0012,-138.1065C798.8651,-118.2483 809.9709,-90.3674 794,-72 784.3638,-60.9179 609.8366,-39.9407 499.107,-27.6482"/>
<ellipse fill="none" stroke="#6847b2" cx="784.7757" cy="-141.642" rx="4" ry="4"/>
<polygon fill="#6847b2" stroke="#6847b2" points="498.8695,-27.622 489.4247,-22.0501 493.8998,-27.0724 488.9301,-26.5228 488.9301,-26.5228 488.9301,-26.5228 493.8998,-27.0724 488.4355,-30.9956 498.8695,-27.622 498.8695,-27.622"/>
</g>
<!-- ExamStudent -->
<g id="node7" class="node">
<title>ExamStudent</title>
<ellipse fill="none" stroke="#000000" cx="727" cy="-90" rx="58.4896" ry="18"/>
<text text-anchor="middle" x="727" y="-86.3" font-family="Times,serif" font-size="14.00" fill="#000000">ExamStudent</text>
</g>
<!-- Student&#45;&gt;ExamStudent -->
<g id="edge3" class="edge">
<title>Student&#45;&gt;ExamStudent</title>
<path fill="none" stroke="#95b4fe" d="M755.322,-137.423C751.3249,-130.73 746.9767,-123.4494 742.9145,-116.6475"/>
<ellipse fill="none" stroke="#95b4fe" cx="757.5399" cy="-141.1366" rx="4" ry="4"/>
<polygon fill="#95b4fe" stroke="#95b4fe" points="742.7394,-116.3543 741.4754,-105.4615 740.1757,-112.0616 737.612,-107.7689 737.612,-107.7689 737.612,-107.7689 740.1757,-112.0616 733.7485,-110.0762 742.7394,-116.3543 742.7394,-116.3543"/>
</g>
<!-- Reaction -->
<g id="node9" class="node">
<title>Reaction</title>
<ellipse fill="none" stroke="#000000" cx="636" cy="-18" rx="42.4939" ry="18"/>
<text text-anchor="middle" x="636" y="-14.3" font-family="Times,serif" font-size="14.00" fill="#000000">Reaction</text>
</g>
<!-- Student&#45;&gt;Reaction -->
<g id="edge5" class="edge">
<title>Student&#45;&gt;Reaction</title>
<path fill="none" stroke="#d77299" d="M797.8091,-141.6043C819.8376,-122.934 844.2645,-94.8223 827,-72 810.0303,-49.5675 737.0301,-33.7855 686.3624,-25.2945"/>
<ellipse fill="none" stroke="#d77299" cx="794.4956" cy="-144.312" rx="4" ry="4"/>
<polygon fill="#d77299" stroke="#d77299" points="686.1038,-25.2525 676.958,-19.2023 681.1689,-24.448 676.234,-23.6436 676.234,-23.6436 676.234,-23.6436 681.1689,-24.448 675.5101,-28.085 686.1038,-25.2525 686.1038,-25.2525"/>
</g>
<!-- Commentary -->
<g id="node13" class="node">
<title>Commentary</title>
<ellipse fill="none" stroke="#000000" cx="593" cy="-90" rx="57.6901" ry="18"/>
<text text-anchor="middle" x="593" y="-86.3" font-family="Times,serif" font-size="14.00" fill="#000000">Commentary</text>
</g>
<!-- Student&#45;&gt;Commentary -->
<g id="edge6" class="edge">
<title>Student&#45;&gt;Commentary</title>
<path fill="none" stroke="#fb8012" d="M733.6203,-147.2015C705.7699,-135.8725 667.2209,-120.1915 637.5267,-108.1126"/>
<ellipse fill="none" stroke="#fb8012" cx="737.4628" cy="-148.7645" rx="4" ry="4"/>
<polygon fill="#fb8012" stroke="#fb8012" points="637.4846,-108.0955 629.9173,-100.1591 632.8532,-106.2115 628.2217,-104.3275 628.2217,-104.3275 628.2217,-104.3275 632.8532,-106.2115 626.5261,-108.4958 637.4846,-108.0955 637.4846,-108.0955"/>
</g>
<!-- Lesson&#45;&gt;LessonQuestion -->
<g id="edge8" class="edge">
<title>Lesson&#45;&gt;LessonQuestion</title>
<path fill="none" stroke="#b8cff0" d="M242.0796,-213.8241C208.2158,-187.4653 149.028,-141.3948 113.1817,-113.4928"/>
<ellipse fill="none" stroke="#b8cff0" cx="245.3949" cy="-216.4047" rx="4" ry="4"/>
<polygon fill="#b8cff0" stroke="#b8cff0" points="112.9269,-113.2944 107.7997,-103.601 108.9812,-110.2232 105.0356,-107.1521 105.0356,-107.1521 105.0356,-107.1521 108.9812,-110.2232 102.2715,-110.7031 112.9269,-113.2944 112.9269,-113.2944"/>
</g>
<!-- Exam -->
<g id="node12" class="node">
<title>Exam</title>
<ellipse fill="none" stroke="#000000" cx="453" cy="-162" rx="31.6951" ry="18"/>
<text text-anchor="middle" x="453" y="-158.3" font-family="Times,serif" font-size="14.00" fill="#000000">Exam</text>
</g>
<!-- Lesson&#45;&gt;Exam -->
<g id="edge7" class="edge">
<title>Lesson&#45;&gt;Exam</title>
<path fill="none" stroke="#47b122" d="M304.3316,-219.8601C336.9289,-207.1736 384.5031,-188.6583 416.9987,-176.0113"/>
<ellipse fill="none" stroke="#47b122" cx="300.2285" cy="-221.457" rx="4" ry="4"/>
<polygon fill="#47b122" stroke="#47b122" points="417.2471,-175.9147 428.1983,-176.4813 421.9067,-174.1012 426.5662,-172.2877 426.5662,-172.2877 426.5662,-172.2877 421.9067,-174.1012 424.9341,-168.0941 417.2471,-175.9147 417.2471,-175.9147"/>
</g>
<!-- QuestionAlternative -->
<g id="node10" class="node">
<title>QuestionAlternative</title>
<ellipse fill="none" stroke="#000000" cx="289" cy="-90" rx="81.7856" ry="18"/>
<text text-anchor="middle" x="289" y="-86.3" font-family="Times,serif" font-size="14.00" fill="#000000">QuestionAlternative</text>
</g>
<!-- QuestionAlternative&#45;&gt;ExamQuestionStudent -->
<g id="edge9" class="edge">
<title>QuestionAlternative&#45;&gt;ExamQuestionStudent</title>
<path fill="none" stroke="#50d3cf" d="M324.3387,-68.7968C339.254,-59.8476 356.6309,-49.4215 371.7468,-40.3519"/>
<ellipse fill="none" stroke="#50d3cf" cx="320.8683" cy="-70.879" rx="4" ry="4"/>
<polygon fill="#50d3cf" stroke="#50d3cf" points="371.775,-40.335 382.6652,-39.0488 376.0625,-37.7625 380.3499,-35.19 380.3499,-35.19 380.3499,-35.19 376.0625,-37.7625 378.0347,-31.3313 371.775,-40.335 371.775,-40.335"/>
</g>
<!-- ApplicationRecord -->
<g id="node11" class="node">
<title>ApplicationRecord</title>
<ellipse fill="none" stroke="#000000" cx="399" cy="-471" rx="77.1866" ry="18"/>
<text text-anchor="middle" x="399" y="-467.3" font-family="Times,serif" font-size="14.00" fill="#000000">ApplicationRecord</text>
</g>
<!-- Exam&#45;&gt;ExamStudent -->
<g id="edge11" class="edge">
<title>Exam&#45;&gt;ExamStudent</title>
<path fill="none" stroke="#812c9e" d="M490.0637,-152.4179C531.5005,-141.6851 600.5915,-123.729 660,-108 664.1261,-106.9076 668.3937,-105.7727 672.6846,-104.628"/>
<ellipse fill="none" stroke="#812c9e" cx="486.0285" cy="-153.4627" rx="4" ry="4"/>
<polygon fill="#812c9e" stroke="#812c9e" points="673.0227,-104.5377 683.8457,-106.302 677.853,-103.2462 682.6834,-101.9547 682.6834,-101.9547 682.6834,-101.9547 677.853,-103.2462 681.521,-97.6074 673.0227,-104.5377 673.0227,-104.5377"/>
</g>
<!-- ExamQuestion -->
<g id="node15" class="node">
<title>ExamQuestion</title>
<ellipse fill="none" stroke="#000000" cx="453" cy="-90" rx="63.8893" ry="18"/>
<text text-anchor="middle" x="453" y="-86.3" font-family="Times,serif" font-size="14.00" fill="#000000">ExamQuestion</text>
</g>
<!-- Exam&#45;&gt;ExamQuestion -->
<g id="edge10" class="edge">
<title>Exam&#45;&gt;ExamQuestion</title>
<path fill="none" stroke="#e7c395" d="M453,-135.8144C453,-130.2775 453,-124.4053 453,-118.7785"/>
<ellipse fill="none" stroke="#e7c395" cx="453" cy="-139.8314" rx="4" ry="4"/>
<polygon fill="#e7c395" stroke="#e7c395" points="453.0001,-118.4133 457.5,-108.4132 453,-113.4133 453,-108.4133 453,-108.4133 453,-108.4133 453,-113.4133 448.5,-108.4133 453.0001,-118.4133 453.0001,-118.4133"/>
</g>
<!-- Commentary&#45;&gt;Reaction -->
<g id="edge12" class="edge">
<title>Commentary&#45;&gt;Reaction</title>
<path fill="none" stroke="#06a1c1" d="M607.8931,-65.0628C611.8796,-58.3877 616.2017,-51.1506 620.2336,-44.3995"/>
<ellipse fill="none" stroke="#06a1c1" cx="605.6802" cy="-68.7681" rx="4" ry="4"/>
<polygon fill="#06a1c1" stroke="#06a1c1" points="620.3656,-44.1785 629.3565,-37.9004 622.9293,-39.8858 625.4931,-35.593 625.4931,-35.593 625.4931,-35.593 622.9293,-39.8858 621.6296,-33.2857 620.3656,-44.1785 620.3656,-44.1785"/>
</g>
<!-- Field&#45;&gt;Subject -->
<g id="edge13" class="edge">
<title>Field&#45;&gt;Subject</title>
<path fill="none" stroke="#48d6b1" d="M268,-351.8144C268,-346.2775 268,-340.4053 268,-334.7785"/>
<ellipse fill="none" stroke="#48d6b1" cx="268" cy="-355.8314" rx="4" ry="4"/>
<polygon fill="#48d6b1" stroke="#48d6b1" points="268.0001,-334.4133 272.5,-324.4132 268,-329.4133 268,-324.4133 268,-324.4133 268,-324.4133 268,-329.4133 263.5,-324.4133 268.0001,-334.4133 268.0001,-334.4133"/>
</g>
<!-- ExamQuestion&#45;&gt;ExamQuestionStudent -->
<g id="edge14" class="edge">
<title>ExamQuestion&#45;&gt;ExamQuestionStudent</title>
<path fill="none" stroke="#b4050e" d="M437.8283,-65.1736C433.8137,-58.6043 429.4624,-51.484 425.3866,-44.8145"/>
<ellipse fill="none" stroke="#b4050e" cx="440.0378" cy="-68.7891" rx="4" ry="4"/>
<polygon fill="#b4050e" stroke="#b4050e" points="425.2715,-44.626 423.8967,-33.7466 422.6642,-40.3595 420.0569,-36.0931 420.0569,-36.0931 420.0569,-36.0931 422.6642,-40.3595 416.2171,-38.4397 425.2715,-44.626 425.2715,-44.626"/>
</g>
<!-- Question -->
<g id="node16" class="node">
<title>Question</title>
<ellipse fill="none" stroke="#000000" cx="289" cy="-162" rx="42.4939" ry="18"/>
<text text-anchor="middle" x="289" y="-158.3" font-family="Times,serif" font-size="14.00" fill="#000000">Question</text>
</g>
<!-- Question&#45;&gt;ExamQuestionStudent -->
<g id="edge18" class="edge">
<title>Question&#45;&gt;ExamQuestionStudent</title>
<path fill="none" stroke="#e92f60" d="M246.7591,-147.9115C228.3447,-139.4249 208.5786,-126.5784 198,-108 190.083,-94.096 188.1886,-84.6387 198,-72 213.6242,-51.8736 271.2721,-37.9726 322.3689,-29.3201"/>
<ellipse fill="none" stroke="#e92f60" cx="250.8679" cy="-149.6939" rx="4" ry="4"/>
<polygon fill="#e92f60" stroke="#e92f60" points="322.6186,-29.2792 333.2155,-32.0998 327.5525,-28.4692 332.4865,-27.6592 332.4865,-27.6592 332.4865,-27.6592 327.5525,-28.4692 331.7575,-23.2187 322.6186,-29.2792 322.6186,-29.2792"/>
</g>
<!-- Question&#45;&gt;LessonQuestion -->
<g id="edge17" class="edge">
<title>Question&#45;&gt;LessonQuestion</title>
<path fill="none" stroke="#f412ae" d="M248.0425,-147.6848C215.2123,-136.2101 168.9781,-120.0506 133.7931,-107.7529"/>
<ellipse fill="none" stroke="#f412ae" cx="252.1265" cy="-149.1122" rx="4" ry="4"/>
<polygon fill="#f412ae" stroke="#f412ae" points="133.6224,-107.6933 125.6672,-100.1458 128.9024,-106.0436 124.1824,-104.3939 124.1824,-104.3939 124.1824,-104.3939 128.9024,-106.0436 122.6976,-108.6419 133.6224,-107.6933 133.6224,-107.6933"/>
</g>
<!-- Question&#45;&gt;QuestionAlternative -->
<g id="edge15" class="edge">
<title>Question&#45;&gt;QuestionAlternative</title>
<path fill="none" stroke="#d72140" d="M289,-135.8144C289,-130.2775 289,-124.4053 289,-118.7785"/>
<ellipse fill="none" stroke="#d72140" cx="289" cy="-139.8314" rx="4" ry="4"/>
<polygon fill="#d72140" stroke="#d72140" points="289.0001,-118.4133 293.5,-108.4132 289,-113.4133 289,-108.4133 289,-108.4133 289,-108.4133 289,-113.4133 284.5,-108.4133 289.0001,-118.4133 289.0001,-118.4133"/>
</g>
<!-- Question&#45;&gt;Commentary -->
<g id="edge19" class="edge">
<title>Question&#45;&gt;Commentary</title>
<path fill="none" stroke="#fdb387" d="M334.8692,-152.0967C382.701,-141.6415 459.7919,-124.4299 526,-108 530.3928,-106.9099 534.9397,-105.752 539.5007,-104.5696"/>
<ellipse fill="none" stroke="#fdb387" cx="330.7774" cy="-152.9893" rx="4" ry="4"/>
<polygon fill="#fdb387" stroke="#fdb387" points="539.781,-104.4962 550.5955,-106.3119 544.6174,-103.2277 549.4538,-101.9591 549.4538,-101.9591 549.4538,-101.9591 544.6174,-103.2277 548.3121,-97.6064 539.781,-104.4962 539.781,-104.4962"/>
</g>
<!-- Question&#45;&gt;ExamQuestion -->
<g id="edge16" class="edge">
<title>Question&#45;&gt;ExamQuestion</title>
<path fill="none" stroke="#d4bf0f" d="M326.2275,-145.6562C350.874,-134.8358 383.303,-120.5987 409.1921,-109.2328"/>
<ellipse fill="none" stroke="#d4bf0f" cx="322.3617" cy="-147.3534" rx="4" ry="4"/>
<polygon fill="#d4bf0f" stroke="#d4bf0f" points="409.2513,-109.2068 420.2167,-109.3073 413.8295,-107.1968 418.4077,-105.1869 418.4077,-105.1869 418.4077,-105.1869 413.8295,-107.1968 416.5987,-101.0665 409.2513,-109.2068 409.2513,-109.2068"/>
</g>
</g>
</svg>
