<?xml version="1.0" encoding="utf-8"?>
<!-- Generator: Adobe Illustrator 25.0.0, SVG Export Plug-In . SVG Version: 6.00 Build 0)  -->
<svg version="1.1" id="Camada_1" xmlns="http://www.w3.org/2000/svg" xmlns:xlink="http://www.w3.org/1999/xlink" x="0px" y="0px"
	 viewBox="0 0 841.9 595.3" style="enable-background:new 0 0 841.9 595.3;" xml:space="preserve">
<g>
	<path d="M206.6,137.8c0-1.7,0-3.3,0-5c0.5-0.3,0.6-0.9,0.7-1.4c0.2-1.1,0.6-2.2,1-3.2c2-4.8,5.6-8.1,10-10.6
		c13.8-7.7,27.6-15.3,41.4-23c26.7-14.8,53.4-29.6,80.2-44.4c7.5-4.2,15.3-8,22.7-12.4c1.5-0.9,3.2-1.4,5-1.8c1.9-0.2,3.8-0.1,5.7,0
		c7.4,0.9,14.8,1.9,22.2,2.8c11,1.4,22.1,2.7,33.1,4c11,1.4,22.1,2.8,33.1,4.1c9.2,1.1,18.3,2.2,27.5,3.3c11.9,1.5,23.8,3,35.7,4.5
		c10,1.2,20,2.4,29.9,3.7c2,0.3,4,0.4,5.9,1c2.1,0.7,3.9,1.7,5.1,3.6c1.9,3.3,2.2,8.5-1.9,11.9c-1.1,0.9-2.3,1.6-3.6,2.3
		c-7.4,3.7-14.7,7.7-21.9,11.7c-39.4,22.4-79.1,44.4-118.8,66.3c-7.5,4.1-14.8,8.4-22.4,12.2c-6.2,3.1-12.6,5.2-19.5,5.1
		c-4.7,0-9.5-0.5-14.2-1.1c-9.4-1.1-18.8-2.5-28.2-3.5c-7.7-0.8-15.3-1.5-23-1.4c-0.7,0-1.3-0.1-1.9-0.3c-0.9-0.3-1.3-1-1.5-1.8
		c-0.2-0.8,0.3-1.4,0.9-1.8c0.9-0.6,1.9-1.2,2.8-1.9c13.9-9.7,27.8-19.3,41.7-29c13.4-9.3,26.8-18.7,40.2-28
		c0.9-0.6,1.8-1.3,2.5-2.2c2.6-3.3,2.4-9.6-0.4-12.7c-0.2-0.2-0.4-0.4-0.7-0.6c-1.6-1-3.2-2-4.9-2.9c-2.9-1.5-5.7-1.4-8.5,0.1
		c-1.8,1-3.6,2.1-5.3,3.3c-14.2,9.9-28.3,19.8-42.5,29.7c-19.1,13.3-38,26.9-57.3,39.8c-2.3,1.5-3.7,3.6-4.6,6.2
		c-3.7,10.2-4.6,20.7-2.8,31.5c0.9,5.7,3.7,9.9,9.2,12.1c2.1,0.9,3.9,2.3,5.2,4.1c4.5,6,5.9,12.6,3.5,19.7
		c-1.4,4.1-1.6,8.2-0.3,12.3c1,3.2,1.9,6.3,2.5,9.6c0.3,1.7,0.6,3.4,1,5.5c1.1-1.3,2.1-2.3,3-3.4c4.8-5.4,9.7-10.7,14-16.5
		c1.6-2.1,2.7-4.4,3.4-7c1.8-6.3,1.1-12.6-1.3-18.6c-3.6-8.7-9.5-15-18.7-17.9c-1-0.3-1.9-0.7-2.8-1.2c-1.9-1.1-2.8-2.6-2.8-4.8
		c0-1.3,0.2-2.6,0.9-3.7c3-4.8,7.4-7.4,13.1-7.6c3.4-0.1,6.9,0.4,10.3,0.6c7.7,0.5,15.4,1.1,23,1.7c5.6,0.4,11.1,0.8,16.7,1.2
		c7.6,0.5,15.2,1.1,22.9,1.6c7.7,0.5,15.4,1,23,1.7c2.1,0.2,4.1-0.2,6-1.2c1.7-1,3.4-1.9,5.1-2.9c31.1-17.9,62.3-35.4,93-54
		c1.4-0.9,2.9-1.5,4.5-2c6.4-1.9,12.3,0.5,15.4,6.4c0.8,1.5,1.4,3,1.7,4.6c2,9.5,4.6,18.8,7.3,28.1c1.5,5.2,3.1,10.4,4.5,15.7
		c0.9,3.3,0,5.4-2.8,7.4c-1.3,0.9-2.6,1.9-3.8,2.9c-2.1,1.8-4.2,3.5-6.5,4.9c-0.5,0.3-1.1,0.8-1.5,1.2c-0.9,1-0.9,1.7,0.1,2.5
		c0.8,0.7,1.7,1.1,2.6,1.5c21.6,9.9,40.4,23.8,56.7,41.1c16.4,17.5,29.4,37.2,38.2,59.5c5.5,14,9.1,28.5,11.1,43.3
		c0.9,7,1.6,14,1.5,21.1c0,4.3,0,8.6,0,12.8c0,5.2-0.3,10.3-1.1,15.4c-0.8,5.1-1.5,10.3-2.6,15.4c-1.3,6.2-4.9,10.7-10.7,13.3
		c-3.2,1.4-6.5,2.1-10,2.1c-29.7,0-59.4,0-89,0c-1.5,0-3,0.1-4.4,0c-4.9-0.2-9.3,1.2-13.5,3.7c-14.5,8.9-30,14.9-47,16.7
		c-9.6,1-19.1,0.5-28.6-1.4c-10.9-2.2-21.2-6.1-31-11.4c-4.2-2.3-8.4-4.6-12.2-7.6c-4-3.2-7-7.1-8.1-12.2c-1-4.4-1-8.8,0.1-13.2
		c1.7-6.9,6-11.3,12.8-13.5c3-1,6.1-1.2,9.3-1.3c5.3-0.1,10.7,0,16,0c20.7,0,41.3,0,62,0c35.1,0,70.3,0,105.4,0
		c3.1,0,6.3,0.3,9.4,0.3c2.7,0,3.6-0.9,3.7-3.6c0-0.8,0-1.5,0-2.3c0-1.3,0-2.6,0-3.9c0.1-5.1,0.1-10.2-0.2-15.3
		c-0.6-8.7-1.9-17.3-4.1-25.7c-9.7-36-29.9-64.8-60.6-86c-12-8.3-25.2-14.5-39.3-18.5c-3.2-0.9-6.2-0.6-9,1.1
		c-0.4,0.2-0.7,0.4-1.1,0.6c-24.6,14.6-51.1,23.3-79.7,25.3c-12.3,0.9-24.6,0.4-36.9-1.2c-1.8-0.2-3.5-0.2-5.3,0.1
		c-3.3,0.5-5.9,2.2-8.3,4.4c-9.7,8.8-18.3,18.7-25.5,29.7c-13.7,20.8-21.5,43.7-23.7,68.5c-0.6,7.3-0.6,14.5-0.2,21.8
		c0.6,8.9,1.9,17.6,4.2,26.3c7.1,27.5,21,51.1,41.5,70.7c26.9,25.7,59.1,38.9,96.1,40.3c14.5,0.6,28.7-1.2,42.7-4.9
		c28-7.5,51.8-21.8,71.3-43.4c1.7-1.9,3.5-3.8,5.5-5.6c4.6-4.1,9.9-6.1,16.2-5c5.1,0.9,9.5,3,12.6,7.2c3.9,5.1,5.5,10.8,4,17.2
		c-0.8,3.3-2.5,6.1-4.7,8.7c-16.4,19.7-36.3,35-59.2,46.4c-23.2,11.5-47.7,18-73.6,19.4c-1.1,0-2.2-0.3-3.2,0.3c-4.5,0-9,0-13.5,0
		c-1-0.6-2.1-0.3-3.2-0.3c-4-0.3-7.9-0.6-11.8-1c-9.7-1.1-19.2-3-28.5-5.6c-31.8-9-59.3-25.2-82.4-48.8
		c-14.8-15.1-27.1-32.1-36.3-51.2c-11.1-22.8-16.8-47-17.6-72.3c-0.4-12.3,0.3-24.5,2.1-36.7c0.2-1.7,0.6-3.4,0.4-5.1
		c-0.1,0-0.2-0.1-0.2,0c-0.5,0.2-1,0.4-1.5,0.6c-3.2,1.3-6.5,2-9.9,1.2c-4.9-1.2-9-3.7-11-8.6c-1.3-3.3-1.5-6.7-0.7-10.1
		c0.9-3.9,3.3-6.6,6.8-8.4c11.7-6,18.9-15.4,21.9-28.1c1.3-5.6,1.7-11.2,1.9-16.9c0.1-4.2-0.3-8.4-1.3-12.5
		c-0.8-3.3-2.7-5.7-5.8-7.2c-0.8-0.4-1.6-0.7-2.4-1.1c-10-5-14.2-17.3-9.4-27.9c1.1-2.4,2.6-4.5,4.4-6.4c2.2-2.3,2.9-5,2.3-8.2
		c-0.7-3.6-1.3-7.2-1.6-10.9c-1-10.2-0.1-20.1,3.4-29.7c0.2-0.6,0.4-1.2,0.5-1.9c0.1-1.5-0.7-2.5-2.2-2.6c-2.1-0.2-4.2-0.5-6.4-0.7
		c-7.7-0.7-15.3-1.6-22.9-2.5c-8.7-1-15.1-7.7-16.7-15.2C207.2,138.8,207.1,138.2,206.6,137.8z"/>
	<path d="M442.1,256c17.6,0,32.8,3.8,47.1,11c14.2,7.2,26.6,17,37.8,28.3c2.1,2.1,4,4.5,5.7,7c7.6,11.4,1.6,26.8-11.8,29.9
		c-8.4,1.9-15.6-0.3-21.2-6.9c-8.7-10.2-19-18.5-31.4-23.8c-7.8-3.4-15.9-5.3-24.4-5.4c-11.5-0.2-22.2,2.8-32.3,8.3
		c-4.8,2.6-9.3,5.8-13.6,9.3c-1.7,1.3-3.1,2.9-4.6,4.4c-2.8,2.8-5.7,5.5-8.8,8c-5.9,5-12.6,6.4-19.9,3.7
		c-7.3-2.7-11.7-8.1-12.9-15.8c-1-6.1,0.8-11.6,5.1-16.2c2.9-3.2,6-6.2,9.3-9c8.5-7.3,17.3-14,27-19.6c10.9-6.2,22.6-10.2,35-12
		C433.3,256.4,438.5,256,442.1,256z"/>
</g>
</svg>
